font.ufo
<glyph name="exclam" format="1">
  <advance width="274"/>
  <unicode hex="0021"/>
  <outline>
    <contour>
      <point x="184" y="229" type="line"/>
      <point x="195" y="722" type="line"/>
      <point x="79" y="722" type="line"/>
      <point x="91" y="229" type="line"/>
    </contour>
    <contour>
      <point x="198" y="45" type="curve"/>
      <point x="198" y="82"/>
      <point x="173" y="100"/>
      <point x="136" y="100" type="curve"/>
      <point x="100" y="100"/>
      <point x="77" y="80"/>
      <point x="77" y="45" type="curve"/>
      <point x="194" y="45"/>
      <point x="81" y="45"/>
      <point x="198" y="45" type="curve"/>
      <point x="198" y="8"/>
      <point x="173" y="-9"/>
      <point x="136" y="-9" type="curve"/>
      <point x="99" y="-9"/>
      <point x="77" y="10"/>
      <point x="77" y="45" type="curve"/>
      <point x="194" y="45"/>
      <point x="81" y="45"/>
    </contour>
  </outline>
</glyph>
<glyph name="quotedbl" format="1">
  <advance width="459"/>
  <unicode hex="0022"/>
  <outline>
    <contour>
      <point x="177" y="612" type="line"/>
      <point x="185" y="825" type="line"/>
      <point x="69" y="825" type="line"/>
      <point x="77" y="612" type="line"/>
    </contour>
    <contour>
      <point x="382" y="612" type="line"/>
      <point x="390" y="825" type="line"/>
      <point x="275" y="825" type="line"/>
      <point x="282" y="612" type="line"/>
    </contour>
  </outline>
</glyph>
<glyph name="numbersign" format="1">
  <advance width="721"/>
  <unicode hex="0023"/>
  <outline>
    <contour>
      <point x="45" y="226" type="line"/>
      <point x="576" y="226" type="line"/>
      <point x="603" y="308" type="line"/>
      <point x="73" y="308" type="line"/>
    </contour>
    <contour>
      <point x="116" y="450" type="line"/>
      <point x="649" y="450" type="line"/>
      <point x="676" y="531" type="line"/>
      <point x="142" y="531" type="line"/>
    </contour>
    <contour>
      <point x="446" y="39" type="line"/>
      <point x="671" y="722" type="line"/>
      <point x="565" y="722" type="line"/>
      <point x="339" y="39" type="line"/>
    </contour>
    <contour>
      <point x="163" y="46" type="line"/>
      <point x="387" y="722" type="line"/>
      <point x="280" y="722" type="line"/>
      <point x="61" y="46" type="line"/>
    </contour>
  </outline>
</glyph>
<glyph name="dollar" format="1">
  <advance width="614"/>
  <unicode hex="0024"/>
  <outline>
    <contour>
      <point x="146" y="94" type="curve"/>
      <point x="146" y="214"/>
      <point x="146" y="104"/>
      <point x="146" y="224" type="curve"/>
      <point x="63" y="224"/>
      <point x="146" y="224"/>
      <point x="63" y="224" type="curve"/>
      <point x="63" y="104"/>
      <point x="63" y="214"/>
      <point x="63" y="94" type="curve"/>
      <point x="146" y="94"/>
      <point x="63" y="94"/>
    </contour>
    <contour>
      <point x="446" y="634" type="curve"/>
      <point x="446" y="514"/>
      <point x="446" y="624"/>
      <point x="446" y="504" type="curve"/>
      <point x="529" y="504"/>
      <point x="446" y="504"/>
      <point x="529" y="504" type="curve"/>
      <point x="529" y="624"/>
      <point x="529" y="514"/>
      <point x="529" y="634" type="curve"/>
      <point x="446" y="634"/>
      <point x="529" y="634"/>
    </contour>
    <contour>
      <point x="343" y="-41" type="curve"/>
      <point x="343" y="-10"/>
      <point x="343" y="53"/>
      <point x="343" y="85" type="curve"/>
      <point x="236" y="85"/>
      <point x="343" y="85"/>
      <point x="236" y="85" type="curve"/>
      <point x="236" y="53"/>
      <point x="236" y="-10"/>
      <point x="236" y="-41" type="curve"/>
      <point x="343" y="-41"/>
      <point x="236" y="-41"/>
    </contour>
    <contour>
      <point x="355" y="645" type="curve"/>
      <point x="355" y="676"/>
      <point x="355" y="742"/>
      <point x="355" y="773" type="curve"/>
      <point x="249" y="773"/>
      <point x="355" y="773"/>
      <point x="249" y="773" type="curve"/>
      <point x="249" y="742"/>
      <point x="249" y="676"/>
      <point x="249" y="645" type="curve"/>
      <point x="355" y="645"/>
      <point x="249" y="645"/>
    </contour>
    <contour>
      <point x="63" y="94" type="curve"/>
      <point x="125" y="67"/>
      <point x="200" y="43"/>
      <point x="284" y="43" type="curve"/>
      <point x="439" y="43"/>
      <point x="566" y="90"/>
      <point x="566" y="213" type="curve"/>
      <point x="566" y="324"/>
      <point x="454" y="365"/>
      <point x="336" y="411" type="curve"/>
      <point x="253" y="442"/>
      <point x="176" y="462"/>
      <point x="176" y="528" type="curve"/>
      <point x="176" y="583"/>
      <point x="234" y="606"/>
      <point x="305" y="606" type="curve"/>
      <point x="371" y="606"/>
      <point x="417" y="592"/>
      <point x="476" y="565" type="curve"/>
      <point x="529" y="634"/>
      <point x="476" y="565"/>
      <point x="529" y="634" type="curve"/>
      <point x="455" y="668"/>
      <point x="394" y="686"/>
      <point x="310" y="686" type="curve"/>
      <point x="174" y="686"/>
      <point x="70" y="638"/>
      <point x="70" y="528" type="curve"/>
      <point x="70" y="422"/>
      <point x="160" y="380"/>
      <point x="273" y="337" type="curve"/>
      <point x="362" y="304"/>
      <point x="460" y="283"/>
      <point x="460" y="210" type="curve"/>
      <point x="460" y="143"/>
      <point x="383" y="124"/>
      <point x="294" y="124" type="curve"/>
      <point x="227" y="124"/>
      <point x="169" y="146"/>
      <point x="121" y="166" type="curve"/>
      <point x="63" y="93"/>
      <point x="121" y="166"/>
    </contour>
  </outline>
</glyph>
<glyph name="percent" format="1">
  <advance width="1150"/>
  <unicode hex="0025"/>
  <outline>
    <contour>
      <point x="410" y="-54" type="line"/>
      <point x="855" y="724" type="line"/>
      <point x="756" y="724" type="line"/>
      <point x="311" y="-54" type="line"/>
    </contour>
    <contour>
      <point x="136" y="510" type="curve"/>
      <point x="136" y="592"/>
      <point x="172" y="649"/>
      <point x="250" y="649" type="curve"/>
      <point x="327" y="650"/>
      <point x="364" y="592"/>
      <point x="364" y="509" type="curve"/>
      <point x="364" y="428"/>
      <point x="332" y="368"/>
      <point x="256" y="368" type="curve"/>
      <point x="175" y="368"/>
      <point x="136" y="426"/>
      <point x="136" y="510" type="curve"/>
      <point x="100" y="510"/>
      <point x="76" y="510"/>
      <point x="40" y="510" type="curve"/>
      <point x="40" y="376"/>
      <point x="117" y="290"/>
      <point x="251" y="290" type="curve"/>
      <point x="386" y="290"/>
      <point x="465" y="377"/>
      <point x="465" y="513" type="curve"/>
      <point x="465" y="646"/>
      <point x="387" y="727"/>
      <point x="254" y="727" type="curve"/>
      <point x="120" y="727"/>
      <point x="40" y="644"/>
      <point x="40" y="510" type="curve"/>
      <point x="76" y="510"/>
      <point x="100" y="510"/>
    </contour>
    <contour>
      <point x="782" y="161" type="curve"/>
      <point x="782" y="242"/>
      <point x="818" y="299"/>
      <point x="895" y="299" type="curve"/>
      <point x="973" y="300"/>
      <point x="1010" y="243"/>
      <point x="1010" y="160" type="curve"/>
      <point x="1010" y="78"/>
      <point x="978" y="18"/>
      <point x="901" y="18" type="curve"/>
      <point x="820" y="18"/>
      <point x="782" y="77"/>
      <point x="782" y="161" type="curve"/>
      <point x="746" y="161"/>
      <point x="722" y="161"/>
      <point x="686" y="161" type="curve"/>
      <point x="686" y="26"/>
      <point x="763" y="-59"/>
      <point x="896" y="-59" type="curve"/>
      <point x="1031" y="-59"/>
      <point x="1110" y="27"/>
      <point x="1110" y="163" type="curve"/>
      <point x="1110" y="296"/>
      <point x="1032" y="377"/>
      <point x="900" y="377" type="curve"/>
      <point x="766" y="377"/>
      <point x="686" y="295"/>
      <point x="686" y="161" type="curve"/>
      <point x="722" y="161"/>
      <point x="746" y="161"/>
    </contour>
  </outline>
</glyph>
<glyph name="ampersand" format="1">
  <advance width="737"/>
  <unicode hex="0026"/>
  <outline>
    <contour>
      <point x="713" y="46" type="line"/>
      <point x="605" y="146"/>
      <point x="484" y="264"/>
      <point x="374" y="368" type="curve"/>
      <point x="313" y="428"/>
      <point x="233" y="470"/>
      <point x="233" y="558" type="curve"/>
      <point x="233" y="610"/>
      <point x="264" y="646"/>
      <point x="315" y="646" type="curve"/>
      <point x="373" y="646"/>
      <point x="411" y="615"/>
      <point x="411" y="560" type="curve"/>
      <point x="411" y="479"/>
      <point x="344" y="447"/>
      <point x="269" y="409" type="curve"/>
      <point x="161" y="353"/>
      <point x="59" y="311"/>
      <point x="59" y="193" type="curve"/>
      <point x="59" y="61"/>
      <point x="168" y="-5"/>
      <point x="309" y="-5" type="curve"/>
      <point x="507" y="-5"/>
      <point x="623" y="124"/>
      <point x="692" y="313" type="curve"/>
      <point x="599" y="335"/>
      <point x="692" y="313"/>
      <point x="599" y="335" type="curve"/>
      <point x="546" y="185"/>
      <point x="465" y="76"/>
      <point x="314" y="76" type="curve"/>
      <point x="230" y="76"/>
      <point x="166" y="113"/>
      <point x="166" y="193" type="curve"/>
      <point x="166" y="277"/>
      <point x="238" y="304"/>
      <point x="314" y="344" type="curve"/>
      <point x="418" y="400"/>
      <point x="516" y="445"/>
      <point x="517" y="560" type="curve"/>
      <point x="517" y="669"/>
      <point x="433" y="727"/>
      <point x="320" y="727" type="curve"/>
      <point x="208" y="727"/>
      <point x="130" y="665"/>
      <point x="130" y="558" type="curve"/>
      <point x="130" y="449"/>
      <point x="221" y="393"/>
      <point x="299" y="319" type="curve"/>
      <point x="408" y="217"/>
      <point x="543" y="87"/>
      <point x="649" y="-12" type="curve"/>
    </contour>
  </outline>
</glyph>
<glyph name="quotesingle" format="1">
  <advance width="254"/>
  <unicode hex="0027"/>
  <outline>
    <contour>
      <point x="177" y="612" type="line"/>
      <point x="185" y="825" type="line"/>
      <point x="69" y="825" type="line"/>
      <point x="77" y="612" type="line"/>
    </contour>
  </outline>
</glyph>
<glyph name="parenright" format="1">
  <advance width="400"/>
  <unicode hex="0029"/>
  <outline>
    <contour>
      <point x="65" y="-286" type="curve"/>
      <point x="250" y="-101"/>
      <point x="353" y="65"/>
      <point x="353" y="328" type="curve"/>
      <point x="353" y="586"/>
      <point x="257" y="750"/>
      <point x="69" y="924" type="curve"/>
      <point x="6" y="867"/>
      <point x="69" y="924"/>
      <point x="6" y="867" type="curve"/>
      <point x="171" y="708"/>
      <point x="248" y="555"/>
      <point x="248" y="325" type="curve"/>
      <point x="248" y="90"/>
      <point x="162" y="-64"/>
      <point x="1" y="-233" type="curve"/>
      <point x="65" y="-286"/>
      <point x="1" y="-233"/>
    </contour>
  </outline>
</glyph>
<glyph name="asterisk" format="1">
  <advance width="598"/>
  <unicode hex="002A"/>
  <outline>
    <contour>
      <point x="335" y="584" type="line"/>
      <point x="340" y="797" type="line"/>
      <point x="256" y="797" type="line"/>
      <point x="262" y="584" type="line"/>
    </contour>
    <contour>
      <point x="334" y="534" type="line"/>
      <point x="538" y="600" type="line"/>
      <point x="509" y="679" type="line"/>
      <point x="310" y="603" type="line"/>
    </contour>
    <contour>
      <point x="287" y="519" type="line"/>
      <point x="417" y="349" type="line"/>
      <point x="481" y="403" type="line"/>
      <point x="343" y="565" type="line"/>
    </contour>
    <contour>
      <point x="259" y="563" type="line"/>
      <point x="121" y="400" type="line"/>
      <point x="186" y="347" type="line"/>
      <point x="315" y="517" type="line"/>
    </contour>
    <contour>
      <point x="289" y="599" type="line"/>
      <point x="90" y="676" type="line"/>
      <point x="62" y="597" type="line"/>
      <point x="265" y="531" type="line"/>
    </contour>
  </outline>
</glyph>
<glyph name="plus" format="1">
  <advance width="672"/>
  <unicode hex="002B"/>
  <outline>
    <contour>
      <point x="48" y="268" type="curve"/>
      <point x="624" y="268" type="line"/>
      <point x="624" y="357"/>
      <point x="624" y="268"/>
      <point x="624" y="357" type="curve"/>
      <point x="48" y="357" type="line"/>
      <point x="48" y="268"/>
      <point x="48" y="357"/>
    </contour>
    <contour>
      <point x="387" y="30" type="curve"/>
      <point x="387" y="585" type="line"/>
      <point x="280" y="585"/>
      <point x="393" y="585"/>
      <point x="287" y="585" type="curve"/>
      <point x="287" y="30" type="line"/>
      <point x="393" y="30"/>
      <point x="280" y="30"/>
    </contour>
  </outline>
</glyph>
<glyph name="comma" format="1">
  <advance width="278"/>
  <unicode hex="002C"/>
  <outline>
    <contour>
      <point x="60" y="-118" type="line"/>
      <point x="141" y="-109"/>
      <point x="199" y="-51"/>
      <point x="199" y="37" type="curve"/>
      <point x="199" y="99"/>
      <point x="172" y="141"/>
      <point x="128" y="141" type="curve"/>
      <point x="92" y="141"/>
      <point x="66" y="122"/>
      <point x="66" y="87" type="curve"/>
      <point x="66" y="54"/>
      <point x="89" y="34"/>
      <point x="125" y="33" type="curve"/>
      <point x="124" y="-1"/>
      <point x="112" y="-45"/>
      <point x="54" y="-60" type="curve"/>
    </contour>
  </outline>
</glyph>
<glyph name="hyphen" format="1">
  <advance width="458"/>
  <unicode hex="002D"/>
  <outline>
    <contour>
      <point x="77" y="235" type="curve"/>
      <point x="178" y="235"/>
      <point x="280" y="235"/>
      <point x="381" y="235" type="curve"/>
      <point x="381" y="325"/>
      <point x="381" y="235"/>
      <point x="381" y="325" type="curve"/>
      <point x="280" y="325"/>
      <point x="178" y="325"/>
      <point x="77" y="325" type="curve"/>
      <point x="77" y="235"/>
      <point x="77" y="325"/>
    </contour>
  </outline>
</glyph>
<glyph name="period" format="1">
  <advance width="266"/>
  <unicode hex="002E"/>
  <outline>
    <contour>
      <point x="194" y="45" type="curve"/>
      <point x="194" y="82"/>
      <point x="167" y="100"/>
      <point x="132" y="100" type="curve"/>
      <point x="96" y="100"/>
      <point x="71" y="80"/>
      <point x="71" y="45" type="curve"/>
      <point x="189" y="45"/>
      <point x="76" y="45"/>
      <point x="194" y="45" type="curve"/>
      <point x="194" y="8"/>
      <point x="168" y="-9"/>
      <point x="131" y="-9" type="curve"/>
      <point x="95" y="-9"/>
      <point x="71" y="10"/>
      <point x="71" y="45" type="curve"/>
      <point x="189" y="45"/>
      <point x="76" y="45"/>
    </contour>
  </outline>
</glyph>
<glyph name="slash" format="1">
  <advance width="612"/>
  <unicode hex="002F"/>
  <outline>
    <contour>
      <point x="138" y="-31" type="curve"/>
      <point x="285" y="247"/>
      <point x="433" y="525"/>
      <point x="581" y="802" type="curve"/>
      <point x="475" y="802"/>
      <point x="581" y="802"/>
      <point x="475" y="802" type="curve"/>
      <point x="327" y="525"/>
      <point x="179" y="247"/>
      <point x="31" y="-31" type="curve"/>
      <point x="138" y="-31"/>
      <point x="31" y="-31"/>
    </contour>
  </outline>
</glyph>
<glyph name="zero" format="1">
  <advance width="784"/>
  <unicode hex="0030"/>
  <outline>
    <contour>
      <point x="168" y="360" type="curve"/>
      <point x="168" y="527"/>
      <point x="233" y="642"/>
      <point x="389" y="642" type="curve"/>
      <point x="546" y="642"/>
      <point x="617" y="529"/>
      <point x="617" y="363" type="curve"/>
      <point x="617" y="196"/>
      <point x="552" y="81"/>
      <point x="398" y="81" type="curve"/>
      <point x="241" y="81"/>
      <point x="168" y="192"/>
      <point x="168" y="360" type="curve"/>
      <point x="62" y="360"/>
      <point x="167" y="360"/>
      <point x="61" y="360" type="curve"/>
      <point x="61" y="138"/>
      <point x="176" y="-5"/>
      <point x="393" y="-5" type="curve"/>
      <point x="611" y="-5"/>
      <point x="723" y="139"/>
      <point x="723" y="363" type="curve"/>
      <point x="723" y="584"/>
      <point x="613" y="727"/>
      <point x="399" y="727" type="curve"/>
      <point x="178" y="727"/>
      <point x="61" y="585"/>
      <point x="61" y="360" type="curve"/>
      <point x="167" y="360"/>
      <point x="62" y="360"/>
    </contour>
  </outline>
</glyph>
<glyph name="two" format="1">
  <advance width="647"/>
  <unicode hex="0032"/>
  <outline>
    <contour>
      <point x="582" y="81" type="curve"/>
      <point x="582" y="194"/>
      <point x="582" y="76"/>
      <point x="582" y="189" type="curve"/>
      <point x="498" y="189"/>
      <point x="582" y="189"/>
      <point x="498" y="189" type="curve"/>
      <point x="498" y="76"/>
      <point x="498" y="194"/>
      <point x="498" y="81" type="curve"/>
      <point x="582" y="81"/>
      <point x="498" y="81"/>
    </contour>
    <contour>
      <point x="51" y="0" type="curve"/>
      <point x="255" y="0"/>
      <point x="427" y="0"/>
      <point x="582" y="0" type="curve"/>
      <point x="582" y="81"/>
      <point x="582" y="0"/>
      <point x="582" y="81" type="curve"/>
      <point x="409" y="81"/>
      <point x="223" y="81"/>
      <point x="51" y="81" type="curve"/>
      <point x="51" y="0"/>
      <point x="51" y="81"/>
    </contour>
    <contour>
      <point x="133" y="529" type="curve"/>
      <point x="185" y="598"/>
      <point x="228" y="642"/>
      <point x="307" y="642" type="curve"/>
      <point x="392" y="642"/>
      <point x="444" y="597"/>
      <point x="444" y="510" type="curve"/>
      <point x="444" y="403"/>
      <point x="366" y="335"/>
      <point x="282" y="270" type="curve"/>
      <point x="205" y="206"/>
      <point x="130" y="145"/>
      <point x="51" y="81" type="curve"/>
      <point x="55" y="0"/>
      <point x="51" y="81"/>
      <point x="55" y="0" type="curve"/>
      <point x="186" y="65"/>
      <point x="267" y="139"/>
      <point x="349" y="207" type="curve"/>
      <point x="456" y="290"/>
      <point x="543" y="370"/>
      <point x="543" y="514" type="curve"/>
      <point x="543" y="655"/>
      <point x="454" y="727"/>
      <point x="312" y="727" type="curve"/>
      <point x="197" y="727"/>
      <point x="116" y="673"/>
      <point x="61" y="576" type="curve"/>
      <point x="133" y="529"/>
      <point x="61" y="576"/>
    </contour>
  </outline>
</glyph>
<glyph name="five" format="1">
  <advance width="581"/>
  <unicode hex="0035"/>
  <outline>
    <contour>
      <point x="86" y="722" type="curve"/>
      <point x="86" y="624"/>
      <point x="86" y="514"/>
      <point x="86" y="384" type="curve"/>
      <point x="188" y="357"/>
      <point x="86" y="384"/>
      <point x="188" y="357" type="curve"/>
      <point x="188" y="448"/>
      <point x="188" y="549"/>
      <point x="188" y="641" type="curve"/>
      <point x="86" y="722"/>
      <point x="188" y="641"/>
    </contour>
    <contour>
      <point x="188" y="357" type="curve"/>
      <point x="208" y="373"/>
      <point x="248" y="385"/>
      <point x="277" y="385" type="curve"/>
      <point x="369" y="385"/>
      <point x="421" y="329"/>
      <point x="421" y="236" type="curve"/>
      <point x="421" y="142"/>
      <point x="352" y="81"/>
      <point x="256" y="81" type="curve"/>
      <point x="200" y="81"/>
      <point x="156" y="91"/>
      <point x="101" y="117" type="curve"/>
      <point x="52" y="43"/>
      <point x="101" y="117"/>
      <point x="52" y="43" type="curve"/>
      <point x="117" y="11"/>
      <point x="177" y="-5"/>
      <point x="252" y="-5" type="curve"/>
      <point x="408" y="-5"/>
      <point x="527" y="86"/>
      <point x="527" y="236" type="curve"/>
      <point x="527" y="380"/>
      <point x="432" y="471"/>
      <point x="286" y="471" type="curve"/>
      <point x="219" y="471"/>
      <point x="141" y="450"/>
      <point x="86" y="386" type="curve"/>
      <point x="188" y="357"/>
      <point x="86" y="386"/>
    </contour>
    <contour>
      <point x="498" y="722" type="curve"/>
      <point x="356" y="722"/>
      <point x="218" y="722"/>
      <point x="86" y="722" type="curve"/>
      <point x="188" y="641"/>
      <point x="86" y="722"/>
      <point x="188" y="641" type="curve"/>
      <point x="286" y="641"/>
      <point x="390" y="641"/>
      <point x="498" y="641" type="curve"/>
      <point x="498" y="722"/>
      <point x="498" y="641"/>
    </contour>
  </outline>
</glyph>
<glyph name="seven" format="1">
  <advance width="588"/>
  <unicode hex="0037"/>
  <outline>
    <contour>
      <point x="139" y="535" type="line"/>
      <point x="139" y="644" type="line"/>
      <point x="56" y="644" type="line"/>
      <point x="56" y="535" type="line"/>
    </contour>
    <contour>
      <point x="56" y="641" type="line"/>
      <point x="566" y="641" type="line"/>
      <point x="566" y="722" type="line"/>
      <point x="56" y="722" type="line"/>
    </contour>
    <contour>
      <point x="503" y="722" type="line"/>
      <point x="80" y="0" type="line"/>
      <point x="196" y="0" type="line"/>
      <point x="566" y="641" type="line"/>
    </contour>
  </outline>
</glyph>
<glyph name="nine" format="1">
  <advance width="646"/>
  <unicode hex="0039"/>
  <outline>
    <contour>
      <point x="506" y="489" type="curve"/>
      <point x="466" y="408"/>
      <point x="410" y="370"/>
      <point x="318" y="370" type="curve"/>
      <point x="224" y="370"/>
      <point x="163" y="417"/>
      <point x="163" y="508" type="curve"/>
      <point x="163" y="592"/>
      <point x="221" y="635"/>
      <point x="308" y="635" type="curve"/>
      <point x="419" y="635"/>
      <point x="487" y="576"/>
      <point x="487" y="468" type="curve"/>
      <point x="487" y="237"/>
      <point x="320" y="134"/>
      <point x="81" y="72" type="curve"/>
      <point x="112" y="-12"/>
      <point x="81" y="72"/>
      <point x="111" y="-12" type="curve"/>
      <point x="384" y="51"/>
      <point x="589" y="189"/>
      <point x="589" y="472" type="curve"/>
      <point x="589" y="639"/>
      <point x="482" y="732"/>
      <point x="312" y="732" type="curve"/>
      <point x="158" y="732"/>
      <point x="59" y="652"/>
      <point x="59" y="504" type="curve"/>
      <point x="59" y="360"/>
      <point x="158" y="285"/>
      <point x="309" y="285" type="curve"/>
      <point x="437" y="285"/>
      <point x="513" y="357"/>
      <point x="558" y="464" type="curve"/>
      <point x="506" y="489"/>
      <point x="558" y="464"/>
    </contour>
  </outline>
</glyph>
<glyph name="colon" format="1">
  <advance width="277"/>
  <unicode hex="003A"/>
  <outline>
    <contour>
      <point x="200" y="387" type="curve"/>
      <point x="200" y="424"/>
      <point x="173" y="442"/>
      <point x="138" y="442" type="curve"/>
      <point x="102" y="442"/>
      <point x="77" y="422"/>
      <point x="77" y="387" type="curve"/>
      <point x="195" y="387"/>
      <point x="82" y="387"/>
      <point x="200" y="387" type="curve"/>
      <point x="200" y="350"/>
      <point x="174" y="334"/>
      <point x="137" y="334" type="curve"/>
      <point x="101" y="334"/>
      <point x="77" y="352"/>
      <point x="77" y="387" type="curve"/>
      <point x="195" y="387"/>
      <point x="82" y="387"/>
    </contour>
    <contour>
      <point x="199" y="46" type="curve"/>
      <point x="199" y="83"/>
      <point x="173" y="101"/>
      <point x="137" y="101" type="curve"/>
      <point x="101" y="101"/>
      <point x="77" y="81"/>
      <point x="77" y="46" type="curve"/>
      <point x="195" y="46"/>
      <point x="81" y="46"/>
      <point x="199" y="46" type="curve"/>
      <point x="199" y="9"/>
      <point x="173" y="-7"/>
      <point x="137" y="-7" type="curve"/>
      <point x="101" y="-7"/>
      <point x="77" y="11"/>
      <point x="77" y="46" type="curve"/>
      <point x="195" y="46"/>
      <point x="81" y="46"/>
    </contour>
  </outline>
</glyph>
<glyph name="semicolon" format="1">
  <advance width="303"/>
  <unicode hex="003B"/>
  <outline>
    <contour>
      <point x="80" y="-155" type="line"/>
      <point x="164" y="-146"/>
      <point x="223" y="-88"/>
      <point x="223" y="1" type="curve"/>
      <point x="223" y="62"/>
      <point x="195" y="104"/>
      <point x="150" y="104" type="curve"/>
      <point x="113" y="104"/>
      <point x="87" y="86"/>
      <point x="87" y="50" type="curve"/>
      <point x="87" y="18"/>
      <point x="109" y="-2"/>
      <point x="146" y="-4" type="curve"/>
      <point x="145" y="-37"/>
      <point x="133" y="-81"/>
      <point x="74" y="-97" type="curve"/>
    </contour>
    <contour>
      <point x="209" y="394" type="curve"/>
      <point x="209" y="431"/>
      <point x="183" y="449"/>
      <point x="147" y="449" type="curve"/>
      <point x="111" y="449"/>
      <point x="87" y="429"/>
      <point x="87" y="394" type="curve"/>
      <point x="205" y="394"/>
      <point x="92" y="394"/>
      <point x="209" y="394" type="curve"/>
      <point x="209" y="357"/>
      <point x="183" y="340"/>
      <point x="147" y="340" type="curve"/>
      <point x="110" y="340"/>
      <point x="87" y="359"/>
      <point x="87" y="394" type="curve"/>
      <point x="205" y="394"/>
      <point x="92" y="394"/>
    </contour>
  </outline>
</glyph>
<glyph name="less" format="1">
  <advance width="749"/>
  <unicode hex="003C"/>
  <outline>
    <contour>
      <point x="675" y="615" type="curve"/>
      <point x="463" y="525"/>
      <point x="251" y="435"/>
      <point x="40" y="345" type="curve"/>
      <point x="40" y="255"/>
      <point x="40" y="345"/>
      <point x="40" y="255" type="curve"/>
      <point x="251" y="345"/>
      <point x="463" y="435"/>
      <point x="675" y="525" type="curve"/>
      <point x="675" y="615"/>
      <point x="675" y="525"/>
    </contour>
    <contour>
      <point x="686" y="81" type="curve"/>
      <point x="470" y="169"/>
      <point x="255" y="257"/>
      <point x="40" y="345" type="curve"/>
      <point x="40" y="255"/>
      <point x="40" y="345"/>
      <point x="40" y="255" type="curve"/>
      <point x="255" y="167"/>
      <point x="470" y="79"/>
      <point x="686" y="-9" type="curve"/>
      <point x="686" y="81"/>
      <point x="686" y="-9"/>
    </contour>
  </outline>
</glyph>
<glyph name="equal" format="1">
  <advance width="818"/>
  <unicode hex="003D"/>
  <outline>
    <contour>
      <point x="81" y="174" type="curve"/>
      <point x="299" y="174"/>
      <point x="518" y="174"/>
      <point x="737" y="174" type="curve"/>
      <point x="737" y="261"/>
      <point x="737" y="174"/>
      <point x="737" y="261" type="curve"/>
      <point x="518" y="261"/>
      <point x="299" y="261"/>
      <point x="81" y="261" type="curve"/>
      <point x="81" y="174"/>
      <point x="81" y="261"/>
    </contour>
    <contour>
      <point x="81" y="396" type="curve"/>
      <point x="299" y="396"/>
      <point x="518" y="396"/>
      <point x="737" y="396" type="curve"/>
      <point x="737" y="483"/>
      <point x="737" y="396"/>
      <point x="737" y="483" type="curve"/>
      <point x="518" y="483"/>
      <point x="299" y="483"/>
      <point x="81" y="483" type="curve"/>
      <point x="81" y="396"/>
      <point x="81" y="483"/>
    </contour>
  </outline>
</glyph>
<glyph name="greater" format="1">
  <advance width="750"/>
  <unicode hex="003E"/>
  <outline>
    <contour>
      <point x="74" y="-9" type="curve"/>
      <point x="286" y="81"/>
      <point x="498" y="171"/>
      <point x="710" y="261" type="curve"/>
      <point x="710" y="351"/>
      <point x="710" y="261"/>
      <point x="710" y="351" type="curve"/>
      <point x="498" y="261"/>
      <point x="286" y="171"/>
      <point x="74" y="81" type="curve"/>
      <point x="74" y="-9"/>
      <point x="74" y="81"/>
    </contour>
    <contour>
      <point x="64" y="525" type="curve"/>
      <point x="279" y="437"/>
      <point x="495" y="349"/>
      <point x="710" y="261" type="curve"/>
      <point x="710" y="351"/>
      <point x="710" y="261"/>
      <point x="710" y="351" type="curve"/>
      <point x="495" y="439"/>
      <point x="279" y="527"/>
      <point x="64" y="615" type="curve"/>
      <point x="64" y="525"/>
      <point x="64" y="615"/>
    </contour>
  </outline>
</glyph>
<glyph name="question" format="1">
  <advance width="554"/>
  <unicode hex="003F"/>
  <outline>
    <contour>
      <point x="196" y="365" type="curve"/>
      <point x="196" y="328"/>
      <point x="196" y="258"/>
      <point x="196" y="221" type="curve"/>
      <point x="299" y="221"/>
      <point x="196" y="221"/>
      <point x="299" y="221" type="curve"/>
      <point x="299" y="258"/>
      <point x="299" y="328"/>
      <point x="299" y="365" type="curve"/>
      <point x="196" y="365"/>
      <point x="299" y="365"/>
    </contour>
    <contour>
      <point x="101" y="589" type="line"/>
      <point x="137" y="626"/>
      <point x="186" y="654"/>
      <point x="248" y="654" type="curve"/>
      <point x="337" y="654"/>
      <point x="397" y="606"/>
      <point x="397" y="519" type="curve"/>
      <point x="397" y="420"/>
      <point x="319" y="365"/>
      <point x="207" y="365" type="curve"/>
      <point x="207" y="333"/>
      <point x="207" y="316"/>
      <point x="207" y="285" type="curve"/>
      <point x="377" y="285"/>
      <point x="499" y="368"/>
      <point x="499" y="519" type="curve"/>
      <point x="499" y="660"/>
      <point x="397" y="739"/>
      <point x="253" y="739" type="curve"/>
      <point x="166" y="739"/>
      <point x="99" y="708"/>
      <point x="45" y="653" type="curve"/>
    </contour>
    <contour>
      <point x="309" y="29" type="curve"/>
      <point x="309" y="65"/>
      <point x="283" y="82"/>
      <point x="248" y="82" type="curve"/>
      <point x="212" y="82"/>
      <point x="188" y="63"/>
      <point x="188" y="29" type="curve"/>
      <point x="309" y="29"/>
      <point x="188" y="29"/>
      <point x="309" y="29" type="curve"/>
      <point x="309" y="-7"/>
      <point x="284" y="-23"/>
      <point x="247" y="-23" type="curve"/>
      <point x="212" y="-23"/>
      <point x="188" y="-6"/>
      <point x="188" y="29" type="curve"/>
      <point x="309" y="29"/>
      <point x="188" y="29"/>
    </contour>
  </outline>
</glyph>
<glyph name="B" format="1">
  <advance width="731"/>
  <unicode hex="0042"/>
  <outline>
    <contour>
      <point x="208" y="722" type="curve"/>
      <point x="157" y="722"/>
      <point x="111" y="722"/>
      <point x="60" y="722" type="curve"/>
      <point x="60" y="641"/>
      <point x="60" y="722"/>
      <point x="60" y="641" type="curve"/>
      <point x="211" y="641"/>
      <point x="57" y="641"/>
      <point x="208" y="641" type="curve"/>
      <point x="208" y="722"/>
      <point x="208" y="641"/>
    </contour>
    <contour>
      <point x="206" y="81" type="curve"/>
      <point x="56" y="81"/>
      <point x="210" y="81"/>
      <point x="59" y="81" type="curve"/>
      <point x="59" y="0"/>
      <point x="59" y="81"/>
      <point x="59" y="0" type="curve"/>
      <point x="109" y="0"/>
      <point x="157" y="0"/>
      <point x="206" y="0" type="curve"/>
      <point x="206" y="81"/>
      <point x="206" y="0"/>
    </contour>
    <contour>
      <point x="196" y="641" type="curve"/>
      <point x="269" y="641"/>
      <point x="334" y="641"/>
      <point x="407" y="641" type="curve"/>
      <point x="476" y="641"/>
      <point x="521" y="606"/>
      <point x="521" y="540" type="curve"/>
      <point x="521" y="474"/>
      <point x="462" y="447"/>
      <point x="391" y="447" type="curve"/>
      <point x="323" y="447"/>
      <point x="264" y="447"/>
      <point x="196" y="447" type="curve"/>
      <point x="196" y="389"/>
      <point x="196" y="423"/>
      <point x="196" y="365" type="curve"/>
      <point x="248" y="365"/>
      <point x="294" y="365"/>
      <point x="346" y="365" type="curve"/>
      <point x="470" y="365"/>
      <point x="627" y="404"/>
      <point x="627" y="538" type="curve"/>
      <point x="627" y="661"/>
      <point x="540" y="722"/>
      <point x="410" y="722" type="curve"/>
      <point x="336" y="722"/>
      <point x="270" y="722"/>
      <point x="196" y="722" type="curve"/>
      <point x="196" y="664"/>
      <point x="196" y="699"/>
    </contour>
    <contour>
      <point x="263" y="0" type="curve"/>
      <point x="263" y="241"/>
      <point x="263" y="481"/>
      <point x="263" y="722" type="curve"/>
      <point x="151" y="722"/>
      <point x="263" y="722"/>
      <point x="151" y="722" type="curve"/>
      <point x="151" y="481"/>
      <point x="152" y="241"/>
      <point x="151" y="0" type="curve"/>
      <point x="263" y="0"/>
      <point x="151" y="0"/>
    </contour>
    <contour>
      <point x="196" y="365" type="curve"/>
      <point x="264" y="365"/>
      <point x="323" y="365"/>
      <point x="391" y="365" type="curve"/>
      <point x="497" y="365"/>
      <point x="570" y="319"/>
      <point x="570" y="219" type="curve"/>
      <point x="570" y="126"/>
      <point x="506" y="81"/>
      <point x="407" y="81" type="curve"/>
      <point x="334" y="81"/>
      <point x="269" y="81"/>
      <point x="196" y="81" type="curve"/>
      <point x="196" y="23"/>
      <point x="196" y="58"/>
      <point x="196" y="0" type="curve"/>
      <point x="270" y="0"/>
      <point x="336" y="0"/>
      <point x="411" y="0" type="curve"/>
      <point x="570" y="0"/>
      <point x="677" y="69"/>
      <point x="677" y="218" type="curve"/>
      <point x="677" y="388"/>
      <point x="506" y="447"/>
      <point x="346" y="447" type="curve"/>
      <point x="294" y="447"/>
      <point x="248" y="447"/>
      <point x="196" y="447" type="curve"/>
      <point x="196" y="389"/>
      <point x="196" y="423"/>
    </contour>
  </outline>
</glyph>
<glyph name="C" format="1">
  <advance width="752"/>
  <unicode hex="0043"/>
  <outline>
    <contour>
      <point x="426" y="796" type="move" name="top"/>
    </contour>
    <contour>
      <point x="436" y="5" type="move" name="bottom"/>
    </contour>
    <contour>
      <point x="609" y="654" type="curve"/>
      <point x="609" y="534"/>
      <point x="609" y="638"/>
      <point x="609" y="518" type="curve"/>
      <point x="693" y="518"/>
      <point x="609" y="518"/>
      <point x="693" y="518" type="curve"/>
      <point x="693" y="638"/>
      <point x="693" y="534"/>
      <point x="693" y="654" type="curve"/>
      <point x="609" y="654"/>
      <point x="693" y="654"/>
    </contour>
    <contour>
      <point x="693" y="654" type="curve"/>
      <point x="616" y="696"/>
      <point x="531" y="727"/>
      <point x="435" y="727" type="curve"/>
      <point x="198" y="727"/>
      <point x="59" y="586"/>
      <point x="59" y="344" type="curve"/>
      <point x="59" y="122"/>
      <point x="189" y="-5"/>
      <point x="411" y="-5" type="curve"/>
      <point x="537" y="-5"/>
      <point x="616" y="26"/>
      <point x="704" y="94" type="curve"/>
      <point x="652" y="160"/>
      <point x="703" y="94"/>
      <point x="652" y="160" type="curve"/>
      <point x="573" y="105"/>
      <point x="510" y="81"/>
      <point x="416" y="81" type="curve"/>
      <point x="253" y="81"/>
      <point x="166" y="182"/>
      <point x="166" y="348" type="curve"/>
      <point x="166" y="529"/>
      <point x="257" y="642"/>
      <point x="430" y="642" type="curve"/>
      <point x="506" y="642"/>
      <point x="575" y="623"/>
      <point x="635" y="590" type="curve"/>
      <point x="693" y="654"/>
      <point x="635" y="590"/>
    </contour>
  </outline>
</glyph>
<glyph name="D" format="1">
  <advance width="845"/>
  <unicode hex="0044"/>
  <outline>
    <contour>
      <point x="386" y="796" type="move" name="top"/>
    </contour>
    <contour>
      <point x="209" y="81" type="curve"/>
      <point x="57" y="81"/>
      <point x="213" y="81"/>
      <point x="61" y="81" type="curve"/>
      <point x="61" y="0"/>
      <point x="61" y="81"/>
      <point x="61" y="0" type="curve"/>
      <point x="111" y="0"/>
      <point x="158" y="0"/>
      <point x="209" y="0" type="curve"/>
      <point x="209" y="81"/>
      <point x="209" y="0"/>
    </contour>
    <contour>
      <point x="209" y="722" type="curve"/>
      <point x="158" y="722"/>
      <point x="111" y="722"/>
      <point x="61" y="722" type="curve"/>
      <point x="61" y="641"/>
      <point x="61" y="722"/>
      <point x="61" y="641" type="curve"/>
      <point x="213" y="641"/>
      <point x="57" y="641"/>
      <point x="209" y="641" type="curve"/>
      <point x="209" y="722"/>
      <point x="209" y="641"/>
    </contour>
    <contour>
      <point x="153" y="722" type="curve"/>
      <point x="153" y="481"/>
      <point x="153" y="241"/>
      <point x="153" y="0" type="curve"/>
      <point x="261" y="0"/>
      <point x="153" y="0"/>
      <point x="261" y="0" type="curve"/>
      <point x="261" y="241"/>
      <point x="261" y="481"/>
      <point x="261" y="722" type="curve"/>
      <point x="153" y="722"/>
      <point x="261" y="722"/>
    </contour>
    <contour>
      <point x="209" y="0" type="curve"/>
      <point x="277" y="0"/>
      <point x="342" y="0"/>
      <point x="411" y="0" type="curve"/>
      <point x="651" y="0"/>
      <point x="787" y="118"/>
      <point x="787" y="354" type="curve"/>
      <point x="787" y="598"/>
      <point x="650" y="722"/>
      <point x="402" y="722" type="curve"/>
      <point x="337" y="722"/>
      <point x="274" y="722"/>
      <point x="209" y="722" type="curve"/>
      <point x="209" y="643"/>
      <point x="209" y="720"/>
      <point x="209" y="641" type="curve"/>
      <point x="272" y="641"/>
      <point x="334" y="641"/>
      <point x="397" y="641" type="curve"/>
      <point x="586" y="641"/>
      <point x="681" y="539"/>
      <point x="681" y="351" type="curve"/>
      <point x="681" y="176"/>
      <point x="593" y="81"/>
      <point x="419" y="81" type="curve"/>
      <point x="348" y="81"/>
      <point x="280" y="81"/>
      <point x="209" y="81" type="curve"/>
      <point x="209" y="2"/>
      <point x="209" y="79"/>
    </contour>
  </outline>
</glyph>
<glyph name="F" format="1">
  <advance width="660"/>
  <unicode hex="0046"/>
  <outline>
    <contour>
      <point x="207" y="0" type="curve"/>
      <point x="258" y="0"/>
      <point x="207" y="0"/>
      <point x="359" y="0" type="curve"/>
      <point x="359" y="81"/>
      <point x="359" y="0"/>
      <point x="359" y="81" type="curve"/>
      <point x="207" y="81"/>
      <point x="359" y="81"/>
      <point x="207" y="81" type="curve"/>
      <point x="207" y="0"/>
      <point x="207" y="81"/>
    </contour>
    <contour>
      <point x="207" y="722" type="curve"/>
      <point x="157" y="722"/>
      <point x="110" y="722"/>
      <point x="60" y="722" type="curve"/>
      <point x="60" y="641"/>
      <point x="60" y="722"/>
      <point x="60" y="641" type="curve"/>
      <point x="211" y="641"/>
      <point x="56" y="641"/>
      <point x="207" y="641" type="curve"/>
      <point x="207" y="722"/>
      <point x="207" y="641"/>
    </contour>
    <contour>
      <point x="207" y="81" type="curve"/>
      <point x="56" y="81"/>
      <point x="211" y="81"/>
      <point x="60" y="81" type="curve"/>
      <point x="60" y="0"/>
      <point x="60" y="81"/>
      <point x="60" y="0" type="curve"/>
      <point x="110" y="0"/>
      <point x="157" y="0"/>
      <point x="207" y="0" type="curve"/>
      <point x="207" y="81"/>
      <point x="207" y="0"/>
    </contour>
    <contour>
      <point x="541" y="681" type="curve"/>
      <point x="541" y="561"/>
      <point x="541" y="683"/>
      <point x="541" y="563" type="curve"/>
      <point x="624" y="563"/>
      <point x="541" y="563"/>
      <point x="624" y="563" type="curve"/>
      <point x="624" y="683"/>
      <point x="624" y="561"/>
      <point x="624" y="681" type="curve"/>
      <point x="541" y="681"/>
      <point x="624" y="681"/>
    </contour>
    <contour>
      <point x="212" y="332" type="curve"/>
      <point x="324" y="332"/>
      <point x="436" y="332"/>
      <point x="548" y="332" type="curve"/>
      <point x="548" y="414"/>
      <point x="548" y="332"/>
      <point x="548" y="414" type="curve"/>
      <point x="436" y="414"/>
      <point x="324" y="414"/>
      <point x="212" y="414" type="curve"/>
      <point x="212" y="332"/>
      <point x="212" y="414"/>
    </contour>
    <contour>
      <point x="261" y="0" type="curve"/>
      <point x="261" y="722" type="line"/>
      <point x="154" y="722"/>
      <point x="261" y="722"/>
      <point x="154" y="722" type="curve"/>
      <point x="154" y="481"/>
      <point x="154" y="241"/>
      <point x="154" y="0" type="curve"/>
      <point x="261" y="0"/>
      <point x="154" y="0"/>
    </contour>
    <contour>
      <point x="196" y="641" type="curve"/>
      <point x="338" y="641"/>
      <point x="481" y="641"/>
      <point x="624" y="641" type="curve"/>
      <point x="624" y="722"/>
      <point x="624" y="641"/>
      <point x="624" y="722" type="curve"/>
      <point x="481" y="722"/>
      <point x="338" y="722"/>
      <point x="196" y="722" type="curve"/>
      <point x="196" y="641"/>
      <point x="196" y="722"/>
    </contour>
  </outline>
</glyph>
<glyph name="G" format="1">
  <advance width="836"/>
  <unicode hex="0047"/>
  <outline>
    <contour>
      <point x="441" y="796" type="move" name="top"/>
    </contour>
    <contour>
      <point x="484" y="-7" type="move" name="bottom"/>
    </contour>
    <contour>
      <point x="667" y="645" type="curve"/>
      <point x="667" y="518"/>
      <point x="667" y="632"/>
      <point x="667" y="506" type="curve"/>
      <point x="750" y="506"/>
      <point x="667" y="506"/>
      <point x="750" y="506" type="curve"/>
      <point x="750" y="632"/>
      <point x="750" y="518"/>
      <point x="750" y="645" type="curve"/>
      <point x="667" y="645"/>
      <point x="750" y="645"/>
    </contour>
    <contour>
      <point x="739" y="353" type="curve"/>
      <point x="663" y="353"/>
      <point x="586" y="353"/>
      <point x="510" y="353" type="curve"/>
      <point x="510" y="272"/>
      <point x="510" y="353"/>
      <point x="510" y="272" type="curve"/>
      <point x="586" y="272"/>
      <point x="663" y="272"/>
      <point x="739" y="272" type="curve"/>
      <point x="739" y="353"/>
      <point x="739" y="272"/>
    </contour>
    <contour>
      <point x="768" y="78" type="curve"/>
      <point x="768" y="170"/>
      <point x="768" y="261"/>
      <point x="768" y="353" type="curve"/>
      <point x="671" y="353"/>
      <point x="768" y="353"/>
      <point x="671" y="353" type="curve"/>
      <point x="671" y="261"/>
      <point x="671" y="170"/>
      <point x="671" y="78" type="curve"/>
      <point x="768" y="78"/>
      <point x="671" y="78"/>
    </contour>
    <contour>
      <point x="750" y="645" type="curve"/>
      <point x="649" y="702"/>
      <point x="559" y="727"/>
      <point x="442" y="727" type="curve"/>
      <point x="203" y="727"/>
      <point x="58" y="598"/>
      <point x="58" y="361" type="curve"/>
      <point x="58" y="121"/>
      <point x="209" y="-5"/>
      <point x="453" y="-5" type="curve"/>
      <point x="578" y="-5"/>
      <point x="658" y="22"/>
      <point x="768" y="78" type="curve"/>
      <point x="714" y="139"/>
      <point x="768" y="78"/>
      <point x="714" y="139" type="curve"/>
      <point x="627" y="96"/>
      <point x="555" y="81"/>
      <point x="454" y="81" type="curve"/>
      <point x="269" y="81"/>
      <point x="165" y="184"/>
      <point x="165" y="370" type="curve"/>
      <point x="165" y="544"/>
      <point x="267" y="642"/>
      <point x="442" y="642" type="curve"/>
      <point x="538" y="642"/>
      <point x="614" y="623"/>
      <point x="697" y="575" type="curve"/>
      <point x="750" y="645"/>
      <point x="697" y="575"/>
    </contour>
  </outline>
</glyph>
<glyph name="H" format="1">
  <advance width="904"/>
  <unicode hex="0048"/>
  <outline>
    <contour>
      <point x="715" y="641" type="curve"/>
      <point x="877" y="641"/>
      <point x="701" y="641"/>
      <point x="863" y="641" type="curve"/>
      <point x="863" y="722"/>
      <point x="863" y="641"/>
      <point x="863" y="722" type="curve"/>
      <point x="809" y="722"/>
      <point x="768" y="722"/>
      <point x="715" y="722" type="curve"/>
      <point x="715" y="641"/>
      <point x="715" y="722"/>
    </contour>
    <contour>
      <point x="715" y="0" type="curve"/>
      <point x="768" y="0"/>
      <point x="809" y="0"/>
      <point x="863" y="0" type="curve"/>
      <point x="863" y="81"/>
      <point x="863" y="0"/>
      <point x="863" y="81" type="curve"/>
      <point x="701" y="81"/>
      <point x="877" y="81"/>
      <point x="715" y="81" type="curve"/>
      <point x="715" y="0"/>
      <point x="715" y="81"/>
    </contour>
    <contour>
      <point x="715" y="81" type="curve"/>
      <point x="554" y="81"/>
      <point x="729" y="81"/>
      <point x="566" y="81" type="curve"/>
      <point x="566" y="0"/>
      <point x="566" y="81"/>
      <point x="566" y="0" type="curve"/>
      <point x="621" y="0"/>
      <point x="661" y="0"/>
      <point x="715" y="0" type="curve"/>
      <point x="715" y="81"/>
      <point x="715" y="0"/>
    </contour>
    <contour>
      <point x="715" y="722" type="curve"/>
      <point x="661" y="722"/>
      <point x="621" y="722"/>
      <point x="566" y="722" type="curve"/>
      <point x="566" y="641"/>
      <point x="566" y="722"/>
      <point x="566" y="641" type="curve"/>
      <point x="729" y="641"/>
      <point x="554" y="641"/>
      <point x="715" y="641" type="curve"/>
      <point x="715" y="722"/>
      <point x="715" y="641"/>
    </contour>
    <contour>
      <point x="190" y="641" type="curve"/>
      <point x="352" y="641"/>
      <point x="177" y="641"/>
      <point x="339" y="641" type="curve"/>
      <point x="339" y="722"/>
      <point x="339" y="641"/>
      <point x="339" y="722" type="curve"/>
      <point x="285" y="722"/>
      <point x="244" y="722"/>
      <point x="190" y="722" type="curve"/>
      <point x="190" y="641"/>
      <point x="190" y="722"/>
    </contour>
    <contour>
      <point x="190" y="722" type="curve"/>
      <point x="137" y="722"/>
      <point x="96" y="722"/>
      <point x="42" y="722" type="curve"/>
      <point x="42" y="641"/>
      <point x="42" y="722"/>
      <point x="42" y="641" type="curve"/>
      <point x="204" y="641"/>
      <point x="29" y="641"/>
      <point x="190" y="641" type="curve"/>
      <point x="190" y="722"/>
      <point x="190" y="641"/>
    </contour>
    <contour>
      <point x="190" y="0" type="curve"/>
      <point x="244" y="0"/>
      <point x="177" y="0"/>
      <point x="339" y="0" type="curve"/>
      <point x="339" y="81"/>
      <point x="339" y="0"/>
      <point x="339" y="81" type="curve"/>
      <point x="177" y="81"/>
      <point x="352" y="81"/>
      <point x="190" y="81" type="curve"/>
      <point x="190" y="0"/>
      <point x="190" y="81"/>
    </contour>
    <contour>
      <point x="190" y="81" type="curve"/>
      <point x="29" y="81"/>
      <point x="204" y="81"/>
      <point x="42" y="81" type="curve"/>
      <point x="42" y="0"/>
      <point x="42" y="81"/>
      <point x="42" y="0" type="curve"/>
      <point x="96" y="0"/>
      <point x="137" y="0"/>
      <point x="190" y="0" type="curve"/>
      <point x="190" y="81"/>
      <point x="190" y="0"/>
    </contour>
    <contour>
      <point x="244" y="0" type="curve"/>
      <point x="244" y="722" type="line"/>
      <point x="137" y="722"/>
      <point x="244" y="722"/>
      <point x="137" y="722" type="curve"/>
      <point x="137" y="481"/>
      <point x="137" y="241"/>
      <point x="137" y="0" type="curve"/>
      <point x="244" y="0"/>
      <point x="137" y="0"/>
    </contour>
    <contour>
      <point x="712" y="404" type="curve"/>
      <point x="538" y="404"/>
      <point x="364" y="404"/>
      <point x="190" y="404" type="curve"/>
      <point x="190" y="322"/>
      <point x="190" y="404"/>
      <point x="190" y="322" type="curve"/>
      <point x="364" y="322"/>
      <point x="538" y="322"/>
      <point x="712" y="322" type="curve"/>
      <point x="712" y="404"/>
      <point x="712" y="322"/>
    </contour>
    <contour>
      <point x="767" y="32" type="curve"/>
      <point x="767" y="251"/>
      <point x="767" y="471"/>
      <point x="767" y="690" type="curve"/>
      <point x="661" y="690"/>
      <point x="767" y="690"/>
      <point x="661" y="690" type="curve"/>
      <point x="661" y="32" type="line"/>
      <point x="767" y="32"/>
      <point x="661" y="32"/>
    </contour>
  </outline>
</glyph>
<glyph name="I" format="1">
  <advance width="381"/>
  <unicode hex="0049"/>
  <outline>
    <contour>
      <point x="191" y="796" type="move" name="top"/>
    </contour>
    <contour>
      <point x="240" y="1" type="move" name="bottom"/>
    </contour>
    <contour>
      <point x="191" y="722" type="curve"/>
      <point x="137" y="722"/>
      <point x="97" y="722"/>
      <point x="43" y="722" type="curve"/>
      <point x="43" y="641"/>
      <point x="43" y="722"/>
      <point x="43" y="641" type="curve"/>
      <point x="205" y="641"/>
      <point x="29" y="641"/>
      <point x="191" y="641" type="curve"/>
      <point x="191" y="722"/>
      <point x="191" y="641"/>
    </contour>
    <contour>
      <point x="191" y="641" type="curve"/>
      <point x="353" y="641"/>
      <point x="178" y="641"/>
      <point x="340" y="641" type="curve"/>
      <point x="340" y="722"/>
      <point x="340" y="641"/>
      <point x="340" y="722" type="curve"/>
      <point x="285" y="722"/>
      <point x="245" y="722"/>
      <point x="191" y="722" type="curve"/>
      <point x="191" y="641"/>
      <point x="191" y="722"/>
    </contour>
    <contour>
      <point x="191" y="0" type="curve"/>
      <point x="245" y="0"/>
      <point x="285" y="0"/>
      <point x="340" y="0" type="curve"/>
      <point x="340" y="81"/>
      <point x="340" y="0"/>
      <point x="340" y="81" type="curve"/>
      <point x="178" y="81"/>
      <point x="353" y="81"/>
      <point x="191" y="81" type="curve"/>
      <point x="191" y="0"/>
      <point x="191" y="81"/>
    </contour>
    <contour>
      <point x="191" y="81" type="curve"/>
      <point x="29" y="81"/>
      <point x="205" y="81"/>
      <point x="43" y="81" type="curve"/>
      <point x="43" y="0"/>
      <point x="43" y="81"/>
      <point x="43" y="0" type="curve"/>
      <point x="97" y="0"/>
      <point x="137" y="0"/>
      <point x="191" y="0" type="curve"/>
      <point x="191" y="81"/>
      <point x="191" y="0"/>
    </contour>
    <contour>
      <point x="244" y="0" type="curve"/>
      <point x="244" y="241"/>
      <point x="244" y="481"/>
      <point x="244" y="722" type="curve"/>
      <point x="137" y="722"/>
      <point x="244" y="722"/>
      <point x="137" y="722" type="curve"/>
      <point x="137" y="481"/>
      <point x="137" y="241"/>
      <point x="137" y="0" type="curve"/>
      <point x="244" y="0"/>
      <point x="137" y="0"/>
    </contour>
  </outline>
</glyph>
<glyph name="J" format="1">
  <advance width="500"/>
  <unicode hex="004A"/>
  <outline>
    <contour>
      <point x="332" y="722" type="curve"/>
      <point x="279" y="722"/>
      <point x="239" y="722"/>
      <point x="186" y="722" type="curve"/>
      <point x="186" y="641"/>
      <point x="186" y="722"/>
      <point x="186" y="641" type="curve"/>
      <point x="345" y="641"/>
      <point x="172" y="641"/>
      <point x="332" y="641" type="curve"/>
      <point x="332" y="722"/>
      <point x="332" y="641"/>
    </contour>
    <contour>
      <point x="332" y="641" type="curve"/>
      <point x="488" y="641"/>
      <point x="318" y="641"/>
      <point x="475" y="641" type="curve"/>
      <point x="475" y="722"/>
      <point x="475" y="641"/>
      <point x="475" y="722" type="curve"/>
      <point x="423" y="722"/>
      <point x="384" y="722"/>
      <point x="332" y="722" type="curve"/>
      <point x="332" y="641"/>
      <point x="332" y="722"/>
    </contour>
    <contour>
      <point x="8" y="44" type="curve"/>
      <point x="43" y="21"/>
      <point x="91" y="-4"/>
      <point x="151" y="-4" type="curve"/>
      <point x="301" y="-4"/>
      <point x="384" y="78"/>
      <point x="384" y="236" type="curve"/>
      <point x="384" y="401"/>
      <point x="384" y="557"/>
      <point x="384" y="722" type="curve"/>
      <point x="279" y="722"/>
      <point x="381" y="722"/>
      <point x="277" y="722" type="curve"/>
      <point x="277" y="557"/>
      <point x="277" y="401"/>
      <point x="277" y="236" type="curve"/>
      <point x="277" y="142"/>
      <point x="240" y="78"/>
      <point x="151" y="78" type="curve"/>
      <point x="112" y="78"/>
      <point x="88" y="92"/>
      <point x="58" y="108" type="curve"/>
      <point x="10" y="45"/>
      <point x="56" y="106"/>
    </contour>
  </outline>
</glyph>
<glyph name="L" format="1">
  <advance width="657"/>
  <unicode hex="004C"/>
  <outline>
    <contour>
      <point x="191" y="796" type="move" name="top"/>
    </contour>
    <contour>
      <point x="379" y="-8" type="move" name="bottom"/>
    </contour>
    <contour>
      <point x="630" y="41" type="curve"/>
      <point x="630" y="161"/>
      <point x="630" y="39"/>
      <point x="630" y="159" type="curve"/>
      <point x="546" y="159"/>
      <point x="630" y="159"/>
      <point x="546" y="159" type="curve"/>
      <point x="546" y="39"/>
      <point x="546" y="161"/>
      <point x="546" y="41" type="curve"/>
      <point x="630" y="41"/>
      <point x="546" y="41"/>
    </contour>
    <contour>
      <point x="190" y="81" type="curve"/>
      <point x="28" y="81"/>
      <point x="204" y="81"/>
      <point x="42" y="81" type="curve"/>
      <point x="42" y="0"/>
      <point x="42" y="81"/>
      <point x="42" y="0" type="curve"/>
      <point x="95" y="0"/>
      <point x="136" y="0"/>
      <point x="190" y="0" type="curve"/>
      <point x="190" y="81"/>
      <point x="190" y="0"/>
    </contour>
    <contour>
      <point x="190" y="722" type="curve"/>
      <point x="136" y="722"/>
      <point x="95" y="722"/>
      <point x="42" y="722" type="curve"/>
      <point x="42" y="641"/>
      <point x="42" y="722"/>
      <point x="42" y="641" type="curve"/>
      <point x="204" y="641"/>
      <point x="28" y="641"/>
      <point x="190" y="641" type="curve"/>
      <point x="190" y="722"/>
      <point x="190" y="641"/>
    </contour>
    <contour>
      <point x="190" y="641" type="curve"/>
      <point x="352" y="641"/>
      <point x="177" y="641"/>
      <point x="338" y="641" type="curve"/>
      <point x="338" y="722"/>
      <point x="338" y="641"/>
      <point x="338" y="722" type="curve"/>
      <point x="284" y="722"/>
      <point x="244" y="722"/>
      <point x="190" y="722" type="curve"/>
      <point x="190" y="641"/>
      <point x="190" y="722"/>
    </contour>
    <contour>
      <point x="244" y="0" type="curve"/>
      <point x="244" y="241"/>
      <point x="244" y="481"/>
      <point x="244" y="722" type="curve"/>
      <point x="138" y="722"/>
      <point x="244" y="722"/>
      <point x="138" y="722" type="curve"/>
      <point x="138" y="481"/>
      <point x="138" y="241"/>
      <point x="138" y="0" type="curve"/>
      <point x="244" y="0"/>
      <point x="138" y="0"/>
    </contour>
    <contour>
      <point x="190" y="0" type="curve"/>
      <point x="337" y="0"/>
      <point x="483" y="0"/>
      <point x="630" y="0" type="curve"/>
      <point x="630" y="81"/>
      <point x="630" y="0"/>
      <point x="630" y="81" type="curve"/>
      <point x="483" y="81"/>
      <point x="337" y="81"/>
      <point x="190" y="81" type="curve"/>
      <point x="190" y="0"/>
      <point x="190" y="81"/>
    </contour>
  </outline>
</glyph>
<glyph name="M" format="1">
  <advance width="1045"/>
  <unicode hex="004D"/>
  <outline>
    <contour>
      <point x="879" y="0" type="curve"/>
      <point x="932" y="0"/>
      <point x="971" y="0"/>
      <point x="1024" y="0" type="curve"/>
      <point x="1024" y="81"/>
      <point x="1024" y="0"/>
      <point x="1024" y="81" type="curve"/>
      <point x="865" y="81"/>
      <point x="1037" y="81"/>
      <point x="879" y="81" type="curve"/>
      <point x="879" y="0"/>
      <point x="879" y="81"/>
    </contour>
    <contour>
      <point x="879" y="81" type="curve"/>
      <point x="723" y="81"/>
      <point x="892" y="81"/>
      <point x="737" y="81" type="curve"/>
      <point x="737" y="0"/>
      <point x="737" y="81"/>
      <point x="737" y="0" type="curve"/>
      <point x="789" y="0"/>
      <point x="827" y="0"/>
      <point x="879" y="0" type="curve"/>
      <point x="879" y="81"/>
      <point x="879" y="0"/>
    </contour>
    <contour>
      <point x="168" y="81" type="curve"/>
      <point x="9" y="81"/>
      <point x="182" y="81"/>
      <point x="23" y="81" type="curve"/>
      <point x="23" y="0"/>
      <point x="23" y="81"/>
      <point x="23" y="0" type="curve"/>
      <point x="76" y="0"/>
      <point x="115" y="0"/>
      <point x="168" y="0" type="curve"/>
      <point x="168" y="81"/>
      <point x="168" y="0"/>
    </contour>
    <contour>
      <point x="226" y="722" type="curve"/>
      <point x="173" y="722"/>
      <point x="134" y="722"/>
      <point x="81" y="722" type="curve"/>
      <point x="80" y="641"/>
      <point x="81" y="722"/>
      <point x="80" y="641" type="curve"/>
      <point x="239" y="641"/>
      <point x="67" y="641"/>
      <point x="226" y="641" type="curve"/>
      <point x="226" y="722"/>
      <point x="226" y="641"/>
    </contour>
    <contour>
      <point x="819" y="641" type="curve"/>
      <point x="978" y="641"/>
      <point x="806" y="641"/>
      <point x="964" y="641" type="curve"/>
      <point x="964" y="722"/>
      <point x="964" y="641"/>
      <point x="964" y="722" type="curve"/>
      <point x="911" y="722"/>
      <point x="872" y="722"/>
      <point x="819" y="722" type="curve"/>
      <point x="819" y="641"/>
      <point x="819" y="722"/>
    </contour>
    <contour>
      <point x="168" y="0" type="curve"/>
      <point x="220" y="0"/>
      <point x="154" y="0"/>
      <point x="310" y="0" type="curve"/>
      <point x="310" y="81"/>
      <point x="310" y="0"/>
      <point x="310" y="81" type="curve"/>
      <point x="154" y="81"/>
      <point x="324" y="81"/>
      <point x="168" y="81" type="curve"/>
      <point x="168" y="0"/>
      <point x="168" y="81"/>
    </contour>
    <contour>
      <point x="938" y="0" type="curve"/>
      <point x="916" y="241"/>
      <point x="891" y="481"/>
      <point x="869" y="722" type="curve"/>
      <point x="772" y="722"/>
      <point x="869" y="722"/>
      <point x="772" y="722" type="curve"/>
      <point x="793" y="482"/>
      <point x="810" y="240"/>
      <point x="831" y="0" type="curve"/>
      <point x="938" y="0"/>
      <point x="831" y="0"/>
    </contour>
    <contour>
      <point x="213" y="0" type="curve"/>
      <point x="233" y="241"/>
      <point x="252" y="481"/>
      <point x="272" y="722" type="curve"/>
      <point x="174" y="722"/>
      <point x="272" y="722"/>
      <point x="174" y="722" type="curve"/>
      <point x="154" y="481"/>
      <point x="133" y="241"/>
      <point x="113" y="0" type="curve"/>
      <point x="213" y="0"/>
      <point x="113" y="0"/>
    </contour>
    <contour>
      <point x="569" y="0" type="curve"/>
      <point x="472" y="241"/>
      <point x="374" y="481"/>
      <point x="276" y="722" type="curve"/>
      <point x="177" y="722"/>
      <point x="275" y="722"/>
      <point x="176" y="722" type="curve"/>
      <point x="274" y="481"/>
      <point x="371" y="241"/>
      <point x="469" y="0" type="curve"/>
      <point x="569" y="0"/>
      <point x="469" y="0"/>
    </contour>
    <contour>
      <point x="578" y="0" type="curve"/>
      <point x="674" y="241"/>
      <point x="769" y="481"/>
      <point x="865" y="722" type="curve"/>
      <point x="767" y="722"/>
      <point x="865" y="722"/>
      <point x="766" y="722" type="curve"/>
      <point x="669" y="481"/>
      <point x="573" y="241"/>
      <point x="476" y="0" type="curve"/>
      <point x="577" y="0"/>
      <point x="477" y="0"/>
    </contour>
  </outline>
</glyph>
<glyph name="Q" format="1">
  <advance width="835"/>
  <unicode hex="0051"/>
  <outline>
    <contour>
      <point x="374" y="19" type="curve"/>
      <point x="491" y="-164"/>
      <point x="623" y="-221"/>
      <point x="829" y="-221" type="curve"/>
      <point x="829" y="-136"/>
      <point x="829" y="-221"/>
      <point x="829" y="-136" type="curve"/>
      <point x="665" y="-136"/>
      <point x="561" y="-88"/>
      <point x="465" y="60" type="curve"/>
      <point x="374" y="19"/>
      <point x="465" y="60"/>
    </contour>
    <contour>
      <point x="164" y="360" type="curve"/>
      <point x="164" y="525"/>
      <point x="250" y="639"/>
      <point x="409" y="639" type="curve"/>
      <point x="570" y="639"/>
      <point x="656" y="528"/>
      <point x="656" y="361" type="curve"/>
      <point x="656" y="195"/>
      <point x="574" y="80"/>
      <point x="415" y="80" type="curve"/>
      <point x="252" y="80"/>
      <point x="164" y="192"/>
      <point x="164" y="360" type="curve"/>
      <point x="58" y="360"/>
      <point x="164" y="360"/>
      <point x="58" y="360" type="curve"/>
      <point x="58" y="137"/>
      <point x="191" y="-5"/>
      <point x="409" y="-5" type="curve"/>
      <point x="631" y="-5"/>
      <point x="763" y="140"/>
      <point x="763" y="365" type="curve"/>
      <point x="763" y="588"/>
      <point x="634" y="730"/>
      <point x="415" y="730" type="curve"/>
      <point x="193" y="730"/>
      <point x="58" y="585"/>
      <point x="58" y="360" type="curve"/>
      <point x="164" y="360"/>
      <point x="58" y="360"/>
    </contour>
  </outline>
</glyph>
<glyph name="S" format="1">
  <advance width="650"/>
  <unicode hex="0053"/>
  <outline>
    <contour>
      <point x="327" y="796" type="move" name="top"/>
    </contour>
    <contour>
      <point x="349" y="-7" type="move" name="bottom"/>
    </contour>
    <contour>
      <point x="465" y="662" type="curve"/>
      <point x="465" y="542"/>
      <point x="465" y="645"/>
      <point x="465" y="525" type="curve"/>
      <point x="548" y="525"/>
      <point x="465" y="525"/>
      <point x="548" y="525" type="curve"/>
      <point x="548" y="645"/>
      <point x="548" y="542"/>
      <point x="548" y="662" type="curve"/>
      <point x="465" y="662"/>
      <point x="548" y="662"/>
    </contour>
    <contour>
      <point x="156" y="54" type="curve"/>
      <point x="156" y="174"/>
      <point x="156" y="78"/>
      <point x="156" y="198" type="curve"/>
      <point x="73" y="198"/>
      <point x="156" y="198"/>
      <point x="73" y="198" type="curve"/>
      <point x="73" y="78"/>
      <point x="73" y="174"/>
      <point x="73" y="54" type="curve"/>
      <point x="156" y="54"/>
      <point x="73" y="54"/>
    </contour>
    <contour>
      <point x="74" y="54" type="curve"/>
      <point x="150" y="13"/>
      <point x="221" y="-5"/>
      <point x="312" y="-5" type="curve"/>
      <point x="467" y="-5"/>
      <point x="592" y="46"/>
      <point x="592" y="186" type="curve"/>
      <point x="592" y="311"/>
      <point x="488" y="356"/>
      <point x="369" y="408" type="curve"/>
      <point x="280" y="445"/>
      <point x="188" y="479"/>
      <point x="188" y="549" type="curve"/>
      <point x="187" y="615"/>
      <point x="247" y="646"/>
      <point x="323" y="646" type="curve"/>
      <point x="391" y="646"/>
      <point x="443" y="623"/>
      <point x="499" y="595" type="curve"/>
      <point x="548" y="659"/>
      <point x="500" y="598"/>
      <point x="548" y="662" type="curve"/>
      <point x="475" y="701"/>
      <point x="412" y="724"/>
      <point x="327" y="724" type="curve"/>
      <point x="188" y="724"/>
      <point x="81" y="667"/>
      <point x="81" y="543" type="curve"/>
      <point x="81" y="423"/>
      <point x="183" y="382"/>
      <point x="298" y="332" type="curve"/>
      <point x="391" y="293"/>
      <point x="484" y="258"/>
      <point x="484" y="184" type="curve"/>
      <point x="484" y="115"/>
      <point x="409" y="80"/>
      <point x="316" y="80" type="curve"/>
      <point x="246" y="80"/>
      <point x="191" y="101"/>
      <point x="131" y="132" type="curve"/>
      <point x="75" y="58"/>
      <point x="131" y="129"/>
    </contour>
  </outline>
</glyph>
<glyph name="T" format="1">
  <advance width="712"/>
  <unicode hex="0054"/>
  <outline>
    <contour>
      <point x="354" y="796" type="move" name="top"/>
    </contour>
    <contour>
      <point x="392" y="-11" type="move" name="bottom"/>
    </contour>
    <contour>
      <point x="33" y="680" type="curve"/>
      <point x="33" y="560"/>
      <point x="33" y="682"/>
      <point x="33" y="562" type="curve"/>
      <point x="116" y="562"/>
      <point x="33" y="562"/>
      <point x="116" y="562" type="curve"/>
      <point x="116" y="682"/>
      <point x="116" y="560"/>
      <point x="116" y="680" type="curve"/>
      <point x="33" y="680"/>
      <point x="116" y="680"/>
    </contour>
    <contour>
      <point x="596" y="680" type="curve"/>
      <point x="596" y="560"/>
      <point x="596" y="682"/>
      <point x="596" y="562" type="curve"/>
      <point x="679" y="562"/>
      <point x="596" y="562"/>
      <point x="679" y="562" type="curve"/>
      <point x="679" y="682"/>
      <point x="679" y="560"/>
      <point x="679" y="680" type="curve"/>
      <point x="596" y="680"/>
      <point x="679" y="680"/>
    </contour>
    <contour>
      <point x="355" y="0" type="curve"/>
      <point x="405" y="0"/>
      <point x="453" y="0"/>
      <point x="503" y="0" type="curve"/>
      <point x="503" y="81"/>
      <point x="503" y="0"/>
      <point x="503" y="81" type="curve"/>
      <point x="353" y="81"/>
      <point x="505" y="81"/>
      <point x="355" y="81" type="curve"/>
      <point x="355" y="0"/>
      <point x="355" y="81"/>
    </contour>
    <contour>
      <point x="355" y="81" type="curve"/>
      <point x="205" y="81"/>
      <point x="356" y="81"/>
      <point x="207" y="81" type="curve"/>
      <point x="207" y="0"/>
      <point x="207" y="81"/>
      <point x="207" y="0" type="curve"/>
      <point x="256" y="0"/>
      <point x="305" y="0"/>
      <point x="355" y="0" type="curve"/>
      <point x="355" y="81"/>
      <point x="355" y="0"/>
    </contour>
    <contour>
      <point x="410" y="0" type="curve"/>
      <point x="410" y="237"/>
      <point x="410" y="473"/>
      <point x="410" y="710" type="curve"/>
      <point x="303" y="710"/>
      <point x="410" y="710"/>
      <point x="303" y="710" type="curve"/>
      <point x="303" y="473"/>
      <point x="303" y="237"/>
      <point x="303" y="0" type="curve"/>
      <point x="410" y="0"/>
      <point x="303" y="0"/>
    </contour>
    <contour>
      <point x="33" y="636" type="curve"/>
      <point x="248" y="636"/>
      <point x="464" y="636"/>
      <point x="679" y="636" type="curve"/>
      <point x="679" y="725"/>
      <point x="679" y="632"/>
      <point x="679" y="722" type="curve"/>
      <point x="464" y="722"/>
      <point x="248" y="722"/>
      <point x="33" y="722" type="curve"/>
      <point x="33" y="632"/>
      <point x="33" y="725"/>
    </contour>
  </outline>
</glyph>
<glyph name="W" format="1">
  <advance width="1053"/>
  <unicode hex="0057"/>
  <outline>
    <contour>
      <point x="150" y="641" type="curve"/>
      <point x="287" y="641"/>
      <point x="149" y="641"/>
      <point x="286" y="641" type="curve"/>
      <point x="286" y="722"/>
      <point x="286" y="641"/>
      <point x="286" y="722" type="curve"/>
      <point x="240" y="722"/>
      <point x="196" y="722"/>
      <point x="150" y="722" type="curve"/>
      <point x="150" y="641"/>
      <point x="150" y="722"/>
    </contour>
    <contour>
      <point x="148" y="722" type="curve"/>
      <point x="100" y="722"/>
      <point x="53" y="722"/>
      <point x="6" y="722" type="curve"/>
      <point x="6" y="641"/>
      <point x="6" y="722"/>
      <point x="6" y="641" type="curve"/>
      <point x="149" y="641"/>
      <point x="4" y="641"/>
      <point x="148" y="641" type="curve"/>
      <point x="148" y="722"/>
      <point x="148" y="641"/>
    </contour>
    <contour>
      <point x="899" y="722" type="curve"/>
      <point x="854" y="722"/>
      <point x="809" y="722"/>
      <point x="764" y="722" type="curve"/>
      <point x="764" y="641"/>
      <point x="764" y="722"/>
      <point x="764" y="641" type="curve"/>
      <point x="901" y="641"/>
      <point x="763" y="641"/>
      <point x="899" y="641" type="curve"/>
      <point x="899" y="722"/>
      <point x="899" y="641"/>
    </contour>
    <contour>
      <point x="901" y="641" type="curve"/>
      <point x="1044" y="641"/>
      <point x="899" y="641"/>
      <point x="1043" y="641" type="curve"/>
      <point x="1043" y="722"/>
      <point x="1043" y="641"/>
      <point x="1043" y="722" type="curve"/>
      <point x="996" y="722"/>
      <point x="949" y="722"/>
      <point x="901" y="722" type="curve"/>
      <point x="901" y="641"/>
      <point x="901" y="722"/>
    </contour>
    <contour>
      <point x="367" y="0" type="curve"/>
      <point x="437" y="241"/>
      <point x="505" y="481"/>
      <point x="574" y="722" type="curve"/>
      <point x="475" y="722"/>
      <point x="576" y="722"/>
      <point x="477" y="722" type="curve"/>
      <point x="411" y="481"/>
      <point x="346" y="242"/>
      <point x="279" y="0" type="curve"/>
      <point x="374" y="0"/>
      <point x="273" y="0"/>
    </contour>
    <contour>
      <point x="488" y="722" type="curve"/>
      <point x="551" y="481"/>
      <point x="610" y="241"/>
      <point x="673" y="0" type="curve"/>
      <point x="768" y="0"/>
      <point x="665" y="0"/>
      <point x="760" y="0" type="curve"/>
      <point x="701" y="242"/>
      <point x="644" y="480"/>
      <point x="583" y="722" type="curve"/>
      <point x="485" y="722"/>
      <point x="587" y="722"/>
    </contour>
    <contour>
      <point x="77" y="722" type="curve"/>
      <point x="140" y="481"/>
      <point x="204" y="241"/>
      <point x="266" y="0" type="curve"/>
      <point x="361" y="0"/>
      <point x="264" y="0"/>
      <point x="359" y="0" type="curve"/>
      <point x="298" y="241"/>
      <point x="239" y="481"/>
      <point x="178" y="722" type="curve"/>
      <point x="77" y="722"/>
      <point x="178" y="722"/>
    </contour>
    <contour>
      <point x="871" y="722" type="curve"/>
      <point x="807" y="481"/>
      <point x="745" y="241"/>
      <point x="684" y="0" type="curve"/>
      <point x="778" y="0"/>
      <point x="680" y="0"/>
      <point x="774" y="0" type="curve"/>
      <point x="840" y="241"/>
      <point x="906" y="481"/>
      <point x="972" y="722" type="curve"/>
      <point x="871" y="722"/>
      <point x="972" y="722"/>
    </contour>
  </outline>
</glyph>
<glyph name="bracketleft" format="1">
  <advance width="331"/>
  <unicode hex="005B"/>
  <outline>
    <contour>
      <point x="284" y="770" type="curve"/>
      <point x="231" y="770"/>
      <point x="178" y="770"/>
      <point x="125" y="770" type="curve"/>
      <point x="112" y="770"/>
      <point x="91" y="770"/>
      <point x="78" y="770" type="curve"/>
      <point x="78" y="759"/>
      <point x="78" y="743"/>
      <point x="78" y="731" type="curve"/>
      <point x="78" y="460"/>
      <point x="78" y="191"/>
      <point x="78" y="-79" type="curve"/>
      <point x="78" y="-91"/>
      <point x="78" y="-104"/>
      <point x="78" y="-116" type="curve"/>
      <point x="90" y="-116"/>
      <point x="110" y="-116"/>
      <point x="124" y="-116" type="curve"/>
      <point x="177" y="-116"/>
      <point x="231" y="-116"/>
      <point x="284" y="-116" type="curve"/>
      <point x="284" y="-27"/>
      <point x="284" y="-116"/>
      <point x="284" y="-27" type="curve"/>
      <point x="231" y="-27"/>
      <point x="177" y="-27"/>
      <point x="124" y="-27" type="curve"/>
      <point x="185" y="-27"/>
      <point x="124" y="-27"/>
      <point x="185" y="-27" type="curve"/>
      <point x="185" y="-79"/>
      <point x="185" y="-27"/>
      <point x="185" y="-79" type="curve"/>
      <point x="185" y="191"/>
      <point x="185" y="460"/>
      <point x="185" y="731" type="curve"/>
      <point x="185" y="681"/>
      <point x="185" y="731"/>
      <point x="185" y="681" type="curve"/>
      <point x="125" y="681"/>
      <point x="185" y="681"/>
      <point x="125" y="681" type="curve"/>
      <point x="178" y="681"/>
      <point x="231" y="681"/>
      <point x="284" y="681" type="curve"/>
      <point x="284" y="770"/>
      <point x="284" y="681"/>
    </contour>
  </outline>
</glyph>
<glyph name="backslash" format="1">
  <advance width="585"/>
  <unicode hex="005C"/>
  <outline>
    <contour>
      <point x="553" y="-68" type="curve"/>
      <point x="417" y="236"/>
      <point x="280" y="540"/>
      <point x="144" y="844" type="curve"/>
      <point x="32" y="844"/>
      <point x="144" y="844"/>
      <point x="32" y="844" type="curve"/>
      <point x="169" y="540"/>
      <point x="305" y="236"/>
      <point x="442" y="-68" type="curve"/>
      <point x="553" y="-68"/>
      <point x="442" y="-68"/>
    </contour>
  </outline>
</glyph>
<glyph name="bracketright" format="1">
  <advance width="331"/>
  <unicode hex="005D"/>
  <outline>
    <contour>
      <point x="46" y="681" type="curve"/>
      <point x="100" y="681"/>
      <point x="153" y="681"/>
      <point x="206" y="681" type="curve"/>
      <point x="196" y="689"/>
      <point x="182" y="692"/>
      <point x="172" y="701" type="curve"/>
      <point x="162" y="709"/>
      <point x="155" y="721"/>
      <point x="146" y="731" type="curve"/>
      <point x="146" y="460"/>
      <point x="145" y="191"/>
      <point x="146" y="-79" type="curve"/>
      <point x="156" y="-70"/>
      <point x="165" y="-59"/>
      <point x="175" y="-50" type="curve"/>
      <point x="185" y="-41"/>
      <point x="197" y="-36"/>
      <point x="207" y="-27" type="curve"/>
      <point x="153" y="-27"/>
      <point x="100" y="-27"/>
      <point x="46" y="-27" type="curve"/>
      <point x="46" y="-116"/>
      <point x="46" y="-27"/>
      <point x="46" y="-116" type="curve"/>
      <point x="100" y="-116"/>
      <point x="153" y="-116"/>
      <point x="207" y="-116" type="curve"/>
      <point x="252" y="-116"/>
      <point x="207" y="-116"/>
      <point x="252" y="-116" type="curve"/>
      <point x="252" y="-79"/>
      <point x="252" y="-116"/>
      <point x="252" y="-79" type="curve"/>
      <point x="252" y="191"/>
      <point x="252" y="460"/>
      <point x="252" y="731" type="curve"/>
      <point x="252" y="770"/>
      <point x="252" y="731"/>
      <point x="252" y="770" type="curve"/>
      <point x="206" y="770"/>
      <point x="252" y="770"/>
      <point x="206" y="770" type="curve"/>
      <point x="153" y="770"/>
      <point x="100" y="770"/>
      <point x="46" y="770" type="curve"/>
      <point x="46" y="681"/>
      <point x="46" y="770"/>
    </contour>
  </outline>
</glyph>
<glyph name="asciicircum" format="1">
  <advance width="585"/>
  <unicode hex="005E"/>
  <outline>
    <contour>
      <point x="163" y="457" type="curve"/>
      <point x="223" y="562"/>
      <point x="284" y="667"/>
      <point x="345" y="772" type="curve"/>
      <point x="239" y="772"/>
      <point x="345" y="772"/>
      <point x="239" y="772" type="curve"/>
      <point x="178" y="667"/>
      <point x="117" y="562"/>
      <point x="57" y="457" type="curve"/>
      <point x="163" y="457"/>
      <point x="57" y="457"/>
    </contour>
    <contour>
      <point x="529" y="457" type="curve"/>
      <point x="469" y="560"/>
      <point x="405" y="669"/>
      <point x="346" y="772" type="curve"/>
      <point x="239" y="772"/>
      <point x="345" y="772"/>
      <point x="239" y="772" type="curve"/>
      <point x="299" y="669"/>
      <point x="362" y="560"/>
      <point x="422" y="457" type="curve"/>
      <point x="528" y="457"/>
      <point x="423" y="457"/>
    </contour>
  </outline>
</glyph>
<glyph name="b" format="1">
  <advance width="711"/>
  <unicode hex="0062"/>
  <outline>
    <contour>
      <point x="174" y="800" type="curve"/>
      <point x="122" y="800"/>
      <point x="79" y="800"/>
      <point x="26" y="800" type="curve"/>
      <point x="26" y="743"/>
      <point x="26" y="776"/>
      <point x="26" y="719" type="curve"/>
      <point x="141" y="719"/>
      <point x="59" y="719"/>
      <point x="174" y="719" type="curve"/>
      <point x="174" y="776"/>
      <point x="174" y="743"/>
    </contour>
    <contour>
      <point x="197" y="354" type="curve"/>
      <point x="239" y="405"/>
      <point x="302" y="454"/>
      <point x="390" y="454" type="curve"/>
      <point x="496" y="454"/>
      <point x="554" y="376"/>
      <point x="554" y="263" type="curve"/>
      <point x="555" y="155"/>
      <point x="494" y="78"/>
      <point x="390" y="79" type="curve"/>
      <point x="312" y="79"/>
      <point x="252" y="113"/>
      <point x="206" y="165" type="curve"/>
      <point x="165" y="138"/>
      <point x="185" y="151"/>
      <point x="146" y="123" type="curve"/>
      <point x="215" y="46"/>
      <point x="290" y="-5"/>
      <point x="406" y="-5" type="curve"/>
      <point x="564" y="-5"/>
      <point x="661" y="100"/>
      <point x="661" y="266" type="curve"/>
      <point x="661" y="432"/>
      <point x="564" y="539"/>
      <point x="405" y="539" type="curve"/>
      <point x="289" y="539"/>
      <point x="211" y="478"/>
      <point x="150" y="405" type="curve"/>
      <point x="183" y="375"/>
      <point x="165" y="385"/>
    </contour>
    <contour>
      <point x="225" y="0" type="curve"/>
      <point x="225" y="281"/>
      <point x="225" y="519"/>
      <point x="225" y="800" type="curve"/>
      <point x="152" y="800"/>
      <point x="192" y="800"/>
      <point x="119" y="800" type="curve"/>
      <point x="119" y="519"/>
      <point x="119" y="281"/>
      <point x="119" y="0" type="curve"/>
      <point x="192" y="0"/>
      <point x="152" y="0"/>
    </contour>
    <contour>
      <point x="174" y="81" type="curve"/>
      <point x="59" y="81"/>
      <point x="141" y="81"/>
      <point x="26" y="81" type="curve"/>
      <point x="26" y="24"/>
      <point x="26" y="57"/>
      <point x="26" y="0" type="curve"/>
      <point x="79" y="0"/>
      <point x="122" y="0"/>
      <point x="174" y="0" type="curve"/>
      <point x="174" y="57"/>
      <point x="174" y="24"/>
    </contour>
  </outline>
</glyph>
<glyph name="f" format="1">
  <advance width="510"/>
  <unicode hex="0066"/>
  <outline>
    <contour>
      <point x="408" y="769" type="curve"/>
      <point x="408" y="642"/>
      <point x="408" y="771"/>
      <point x="408" y="644" type="curve"/>
      <point x="491" y="644"/>
      <point x="408" y="644"/>
      <point x="491" y="644" type="curve"/>
      <point x="491" y="771"/>
      <point x="491" y="642"/>
      <point x="491" y="769" type="curve"/>
      <point x="408" y="769"/>
      <point x="491" y="769"/>
    </contour>
    <contour>
      <point x="217" y="-1" type="curve"/>
      <point x="270" y="-1"/>
      <point x="311" y="0"/>
      <point x="364" y="0" type="curve"/>
      <point x="364" y="81"/>
      <point x="364" y="0"/>
      <point x="364" y="81" type="curve"/>
      <point x="205" y="81"/>
      <point x="376" y="81"/>
      <point x="217" y="81" type="curve"/>
      <point x="217" y="-1"/>
      <point x="217" y="81"/>
    </contour>
    <contour>
      <point x="217" y="81" type="curve"/>
      <point x="57" y="81"/>
      <point x="229" y="81"/>
      <point x="69" y="81" type="curve"/>
      <point x="69" y="0"/>
      <point x="69" y="81"/>
      <point x="69" y="0" type="curve"/>
      <point x="122" y="0"/>
      <point x="164" y="-1"/>
      <point x="217" y="-1" type="curve"/>
      <point x="217" y="81"/>
      <point x="217" y="-1"/>
    </contour>
    <contour>
      <point x="31" y="452" type="curve"/>
      <point x="453" y="452" type="line"/>
      <point x="453" y="533"/>
      <point x="453" y="452"/>
      <point x="453" y="533" type="curve"/>
      <point x="31" y="533" type="line"/>
      <point x="31" y="452"/>
      <point x="31" y="533"/>
    </contour>
    <contour>
      <point x="270" y="0" type="curve"/>
      <point x="270" y="616" type="line"/>
      <point x="270" y="681"/>
      <point x="300" y="725"/>
      <point x="362" y="725" type="curve"/>
      <point x="393" y="725"/>
      <point x="421" y="717"/>
      <point x="448" y="704" type="curve"/>
      <point x="491" y="769"/>
      <point x="448" y="704"/>
      <point x="491" y="769" type="curve"/>
      <point x="451" y="788"/>
      <point x="407" y="803"/>
      <point x="362" y="803" type="curve"/>
      <point x="242" y="803"/>
      <point x="162" y="734"/>
      <point x="164" y="616" type="curve"/>
      <point x="164" y="0" type="line"/>
      <point x="270" y="0"/>
      <point x="164" y="0"/>
    </contour>
  </outline>
</glyph>
<glyph name="g" format="1">
  <advance width="604"/>
  <unicode hex="0067"/>
  <outline>
    <contour>
      <point x="306" y="632" type="move" name="top"/>
    </contour>
    <contour>
      <point x="420" y="456" type="curve"/>
      <point x="585" y="527" type="line"/>
      <point x="583" y="530"/>
      <point x="546" y="603"/>
      <point x="543" y="606" type="curve"/>
      <point x="365" y="516" type="line"/>
      <point x="419" y="456"/>
      <point x="365" y="517"/>
    </contour>
    <contour>
      <point x="181" y="344" type="curve"/>
      <point x="181" y="416"/>
      <point x="235" y="457"/>
      <point x="311" y="457" type="curve"/>
      <point x="387" y="457"/>
      <point x="437" y="415"/>
      <point x="437" y="344" type="curve"/>
      <point x="437" y="276"/>
      <point x="386" y="238"/>
      <point x="312" y="238" type="curve"/>
      <point x="238" y="238"/>
      <point x="181" y="273"/>
      <point x="181" y="344" type="curve"/>
      <point x="75" y="340"/>
      <point x="181" y="344"/>
      <point x="75" y="340" type="curve"/>
      <point x="75" y="219"/>
      <point x="175" y="157"/>
      <point x="304" y="157" type="curve"/>
      <point x="440" y="157"/>
      <point x="544" y="221"/>
      <point x="544" y="347" type="curve"/>
      <point x="544" y="471"/>
      <point x="444" y="538"/>
      <point x="311" y="538" type="curve"/>
      <point x="175" y="538"/>
      <point x="75" y="468"/>
      <point x="75" y="340" type="curve"/>
      <point x="181" y="344"/>
      <point x="75" y="340"/>
    </contour>
    <contour>
      <point x="181" y="241" type="curve"/>
      <point x="123" y="212"/>
      <point x="79" y="176"/>
      <point x="79" y="112" type="curve"/>
      <point x="79" y="8"/>
      <point x="182" y="-18"/>
      <point x="296" y="-27" type="curve"/>
      <point x="396" y="-34"/>
      <point x="496" y="-41"/>
      <point x="496" y="-127" type="curve"/>
      <point x="496" y="-203"/>
      <point x="408" y="-224"/>
      <point x="312" y="-224" type="curve"/>
      <point x="220" y="-224"/>
      <point x="142" y="-194"/>
      <point x="142" y="-113" type="curve"/>
      <point x="142" y="-52"/>
      <point x="177" y="-14"/>
      <point x="230" y="6" type="curve"/>
      <point x="177" y="55"/>
      <point x="230" y="6"/>
      <point x="177" y="55" type="curve"/>
      <point x="95" y="25"/>
      <point x="36" y="-26"/>
      <point x="36" y="-117" type="curve"/>
      <point x="36" y="-253"/>
      <point x="159" y="-304"/>
      <point x="307" y="-304" type="curve"/>
      <point x="461" y="-304"/>
      <point x="596" y="-261"/>
      <point x="593" y="-119" type="curve"/>
      <point x="593" y="18"/>
      <point x="460" y="40"/>
      <point x="316" y="51" type="curve"/>
      <point x="249" y="55"/>
      <point x="185" y="65"/>
      <point x="185" y="120" type="curve"/>
      <point x="185" y="153"/>
      <point x="204" y="173"/>
      <point x="233" y="190" type="curve"/>
      <point x="181" y="241"/>
      <point x="233" y="190"/>
    </contour>
  </outline>
</glyph>
<glyph name="h" format="1">
  <advance width="696"/>
  <unicode hex="0068"/>
  <outline>
    <contour>
      <point x="543" y="-1" type="curve"/>
      <point x="596" y="-1"/>
      <point x="637" y="0"/>
      <point x="691" y="0" type="curve"/>
      <point x="691" y="81"/>
      <point x="691" y="0"/>
      <point x="691" y="81" type="curve"/>
      <point x="531" y="81"/>
      <point x="702" y="81"/>
      <point x="543" y="81" type="curve"/>
      <point x="543" y="-1"/>
      <point x="543" y="81"/>
    </contour>
    <contour>
      <point x="156" y="-1" type="curve"/>
      <point x="204" y="-1"/>
      <point x="144" y="-1"/>
      <point x="289" y="0" type="curve"/>
      <point x="289" y="81"/>
      <point x="289" y="0"/>
      <point x="289" y="81" type="curve"/>
      <point x="144" y="81"/>
      <point x="300" y="81"/>
      <point x="156" y="81" type="curve"/>
      <point x="156" y="-1"/>
      <point x="156" y="81"/>
    </contour>
    <contour>
      <point x="156" y="799" type="curve"/>
      <point x="103" y="799"/>
      <point x="61" y="800"/>
      <point x="8" y="800" type="curve"/>
      <point x="8" y="719"/>
      <point x="8" y="800"/>
      <point x="8" y="719" type="curve"/>
      <point x="168" y="719"/>
      <point x="-4" y="719"/>
      <point x="156" y="719" type="curve"/>
      <point x="156" y="799"/>
      <point x="156" y="719"/>
    </contour>
    <contour>
      <point x="156" y="81" type="curve"/>
      <point x="-3" y="81"/>
      <point x="168" y="81"/>
      <point x="8" y="81" type="curve"/>
      <point x="8" y="0"/>
      <point x="8" y="81"/>
      <point x="8" y="0" type="curve"/>
      <point x="61" y="0"/>
      <point x="103" y="-1"/>
      <point x="156" y="-1" type="curve"/>
      <point x="156" y="81"/>
      <point x="156" y="-1"/>
    </contour>
    <contour>
      <point x="185" y="308" type="curve"/>
      <point x="216" y="392"/>
      <point x="285" y="455"/>
      <point x="368" y="455" type="curve"/>
      <point x="452" y="455"/>
      <point x="491" y="399"/>
      <point x="491" y="314" type="curve"/>
      <point x="491" y="208"/>
      <point x="491" y="106"/>
      <point x="491" y="0" type="curve"/>
      <point x="597" y="0"/>
      <point x="491" y="0"/>
      <point x="597" y="0" type="curve"/>
      <point x="597" y="109"/>
      <point x="597" y="218"/>
      <point x="597" y="327" type="curve"/>
      <point x="597" y="462"/>
      <point x="528" y="537"/>
      <point x="390" y="537" type="curve"/>
      <point x="278" y="537"/>
      <point x="182" y="462"/>
      <point x="143" y="348" type="curve"/>
      <point x="187" y="307"/>
      <point x="141" y="349"/>
    </contour>
    <contour>
      <point x="209" y="0" type="curve"/>
      <point x="209" y="267"/>
      <point x="209" y="533"/>
      <point x="209" y="800" type="curve"/>
      <point x="102" y="800"/>
      <point x="209" y="800"/>
      <point x="102" y="800" type="curve"/>
      <point x="102" y="533"/>
      <point x="102" y="267"/>
      <point x="102" y="0" type="curve"/>
      <point x="209" y="0"/>
      <point x="102" y="0"/>
    </contour>
  </outline>
</glyph>
<glyph name="i" format="1">
  <advance width="339"/>
  <unicode hex="0069"/>
  <outline>
    <contour>
      <point x="178" y="631" type="move" name="top"/>
    </contour>
    <contour>
      <point x="228" y="6" type="move" name="bottom"/>
    </contour>
    <contour>
      <point x="180" y="81" type="curve"/>
      <point x="20" y="81"/>
      <point x="192" y="81"/>
      <point x="32" y="81" type="curve"/>
      <point x="31" y="0"/>
      <point x="32" y="81"/>
      <point x="31" y="0" type="curve"/>
      <point x="85" y="0"/>
      <point x="126" y="0"/>
      <point x="180" y="0" type="curve"/>
      <point x="180" y="81"/>
      <point x="180" y="0"/>
    </contour>
    <contour>
      <point x="180" y="0" type="curve"/>
      <point x="230" y="0"/>
      <point x="271" y="0"/>
      <point x="321" y="0" type="curve"/>
      <point x="321" y="81"/>
      <point x="321" y="0"/>
      <point x="321" y="81" type="curve"/>
      <point x="171" y="81"/>
      <point x="329" y="81"/>
      <point x="180" y="81" type="curve"/>
      <point x="180" y="0"/>
      <point x="180" y="81"/>
    </contour>
    <contour>
      <point x="180" y="533" type="curve"/>
      <point x="126" y="533"/>
      <point x="85" y="533"/>
      <point x="32" y="533" type="curve"/>
      <point x="31" y="452"/>
      <point x="32" y="533"/>
      <point x="31" y="452" type="curve"/>
      <point x="192" y="452"/>
      <point x="19" y="452"/>
      <point x="180" y="452" type="curve"/>
      <point x="180" y="533"/>
      <point x="180" y="452"/>
    </contour>
    <contour>
      <point x="236" y="0" type="curve"/>
      <point x="236" y="178"/>
      <point x="236" y="355"/>
      <point x="236" y="533" type="curve"/>
      <point x="124" y="533"/>
      <point x="236" y="533"/>
      <point x="124" y="533" type="curve"/>
      <point x="124" y="355"/>
      <point x="124" y="178"/>
      <point x="124" y="0" type="curve"/>
      <point x="236" y="0"/>
      <point x="124" y="0"/>
    </contour>
    <contour>
      <point x="239" y="683" type="curve"/>
      <point x="239" y="719"/>
      <point x="213" y="737"/>
      <point x="177" y="737" type="curve"/>
      <point x="141" y="737"/>
      <point x="117" y="718"/>
      <point x="117" y="683" type="curve"/>
      <point x="235" y="683"/>
      <point x="121" y="683"/>
      <point x="239" y="683" type="curve"/>
      <point x="239" y="646"/>
      <point x="213" y="630"/>
      <point x="177" y="630" type="curve"/>
      <point x="141" y="630"/>
      <point x="117" y="648"/>
      <point x="117" y="683" type="curve"/>
      <point x="235" y="683"/>
      <point x="121" y="683"/>
    </contour>
  </outline>
</glyph>
<glyph name="j" format="1">
  <advance width="323"/>
  <unicode hex="006A"/>
  <outline>
    <contour>
      <point x="179" y="533" type="curve"/>
      <point x="126" y="533"/>
      <point x="74" y="533"/>
      <point x="20" y="533" type="curve"/>
      <point x="20" y="452"/>
      <point x="20" y="533"/>
      <point x="20" y="452" type="curve"/>
      <point x="180" y="452"/>
      <point x="19" y="452"/>
      <point x="179" y="452" type="curve"/>
      <point x="179" y="533"/>
      <point x="179" y="452"/>
    </contour>
    <contour>
      <point x="-10" y="-302" type="curve"/>
      <point x="0" y="-303"/>
      <point x="12" y="-305"/>
      <point x="25" y="-305" type="curve"/>
      <point x="144" y="-305"/>
      <point x="234" y="-242"/>
      <point x="234" y="-127" type="curve"/>
      <point x="234" y="93"/>
      <point x="234" y="313"/>
      <point x="234" y="534" type="curve"/>
      <point x="127" y="534"/>
      <point x="234" y="534"/>
      <point x="127" y="534" type="curve"/>
      <point x="127" y="313"/>
      <point x="127" y="93"/>
      <point x="127" y="-127" type="curve"/>
      <point x="127" y="-186"/>
      <point x="89" y="-226"/>
      <point x="29" y="-226" type="curve"/>
      <point x="21" y="-226"/>
      <point x="12" y="-226"/>
      <point x="5" y="-225" type="curve"/>
      <point x="-9" y="-302"/>
      <point x="5" y="-225"/>
    </contour>
    <contour>
      <point x="242" y="680" type="curve"/>
      <point x="242" y="717"/>
      <point x="216" y="735"/>
      <point x="179" y="735" type="curve"/>
      <point x="144" y="735"/>
      <point x="120" y="715"/>
      <point x="120" y="680" type="curve"/>
      <point x="238" y="680"/>
      <point x="124" y="680"/>
      <point x="242" y="680" type="curve"/>
      <point x="242" y="643"/>
      <point x="216" y="627"/>
      <point x="179" y="627" type="curve"/>
      <point x="143" y="627"/>
      <point x="120" y="645"/>
      <point x="120" y="680" type="curve"/>
      <point x="238" y="680"/>
      <point x="124" y="680"/>
    </contour>
  </outline>
</glyph>
<glyph name="l" format="1">
  <advance width="353"/>
  <unicode hex="006C"/>
  <outline>
    <contour>
      <point x="177" y="888" type="move" name="top"/>
    </contour>
    <contour>
      <point x="217" y="-8" type="move" name="bottom"/>
    </contour>
    <contour>
      <point x="177" y="81" type="curve"/>
      <point x="17" y="81"/>
      <point x="177" y="81"/>
      <point x="17" y="81" type="curve"/>
      <point x="17" y="0"/>
      <point x="17" y="81"/>
      <point x="17" y="0" type="curve"/>
      <point x="71" y="0"/>
      <point x="123" y="-1"/>
      <point x="177" y="-1" type="curve"/>
      <point x="177" y="81"/>
      <point x="177" y="-1"/>
    </contour>
    <contour>
      <point x="179" y="799" type="curve"/>
      <point x="125" y="799"/>
      <point x="72" y="800"/>
      <point x="19" y="800" type="curve"/>
      <point x="19" y="719"/>
      <point x="19" y="800"/>
      <point x="19" y="719" type="curve"/>
      <point x="179" y="719"/>
      <point x="19" y="719"/>
      <point x="179" y="719" type="curve"/>
      <point x="179" y="799"/>
      <point x="179" y="719"/>
    </contour>
    <contour>
      <point x="177" y="-1" type="curve"/>
      <point x="230" y="-1"/>
      <point x="283" y="0"/>
      <point x="337" y="0" type="curve"/>
      <point x="337" y="81"/>
      <point x="337" y="0"/>
      <point x="337" y="81" type="curve"/>
      <point x="177" y="81"/>
      <point x="337" y="81"/>
      <point x="177" y="81" type="curve"/>
      <point x="177" y="-1"/>
      <point x="177" y="81"/>
    </contour>
    <contour>
      <point x="229" y="0" type="curve"/>
      <point x="229" y="267"/>
      <point x="229" y="533"/>
      <point x="229" y="800" type="curve"/>
      <point x="123" y="800"/>
      <point x="229" y="800"/>
      <point x="123" y="800" type="curve"/>
      <point x="123" y="533"/>
      <point x="123" y="267"/>
      <point x="123" y="0" type="curve"/>
      <point x="229" y="0"/>
      <point x="123" y="0"/>
    </contour>
  </outline>
</glyph>
<glyph name="m" format="1">
  <advance width="1056"/>
  <unicode hex="006D"/>
  <outline>
    <contour>
      <point x="543" y="0" type="curve"/>
      <point x="669" y="0"/>
      <point x="543" y="0"/>
      <point x="669" y="0" type="curve"/>
      <point x="669" y="81"/>
      <point x="669" y="0"/>
      <point x="669" y="81" type="curve"/>
      <point x="543" y="81"/>
      <point x="669" y="81"/>
      <point x="543" y="81" type="curve"/>
      <point x="543" y="0"/>
      <point x="543" y="81"/>
    </contour>
    <contour>
      <point x="890" y="0" type="curve"/>
      <point x="936" y="0"/>
      <point x="981" y="0"/>
      <point x="1028" y="0" type="curve"/>
      <point x="1028" y="81"/>
      <point x="1028" y="0"/>
      <point x="1028" y="81" type="curve"/>
      <point x="889" y="81"/>
      <point x="1029" y="81"/>
      <point x="890" y="81" type="curve"/>
      <point x="890" y="0"/>
      <point x="890" y="81"/>
    </contour>
    <contour>
      <point x="196" y="81" type="curve"/>
      <point x="47" y="81"/>
      <point x="198" y="81"/>
      <point x="49" y="81" type="curve"/>
      <point x="48" y="0"/>
      <point x="49" y="81"/>
      <point x="48" y="0" type="curve"/>
      <point x="98" y="0"/>
      <point x="146" y="0"/>
      <point x="196" y="0" type="curve"/>
      <point x="196" y="81"/>
      <point x="196" y="0"/>
    </contour>
    <contour>
      <point x="196" y="0" type="curve"/>
      <point x="239" y="0"/>
      <point x="193" y="0"/>
      <point x="322" y="0" type="curve"/>
      <point x="322" y="81"/>
      <point x="322" y="0"/>
      <point x="322" y="81" type="curve"/>
      <point x="193" y="81"/>
      <point x="326" y="81"/>
      <point x="196" y="81" type="curve"/>
      <point x="196" y="0"/>
      <point x="196" y="81"/>
    </contour>
    <contour>
      <point x="196" y="533" type="curve"/>
      <point x="146" y="533"/>
      <point x="98" y="533"/>
      <point x="49" y="533" type="curve"/>
      <point x="48" y="452"/>
      <point x="49" y="533"/>
      <point x="48" y="452" type="curve"/>
      <point x="198" y="452"/>
      <point x="46" y="452"/>
      <point x="196" y="452" type="curve"/>
      <point x="196" y="533"/>
      <point x="196" y="452"/>
    </contour>
    <contour>
      <point x="572" y="295" type="curve"/>
      <point x="607" y="383"/>
      <point x="652" y="454"/>
      <point x="731" y="454" type="curve"/>
      <point x="813" y="454"/>
      <point x="835" y="406"/>
      <point x="835" y="318" type="curve"/>
      <point x="835" y="213"/>
      <point x="835" y="106"/>
      <point x="835" y="0" type="curve"/>
      <point x="942" y="0"/>
      <point x="835" y="0"/>
      <point x="942" y="0" type="curve"/>
      <point x="942" y="109"/>
      <point x="942" y="218"/>
      <point x="942" y="327" type="curve"/>
      <point x="942" y="466"/>
      <point x="896" y="538"/>
      <point x="760" y="538" type="curve"/>
      <point x="647" y="538"/>
      <point x="575" y="459"/>
      <point x="528" y="339" type="curve"/>
      <point x="573" y="296"/>
      <point x="527" y="338"/>
    </contour>
    <contour>
      <point x="226" y="297" type="curve"/>
      <point x="260" y="384"/>
      <point x="305" y="454"/>
      <point x="385" y="454" type="curve"/>
      <point x="466" y="454"/>
      <point x="489" y="406"/>
      <point x="489" y="318" type="curve"/>
      <point x="489" y="213"/>
      <point x="489" y="106"/>
      <point x="489" y="0" type="curve"/>
      <point x="596" y="0"/>
      <point x="489" y="0"/>
      <point x="596" y="0" type="curve"/>
      <point x="596" y="109"/>
      <point x="596" y="218"/>
      <point x="596" y="327" type="curve"/>
      <point x="596" y="466"/>
      <point x="551" y="538"/>
      <point x="414" y="538" type="curve"/>
      <point x="300" y="538"/>
      <point x="237" y="463"/>
      <point x="182" y="341" type="curve"/>
      <point x="227" y="299"/>
      <point x="180" y="341"/>
    </contour>
    <contour>
      <point x="250" y="0" type="curve"/>
      <point x="250" y="178"/>
      <point x="250" y="355"/>
      <point x="250" y="533" type="curve"/>
      <point x="142" y="533"/>
      <point x="250" y="533"/>
      <point x="142" y="533" type="curve"/>
      <point x="142" y="355"/>
      <point x="142" y="178"/>
      <point x="142" y="0" type="curve"/>
      <point x="250" y="0"/>
      <point x="142" y="0"/>
    </contour>
  </outline>
</glyph>
<glyph name="p" format="1">
  <advance width="697"/>
  <unicode hex="0070"/>
  <outline>
    <contour>
      <point x="157" y="-219" type="curve"/>
      <point x="-5" y="-219"/>
      <point x="168" y="-219"/>
      <point x="7" y="-219" type="curve"/>
      <point x="7" y="-300"/>
      <point x="7" y="-219"/>
      <point x="7" y="-300" type="curve"/>
      <point x="61" y="-300"/>
      <point x="102" y="-300"/>
      <point x="157" y="-300" type="curve"/>
      <point x="157" y="-219"/>
      <point x="157" y="-300"/>
    </contour>
    <contour>
      <point x="157" y="-300" type="curve"/>
      <point x="207" y="-300"/>
      <point x="246" y="-300"/>
      <point x="296" y="-300" type="curve"/>
      <point x="296" y="-219"/>
      <point x="296" y="-300"/>
      <point x="296" y="-219" type="curve"/>
      <point x="144" y="-219"/>
      <point x="308" y="-219"/>
      <point x="157" y="-219" type="curve"/>
      <point x="157" y="-300"/>
      <point x="157" y="-219"/>
    </contour>
    <contour>
      <point x="158" y="533" type="curve"/>
      <point x="103" y="533"/>
      <point x="62" y="533"/>
      <point x="8" y="533" type="curve"/>
      <point x="8" y="452"/>
      <point x="8" y="533"/>
      <point x="8" y="452" type="curve"/>
      <point x="169" y="452"/>
      <point x="-4" y="452"/>
      <point x="158" y="452" type="curve"/>
      <point x="158" y="533"/>
      <point x="158" y="452"/>
    </contour>
    <contour>
      <point x="179" y="333" type="curve"/>
      <point x="222" y="403"/>
      <point x="289" y="457"/>
      <point x="377" y="457" type="curve"/>
      <point x="487" y="457"/>
      <point x="540" y="379"/>
      <point x="540" y="267" type="curve"/>
      <point x="542" y="154"/>
      <point x="485" y="75"/>
      <point x="376" y="76" type="curve"/>
      <point x="298" y="76"/>
      <point x="238" y="108"/>
      <point x="182" y="160" type="curve"/>
      <point x="150" y="130"/>
      <point x="168" y="139"/>
      <point x="136" y="110" type="curve"/>
      <point x="205" y="37"/>
      <point x="285" y="-5"/>
      <point x="392" y="-5" type="curve"/>
      <point x="556" y="-5"/>
      <point x="647" y="108"/>
      <point x="647" y="271" type="curve"/>
      <point x="647" y="429"/>
      <point x="557" y="539"/>
      <point x="398" y="539" type="curve"/>
      <point x="283" y="539"/>
      <point x="199" y="479"/>
      <point x="142" y="395" type="curve"/>
      <point x="167" y="351"/>
      <point x="154" y="377"/>
    </contour>
    <contour>
      <point x="210" y="-300" type="curve"/>
      <point x="210" y="-22"/>
      <point x="210" y="255"/>
      <point x="210" y="533" type="curve"/>
      <point x="103" y="533"/>
      <point x="210" y="533"/>
      <point x="103" y="533" type="curve"/>
      <point x="103" y="255"/>
      <point x="103" y="-22"/>
      <point x="103" y="-300" type="curve"/>
      <point x="210" y="-300"/>
      <point x="103" y="-300"/>
    </contour>
  </outline>
</glyph>
<glyph name="q" format="1">
  <advance width="713"/>
  <unicode hex="0071"/>
  <outline>
    <contour>
      <point x="545" y="452" type="curve"/>
      <point x="655" y="452"/>
      <point x="572" y="452"/>
      <point x="682" y="452" type="curve"/>
      <point x="682" y="508"/>
      <point x="682" y="478"/>
      <point x="682" y="533" type="curve"/>
      <point x="631" y="533"/>
      <point x="597" y="533"/>
      <point x="545" y="533" type="curve"/>
      <point x="545" y="478"/>
      <point x="545" y="508"/>
    </contour>
    <contour>
      <point x="545" y="-219" type="curve"/>
      <point x="426" y="-219"/>
      <point x="515" y="-219"/>
      <point x="396" y="-219" type="curve"/>
      <point x="396" y="-275"/>
      <point x="396" y="-244"/>
      <point x="396" y="-300" type="curve"/>
      <point x="452" y="-300"/>
      <point x="489" y="-300"/>
      <point x="545" y="-300" type="curve"/>
      <point x="545" y="-244"/>
      <point x="545" y="-275"/>
    </contour>
    <contour>
      <point x="545" y="-300" type="curve"/>
      <point x="597" y="-300"/>
      <point x="630" y="-300"/>
      <point x="682" y="-300" type="curve"/>
      <point x="682" y="-244"/>
      <point x="682" y="-275"/>
      <point x="682" y="-219" type="curve"/>
      <point x="571" y="-219"/>
      <point x="655" y="-219"/>
      <point x="545" y="-219" type="curve"/>
      <point x="545" y="-275"/>
      <point x="545" y="-244"/>
    </contour>
    <contour>
      <point x="560" y="404" type="curve"/>
      <point x="494" y="487"/>
      <point x="410" y="538"/>
      <point x="305" y="538" type="curve"/>
      <point x="140" y="538"/>
      <point x="50" y="427"/>
      <point x="50" y="263" type="curve"/>
      <point x="50" y="100"/>
      <point x="145" y="-5"/>
      <point x="310" y="-5" type="curve"/>
      <point x="417" y="-5"/>
      <point x="500" y="53"/>
      <point x="569" y="136" type="curve"/>
      <point x="539" y="168"/>
      <point x="549" y="152"/>
      <point x="519" y="184" type="curve"/>
      <point x="471" y="116"/>
      <point x="405" y="76"/>
      <point x="325" y="76" type="curve"/>
      <point x="216" y="76"/>
      <point x="157" y="154"/>
      <point x="157" y="268" type="curve"/>
      <point x="157" y="379"/>
      <point x="215" y="455"/>
      <point x="323" y="455" type="curve"/>
      <point x="402" y="455"/>
      <point x="469" y="418"/>
      <point x="523" y="351" type="curve"/>
      <point x="547" y="385"/>
      <point x="536" y="369"/>
    </contour>
    <contour>
      <point x="599" y="-300" type="curve"/>
      <point x="599" y="-12"/>
      <point x="599" y="245"/>
      <point x="599" y="533" type="curve"/>
      <point x="524" y="533"/>
      <point x="563" y="533"/>
      <point x="487" y="533" type="curve"/>
      <point x="487" y="245"/>
      <point x="487" y="-12"/>
      <point x="487" y="-300" type="curve"/>
      <point x="563" y="-300"/>
      <point x="524" y="-300"/>
    </contour>
  </outline>
</glyph>
<glyph name="s" format="1">
  <advance width="547"/>
  <unicode hex="0073"/>
  <outline>
    <contour>
      <point x="269" y="632" type="move" name="top"/>
    </contour>
    <contour>
      <point x="302" y="-8" type="move" name="bottom"/>
    </contour>
    <contour>
      <point x="59" y="47" type="curve"/>
      <point x="133" y="15"/>
      <point x="197" y="-5"/>
      <point x="275" y="-5" type="curve"/>
      <point x="404" y="-5"/>
      <point x="497" y="38"/>
      <point x="497" y="153" type="curve"/>
      <point x="496" y="263"/>
      <point x="401" y="283"/>
      <point x="287" y="314" type="curve" smooth="yes"/>
      <point x="223" y="331"/>
      <point x="167" y="349"/>
      <point x="167" y="398" type="curve"/>
      <point x="167" y="436"/>
      <point x="208" y="455"/>
      <point x="263" y="455" type="curve"/>
      <point x="312" y="455"/>
      <point x="369" y="438"/>
      <point x="403" y="419" type="curve"/>
      <point x="450" y="490"/>
      <point x="404" y="421"/>
      <point x="451" y="492" type="curve"/>
      <point x="407" y="517"/>
      <point x="331" y="538"/>
      <point x="266" y="538" type="curve"/>
      <point x="152" y="538"/>
      <point x="71" y="498"/>
      <point x="71" y="398" type="curve"/>
      <point x="71" y="298"/>
      <point x="147" y="265"/>
      <point x="252" y="236" type="curve" smooth="yes"/>
      <point x="324" y="216"/>
      <point x="394" y="205"/>
      <point x="394" y="150" type="curve"/>
      <point x="394" y="102"/>
      <point x="347" y="79"/>
      <point x="286" y="79" type="curve"/>
      <point x="221" y="79"/>
      <point x="173" y="95"/>
      <point x="113" y="121" type="curve"/>
      <point x="59" y="48"/>
      <point x="113" y="121"/>
    </contour>
    <contour>
      <point x="368" y="492" type="curve"/>
      <point x="368" y="368"/>
      <point x="368" y="488"/>
      <point x="368" y="364" type="curve"/>
      <point x="451" y="364"/>
      <point x="368" y="364"/>
      <point x="451" y="364" type="curve"/>
      <point x="451" y="488"/>
      <point x="451" y="368"/>
      <point x="451" y="492" type="curve"/>
      <point x="370" y="492"/>
      <point x="449" y="492"/>
    </contour>
    <contour>
      <point x="141" y="47" type="curve"/>
      <point x="141" y="173"/>
      <point x="141" y="55"/>
      <point x="141" y="180" type="curve"/>
      <point x="58" y="180"/>
      <point x="141" y="180"/>
      <point x="58" y="180" type="curve"/>
      <point x="58" y="55"/>
      <point x="58" y="173"/>
      <point x="58" y="47" type="curve"/>
      <point x="141" y="47"/>
      <point x="58" y="47"/>
    </contour>
  </outline>
</glyph>
<glyph name="t" format="1">
  <advance width="436"/>
  <unicode hex="0074"/>
  <outline>
    <contour>
      <point x="314" y="-8" type="move" name="bottom"/>
    </contour>
    <contour>
      <point x="16" y="452" type="curve"/>
      <point x="406" y="452" type="line"/>
      <point x="406" y="533"/>
      <point x="406" y="452"/>
      <point x="406" y="533" type="curve"/>
      <point x="16" y="533" type="line"/>
      <point x="16" y="452"/>
      <point x="16" y="533"/>
    </contour>
    <contour>
      <point x="382" y="99" type="curve"/>
      <point x="354" y="86"/>
      <point x="333" y="79"/>
      <point x="303" y="79" type="curve"/>
      <point x="251" y="79"/>
      <point x="230" y="110"/>
      <point x="230" y="166" type="curve"/>
      <point x="230" y="683" type="line"/>
      <point x="182" y="654"/>
      <point x="171" y="650"/>
      <point x="124" y="621" type="curve"/>
      <point x="124" y="161" type="line"/>
      <point x="124" y="51"/>
      <point x="184" y="-6"/>
      <point x="291" y="-6" type="curve"/>
      <point x="343" y="-6"/>
      <point x="378" y="8"/>
      <point x="417" y="28" type="curve"/>
      <point x="382" y="99"/>
      <point x="417" y="28"/>
    </contour>
  </outline>
</glyph>
<glyph name="v" format="1">
  <advance width="699"/>
  <unicode hex="0076"/>
  <outline>
    <contour>
      <point x="143" y="533" type="curve"/>
      <point x="100" y="533"/>
      <point x="57" y="533"/>
      <point x="15" y="533" type="curve"/>
      <point x="15" y="452"/>
      <point x="15" y="533"/>
      <point x="15" y="452" type="curve"/>
      <point x="144" y="452"/>
      <point x="14" y="452"/>
      <point x="143" y="452" type="curve"/>
      <point x="143" y="533"/>
      <point x="143" y="452"/>
    </contour>
    <contour>
      <point x="143" y="452" type="curve"/>
      <point x="288" y="452"/>
      <point x="142" y="452"/>
      <point x="287" y="452" type="curve"/>
      <point x="287" y="533"/>
      <point x="287" y="452"/>
      <point x="287" y="533" type="curve"/>
      <point x="239" y="533"/>
      <point x="192" y="533"/>
      <point x="143" y="533" type="curve"/>
      <point x="143" y="452"/>
      <point x="143" y="533"/>
    </contour>
    <contour>
      <point x="562" y="533" type="curve"/>
      <point x="513" y="533"/>
      <point x="466" y="533"/>
      <point x="417" y="533" type="curve"/>
      <point x="417" y="452"/>
      <point x="417" y="533"/>
      <point x="417" y="452" type="curve"/>
      <point x="563" y="452"/>
      <point x="416" y="452"/>
      <point x="562" y="452" type="curve"/>
      <point x="562" y="533"/>
      <point x="562" y="452"/>
    </contour>
    <contour>
      <point x="562" y="452" type="curve"/>
      <point x="694" y="452"/>
      <point x="561" y="452"/>
      <point x="693" y="452" type="curve"/>
      <point x="693" y="533"/>
      <point x="693" y="452"/>
      <point x="693" y="533" type="curve"/>
      <point x="649" y="533"/>
      <point x="606" y="533"/>
      <point x="562" y="533" type="curve"/>
      <point x="562" y="452"/>
      <point x="562" y="533"/>
    </contour>
    <contour>
      <point x="72" y="533" type="curve"/>
      <point x="144" y="355"/>
      <point x="216" y="178"/>
      <point x="288" y="0" type="curve"/>
      <point x="392" y="0"/>
      <point x="288" y="0"/>
      <point x="392" y="0" type="curve"/>
      <point x="321" y="178"/>
      <point x="252" y="355"/>
      <point x="180" y="533" type="curve"/>
      <point x="72" y="533"/>
      <point x="180" y="533"/>
    </contour>
    <contour>
      <point x="526" y="533" type="curve"/>
      <point x="302" y="0" type="line"/>
      <point x="406" y="0"/>
      <point x="302" y="0"/>
      <point x="406" y="0" type="curve"/>
      <point x="483" y="178"/>
      <point x="558" y="355"/>
      <point x="634" y="533" type="curve"/>
      <point x="526" y="533"/>
      <point x="634" y="533"/>
    </contour>
  </outline>
</glyph>
<glyph name="w" format="1">
  <advance width="1040"/>
  <unicode hex="0077"/>
  <outline>
    <contour>
      <point x="891" y="452" type="curve"/>
      <point x="1031" y="452"/>
      <point x="889" y="452"/>
      <point x="1029" y="452" type="curve"/>
      <point x="1029" y="533"/>
      <point x="1029" y="452"/>
      <point x="1029" y="533" type="curve"/>
      <point x="982" y="533"/>
      <point x="937" y="533"/>
      <point x="891" y="533" type="curve"/>
      <point x="891" y="452"/>
      <point x="891" y="533"/>
    </contour>
    <contour>
      <point x="891" y="533" type="curve"/>
      <point x="843" y="533"/>
      <point x="800" y="533"/>
      <point x="754" y="533" type="curve"/>
      <point x="754" y="452"/>
      <point x="754" y="533"/>
      <point x="754" y="452" type="curve"/>
      <point x="895" y="452"/>
      <point x="749" y="452"/>
      <point x="891" y="452" type="curve"/>
      <point x="891" y="533"/>
      <point x="891" y="452"/>
    </contour>
    <contour>
      <point x="151" y="533" type="curve"/>
      <point x="105" y="533"/>
      <point x="59" y="533"/>
      <point x="12" y="533" type="curve"/>
      <point x="12" y="452"/>
      <point x="12" y="533"/>
      <point x="12" y="452" type="curve"/>
      <point x="152" y="452"/>
      <point x="11" y="452"/>
      <point x="151" y="452" type="curve"/>
      <point x="151" y="533"/>
      <point x="151" y="452"/>
    </contour>
    <contour>
      <point x="151" y="452" type="curve"/>
      <point x="291" y="452"/>
      <point x="148" y="452"/>
      <point x="288" y="452" type="curve"/>
      <point x="288" y="533"/>
      <point x="288" y="452"/>
      <point x="288" y="533" type="curve"/>
      <point x="241" y="533"/>
      <point x="198" y="533"/>
      <point x="151" y="533" type="curve"/>
      <point x="151" y="452"/>
      <point x="151" y="533"/>
    </contour>
    <contour>
      <point x="364" y="0" type="curve"/>
      <point x="435" y="178"/>
      <point x="505" y="355"/>
      <point x="576" y="533" type="curve"/>
      <point x="473" y="533"/>
      <point x="576" y="533"/>
      <point x="473" y="533" type="curve"/>
      <point x="404" y="355"/>
      <point x="334" y="178"/>
      <point x="265" y="0" type="curve"/>
      <point x="364" y="0"/>
      <point x="265" y="0"/>
    </contour>
    <contour>
      <point x="866" y="533" type="curve"/>
      <point x="801" y="355"/>
      <point x="736" y="178"/>
      <point x="672" y="0" type="curve"/>
      <point x="770" y="0"/>
      <point x="672" y="0"/>
      <point x="770" y="0" type="curve"/>
      <point x="837" y="178"/>
      <point x="903" y="355"/>
      <point x="969" y="533" type="curve"/>
      <point x="866" y="533"/>
      <point x="969" y="533"/>
    </contour>
    <contour>
      <point x="480" y="533" type="curve"/>
      <point x="543" y="355"/>
      <point x="607" y="178"/>
      <point x="670" y="0" type="curve"/>
      <point x="770" y="0"/>
      <point x="670" y="0"/>
      <point x="770" y="0" type="curve"/>
      <point x="707" y="178"/>
      <point x="644" y="355"/>
      <point x="581" y="533" type="curve"/>
      <point x="480" y="533"/>
      <point x="581" y="533"/>
    </contour>
    <contour>
      <point x="74" y="533" type="curve"/>
      <point x="137" y="355"/>
      <point x="200" y="178"/>
      <point x="264" y="0" type="curve"/>
      <point x="363" y="0"/>
      <point x="264" y="0"/>
      <point x="363" y="0" type="curve"/>
      <point x="300" y="178"/>
      <point x="238" y="355"/>
      <point x="175" y="533" type="curve"/>
      <point x="74" y="533"/>
      <point x="175" y="533"/>
    </contour>
  </outline>
</glyph>
<glyph name="x" format="1">
  <advance width="689"/>
  <unicode hex="0078"/>
  <outline>
    <contour>
      <point x="135" y="81" type="curve"/>
      <point x="4" y="81"/>
      <point x="147" y="81"/>
      <point x="15" y="81" type="curve"/>
      <point x="15" y="0"/>
      <point x="15" y="81"/>
      <point x="15" y="0" type="curve"/>
      <point x="59" y="0"/>
      <point x="91" y="0"/>
      <point x="135" y="0" type="curve"/>
      <point x="135" y="81"/>
      <point x="135" y="0"/>
    </contour>
    <contour>
      <point x="568" y="81" type="curve"/>
      <point x="393" y="81"/>
      <point x="572" y="81"/>
      <point x="397" y="81" type="curve"/>
      <point x="397" y="0"/>
      <point x="397" y="81"/>
      <point x="397" y="0" type="curve"/>
      <point x="455" y="0"/>
      <point x="509" y="0"/>
      <point x="568" y="0" type="curve"/>
      <point x="568" y="81"/>
      <point x="568" y="0"/>
    </contour>
    <contour>
      <point x="561" y="0" type="curve"/>
      <point x="605" y="0"/>
      <point x="638" y="0"/>
      <point x="681" y="0" type="curve"/>
      <point x="681" y="81"/>
      <point x="681" y="0"/>
      <point x="681" y="81" type="curve"/>
      <point x="552" y="81"/>
      <point x="691" y="81"/>
      <point x="561" y="81" type="curve"/>
      <point x="561" y="0"/>
      <point x="561" y="81"/>
    </contour>
    <contour>
      <point x="129" y="0" type="curve"/>
      <point x="188" y="0"/>
      <point x="124" y="0"/>
      <point x="299" y="0" type="curve"/>
      <point x="299" y="81"/>
      <point x="299" y="0"/>
      <point x="299" y="81" type="curve"/>
      <point x="124" y="81"/>
      <point x="305" y="81"/>
      <point x="129" y="81" type="curve"/>
      <point x="129" y="0"/>
      <point x="129" y="81"/>
    </contour>
    <contour>
      <point x="537" y="452" type="curve"/>
      <point x="672" y="452"/>
      <point x="530" y="452"/>
      <point x="664" y="452" type="curve"/>
      <point x="664" y="533"/>
      <point x="664" y="452"/>
      <point x="664" y="533" type="curve"/>
      <point x="620" y="533"/>
      <point x="582" y="533"/>
      <point x="537" y="533" type="curve"/>
      <point x="537" y="452"/>
      <point x="537" y="533"/>
    </contour>
    <contour>
      <point x="169" y="533" type="curve"/>
      <point x="124" y="533"/>
      <point x="88" y="533"/>
      <point x="42" y="533" type="curve"/>
      <point x="42" y="452"/>
      <point x="42" y="533"/>
      <point x="42" y="452" type="curve"/>
      <point x="180" y="452"/>
      <point x="32" y="452"/>
      <point x="169" y="452" type="curve"/>
      <point x="169" y="533"/>
      <point x="169" y="452"/>
    </contour>
    <contour>
      <point x="150" y="452" type="curve"/>
      <point x="318" y="452"/>
      <point x="137" y="452"/>
      <point x="305" y="452" type="curve"/>
      <point x="305" y="533"/>
      <point x="305" y="452"/>
      <point x="305" y="533" type="curve"/>
      <point x="250" y="533"/>
      <point x="206" y="533"/>
      <point x="150" y="533" type="curve"/>
      <point x="150" y="452"/>
      <point x="150" y="533"/>
    </contour>
    <contour>
      <point x="547" y="533" type="curve"/>
      <point x="493" y="533"/>
      <point x="452" y="533"/>
      <point x="399" y="533" type="curve"/>
      <point x="399" y="452"/>
      <point x="399" y="533"/>
      <point x="399" y="452" type="curve"/>
      <point x="560" y="452"/>
      <point x="386" y="452"/>
      <point x="547" y="452" type="curve"/>
      <point x="547" y="533"/>
      <point x="547" y="452"/>
    </contour>
    <contour>
      <point x="616" y="31" type="curve"/>
      <point x="565" y="94"/>
      <point x="226" y="470"/>
      <point x="175" y="533" type="curve"/>
      <point x="80" y="533"/>
      <point x="187" y="500"/>
      <point x="94" y="500" type="curve"/>
      <point x="145" y="436"/>
      <point x="475" y="63"/>
      <point x="527" y="0" type="curve"/>
      <point x="629" y="0"/>
      <point x="514" y="31"/>
    </contour>
    <contour>
      <point x="532" y="533" type="curve"/>
      <point x="479" y="470"/>
      <point x="130" y="97"/>
      <point x="78" y="33" type="curve"/>
      <point x="181" y="33"/>
      <point x="66" y="0"/>
      <point x="168" y="0" type="curve"/>
      <point x="220" y="63"/>
      <point x="557" y="435"/>
      <point x="610" y="498" type="curve"/>
      <point x="514" y="498"/>
      <point x="626" y="533"/>
    </contour>
  </outline>
</glyph>
<glyph name="braceleft" format="1">
  <advance width="330"/>
  <unicode hex="007B"/>
  <outline>
    <contour>
      <point x="280" y="-32" type="curve"/>
      <point x="229" y="-32"/>
      <point x="207" y="2"/>
      <point x="207" y="53" type="curve"/>
      <point x="207" y="106"/>
      <point x="207" y="160"/>
      <point x="207" y="214" type="curve"/>
      <point x="207" y="317"/>
      <point x="142" y="383"/>
      <point x="39" y="383" type="curve"/>
      <point x="39" y="298"/>
      <point x="39" y="383"/>
      <point x="39" y="298" type="curve"/>
      <point x="85" y="298"/>
      <point x="110" y="269"/>
      <point x="110" y="222" type="curve"/>
      <point x="110" y="167"/>
      <point x="110" y="112"/>
      <point x="110" y="57" type="curve"/>
      <point x="110" y="-49"/>
      <point x="174" y="-113"/>
      <point x="280" y="-113" type="curve"/>
      <point x="280" y="-32"/>
      <point x="280" y="-113"/>
    </contour>
    <contour>
      <point x="280" y="793" type="curve"/>
      <point x="174" y="793"/>
      <point x="110" y="730"/>
      <point x="110" y="626" type="curve"/>
      <point x="110" y="569"/>
      <point x="110" y="513"/>
      <point x="110" y="456" type="curve"/>
      <point x="110" y="410"/>
      <point x="85" y="383"/>
      <point x="39" y="383" type="curve"/>
      <point x="39" y="298"/>
      <point x="39" y="383"/>
      <point x="39" y="298" type="curve"/>
      <point x="143" y="298"/>
      <point x="207" y="362"/>
      <point x="207" y="468" type="curve"/>
      <point x="207" y="520"/>
      <point x="207" y="573"/>
      <point x="207" y="626" type="curve"/>
      <point x="207" y="677"/>
      <point x="229" y="712"/>
      <point x="280" y="712" type="curve"/>
      <point x="280" y="793"/>
      <point x="280" y="712"/>
    </contour>
  </outline>
</glyph>
<glyph name="braceright" format="1">
  <advance width="331"/>
  <unicode hex="007D"/>
  <outline>
    <contour>
      <point x="51" y="-113" type="curve"/>
      <point x="156" y="-113"/>
      <point x="220" y="-49"/>
      <point x="220" y="57" type="curve"/>
      <point x="220" y="112"/>
      <point x="220" y="167"/>
      <point x="220" y="222" type="curve"/>
      <point x="220" y="268"/>
      <point x="244" y="297"/>
      <point x="292" y="297" type="curve"/>
      <point x="292" y="382"/>
      <point x="292" y="297"/>
      <point x="292" y="382" type="curve"/>
      <point x="188" y="382"/>
      <point x="124" y="317"/>
      <point x="124" y="214" type="curve"/>
      <point x="124" y="160"/>
      <point x="124" y="106"/>
      <point x="124" y="53" type="curve"/>
      <point x="124" y="2"/>
      <point x="101" y="-33"/>
      <point x="51" y="-33" type="curve"/>
      <point x="51" y="-113"/>
      <point x="51" y="-33"/>
    </contour>
    <contour>
      <point x="51" y="712" type="curve"/>
      <point x="102" y="712"/>
      <point x="123" y="677"/>
      <point x="123" y="626" type="curve"/>
      <point x="123" y="573"/>
      <point x="123" y="520"/>
      <point x="123" y="468" type="curve"/>
      <point x="123" y="362"/>
      <point x="187" y="297"/>
      <point x="292" y="297" type="curve"/>
      <point x="292" y="382"/>
      <point x="292" y="297"/>
      <point x="292" y="382" type="curve"/>
      <point x="245" y="382"/>
      <point x="220" y="410"/>
      <point x="220" y="456" type="curve"/>
      <point x="220" y="513"/>
      <point x="220" y="569"/>
      <point x="220" y="626" type="curve"/>
      <point x="220" y="730"/>
      <point x="156" y="793"/>
      <point x="51" y="793" type="curve"/>
      <point x="51" y="712"/>
      <point x="51" y="793"/>
    </contour>
  </outline>
</glyph>
<glyph name="asciitilde" format="1">
  <advance width="725"/>
  <unicode hex="007E"/>
  <outline>
    <contour>
      <point x="571" y="368" type="curve"/>
      <point x="554" y="324"/>
      <point x="535" y="284"/>
      <point x="491" y="284" type="curve"/>
      <point x="450" y="284"/>
      <point x="425" y="295"/>
      <point x="392" y="318" type="curve"/>
      <point x="342" y="357"/>
      <point x="306" y="377"/>
      <point x="243" y="377" type="curve"/>
      <point x="147" y="377"/>
      <point x="100" y="329"/>
      <point x="72" y="240" type="curve"/>
      <point x="106" y="225"/>
      <point x="116" y="221"/>
      <point x="152" y="207" type="curve"/>
      <point x="167" y="257"/>
      <point x="189" y="294"/>
      <point x="238" y="294" type="curve"/>
      <point x="275" y="294"/>
      <point x="296" y="284"/>
      <point x="325" y="262" type="curve"/>
      <point x="380" y="222"/>
      <point x="418" y="202"/>
      <point x="485" y="201" type="curve"/>
      <point x="578" y="201"/>
      <point x="621" y="251"/>
      <point x="654" y="335" type="curve"/>
      <point x="617" y="350"/>
      <point x="608" y="354"/>
    </contour>
  </outline>
</glyph>
<glyph name="exclamdown" format="1">
  <advance width="265"/>
  <unicode hex="00A1"/>
  <outline>
    <contour>
      <point x="87" y="304" type="line"/>
      <point x="75" y="-189" type="line"/>
      <point x="190" y="-189" type="line"/>
      <point x="180" y="304" type="line"/>
    </contour>
    <contour>
      <point x="72" y="487" type="curve"/>
      <point x="72" y="451"/>
      <point x="98" y="434"/>
      <point x="134" y="434" type="curve"/>
      <point x="170" y="434"/>
      <point x="194" y="453"/>
      <point x="194" y="487" type="curve"/>
      <point x="77" y="487"/>
      <point x="190" y="487"/>
      <point x="72" y="487" type="curve"/>
      <point x="72" y="525"/>
      <point x="98" y="541"/>
      <point x="134" y="541" type="curve"/>
      <point x="171" y="541"/>
      <point x="194" y="523"/>
      <point x="194" y="487" type="curve"/>
      <point x="77" y="487"/>
      <point x="190" y="487"/>
    </contour>
  </outline>
</glyph>
<glyph name="cent" format="1">
  <advance width="700"/>
  <unicode hex="00A2"/>
  <outline>
    <contour>
      <point x="423" y="-53" type="curve"/>
      <point x="423" y="-13"/>
      <point x="423" y="27"/>
      <point x="423" y="67" type="curve"/>
      <point x="316" y="67"/>
      <point x="423" y="67"/>
      <point x="316" y="67" type="curve"/>
      <point x="316" y="27"/>
      <point x="316" y="-13"/>
      <point x="316" y="-53" type="curve"/>
      <point x="423" y="-53"/>
      <point x="316" y="-53"/>
    </contour>
    <contour>
      <point x="337" y="778" type="curve"/>
      <point x="337" y="742"/>
      <point x="337" y="706"/>
      <point x="337" y="670" type="curve"/>
      <point x="444" y="670"/>
      <point x="337" y="670"/>
      <point x="444" y="670" type="curve"/>
      <point x="444" y="706"/>
      <point x="444" y="742"/>
      <point x="444" y="778" type="curve"/>
      <point x="337" y="778"/>
      <point x="444" y="778"/>
    </contour>
    <contour>
      <point x="641" y="612" type="curve"/>
      <point x="560" y="664"/>
      <point x="494" y="684"/>
      <point x="398" y="684" type="curve"/>
      <point x="191" y="684"/>
      <point x="54" y="568"/>
      <point x="54" y="364" type="curve"/>
      <point x="54" y="170"/>
      <point x="169" y="48"/>
      <point x="363" y="48" type="curve"/>
      <point x="474" y="48"/>
      <point x="552" y="75"/>
      <point x="640" y="142" type="curve"/>
      <point x="580" y="209"/>
      <point x="640" y="142"/>
      <point x="580" y="209" type="curve"/>
      <point x="509" y="158"/>
      <point x="454" y="133"/>
      <point x="373" y="133" type="curve"/>
      <point x="237" y="133"/>
      <point x="160" y="227"/>
      <point x="160" y="368" type="curve"/>
      <point x="160" y="512"/>
      <point x="249" y="600"/>
      <point x="389" y="600" type="curve"/>
      <point x="465" y="600"/>
      <point x="518" y="582"/>
      <point x="588" y="542" type="curve"/>
      <point x="641" y="612"/>
      <point x="588" y="542"/>
    </contour>
    <contour>
      <point x="558" y="612" type="curve"/>
      <point x="558" y="489"/>
      <point x="558" y="595"/>
      <point x="558" y="472" type="curve"/>
      <point x="641" y="472"/>
      <point x="558" y="472"/>
      <point x="641" y="472" type="curve"/>
      <point x="641" y="595"/>
      <point x="641" y="489"/>
      <point x="641" y="612" type="curve"/>
      <point x="558" y="612"/>
      <point x="641" y="612"/>
    </contour>
  </outline>
</glyph>
<glyph name="sterling" format="1">
  <advance width="546"/>
  <unicode hex="00A3"/>
  <outline>
    <contour>
      <point x="473" y="81" type="curve"/>
      <point x="332" y="81"/>
      <point x="190" y="81"/>
      <point x="50" y="81" type="curve"/>
      <point x="50" y="0"/>
      <point x="50" y="81"/>
      <point x="50" y="0" type="curve"/>
      <point x="190" y="0"/>
      <point x="333" y="0"/>
      <point x="473" y="0" type="curve"/>
      <point x="473" y="81"/>
      <point x="473" y="0"/>
    </contour>
    <contour>
      <point x="421" y="416" type="curve"/>
      <point x="310" y="416"/>
      <point x="195" y="416"/>
      <point x="84" y="416" type="curve"/>
      <point x="84" y="335"/>
      <point x="84" y="416"/>
      <point x="84" y="335" type="curve"/>
      <point x="195" y="335"/>
      <point x="310" y="335"/>
      <point x="421" y="335" type="curve"/>
      <point x="421" y="416"/>
      <point x="421" y="335"/>
    </contour>
    <contour>
      <point x="500" y="666" type="curve"/>
      <point x="449" y="707"/>
      <point x="406" y="721"/>
      <point x="343" y="721" type="curve"/>
      <point x="171" y="721"/>
      <point x="104" y="561"/>
      <point x="149" y="367" type="curve"/>
      <point x="183" y="216"/>
      <point x="161" y="81"/>
      <point x="50" y="81" type="curve"/>
      <point x="50" y="0"/>
      <point x="50" y="81"/>
      <point x="50" y="0" type="curve"/>
      <point x="238" y="0"/>
      <point x="298" y="176"/>
      <point x="250" y="384" type="curve"/>
      <point x="220" y="521"/>
      <point x="243" y="644"/>
      <point x="338" y="644" type="curve"/>
      <point x="383" y="644"/>
      <point x="411" y="630"/>
      <point x="448" y="606" type="curve"/>
      <point x="500" y="666"/>
      <point x="448" y="606"/>
    </contour>
  </outline>
</glyph>
<glyph name="currency" format="1">
  <advance width="693"/>
  <unicode hex="00A4"/>
  <outline>
    <contour>
      <point x="244" y="315" type="curve"/>
      <point x="244" y="377"/>
      <point x="281" y="419"/>
      <point x="345" y="419" type="curve"/>
      <point x="411" y="419"/>
      <point x="448" y="379"/>
      <point x="448" y="314" type="curve"/>
      <point x="448" y="250"/>
      <point x="414" y="204"/>
      <point x="352" y="204" type="curve"/>
      <point x="282" y="204"/>
      <point x="244" y="246"/>
      <point x="244" y="315" type="curve"/>
      <point x="138" y="315"/>
      <point x="247" y="315"/>
      <point x="141" y="315" type="curve"/>
      <point x="141" y="192"/>
      <point x="224" y="123"/>
      <point x="349" y="123" type="curve"/>
      <point x="473" y="123"/>
      <point x="553" y="196"/>
      <point x="553" y="317" type="curve"/>
      <point x="553" y="433"/>
      <point x="474" y="500"/>
      <point x="355" y="500" type="curve"/>
      <point x="228" y="500"/>
      <point x="141" y="436"/>
      <point x="141" y="315" type="curve"/>
      <point x="247" y="315"/>
      <point x="138" y="315"/>
    </contour>
    <contour>
      <point x="476" y="349" type="line"/>
      <point x="632" y="495" type="line"/>
      <point x="551" y="576" type="line"/>
      <point x="405" y="420" type="line"/>
    </contour>
    <contour>
      <point x="407" y="210" type="line"/>
      <point x="552" y="54" type="line"/>
      <point x="634" y="135" type="line"/>
      <point x="478" y="280" type="line"/>
    </contour>
    <contour>
      <point x="215" y="282" type="line"/>
      <point x="59" y="136" type="line"/>
      <point x="140" y="55" type="line"/>
      <point x="286" y="211" type="line"/>
    </contour>
    <contour>
      <point x="289" y="421" type="line"/>
      <point x="143" y="577" type="line"/>
      <point x="62" y="496" type="line"/>
      <point x="218" y="350" type="line"/>
    </contour>
  </outline>
</glyph>
<glyph name="brokenbar" format="1">
  <advance width="287"/>
  <unicode hex="00A6"/>
  <outline>
    <contour>
      <point x="197" y="-300" type="curve"/>
      <point x="197" y="-176"/>
      <point x="197" y="-52"/>
      <point x="197" y="72" type="curve"/>
      <point x="91" y="72"/>
      <point x="197" y="72"/>
      <point x="91" y="72" type="curve"/>
      <point x="91" y="-52"/>
      <point x="91" y="-176"/>
      <point x="91" y="-300" type="curve"/>
      <point x="197" y="-300"/>
      <point x="91" y="-300"/>
    </contour>
    <contour>
      <point x="197" y="428" type="curve"/>
      <point x="197" y="552"/>
      <point x="197" y="676"/>
      <point x="197" y="800" type="curve"/>
      <point x="91" y="800"/>
      <point x="197" y="800"/>
      <point x="91" y="800" type="curve"/>
      <point x="91" y="676"/>
      <point x="91" y="552"/>
      <point x="91" y="428" type="curve"/>
      <point x="197" y="428"/>
      <point x="91" y="428"/>
    </contour>
  </outline>
</glyph>
<glyph name="section" format="1">
  <advance width="563"/>
  <unicode hex="00A7"/>
  <outline>
    <contour>
      <point x="454" y="704" type="curve"/>
      <point x="394" y="734"/>
      <point x="350" y="749"/>
      <point x="285" y="749" type="curve"/>
      <point x="174" y="749"/>
      <point x="95" y="703"/>
      <point x="95" y="604" type="curve"/>
      <point x="95" y="517"/>
      <point x="156" y="473"/>
      <point x="244" y="445" type="curve"/>
      <point x="318" y="422"/>
      <point x="400" y="418"/>
      <point x="400" y="358" type="curve"/>
      <point x="400" y="300"/>
      <point x="353" y="275"/>
      <point x="288" y="264" type="curve"/>
      <point x="351" y="199"/>
      <point x="288" y="264"/>
      <point x="351" y="199" type="curve"/>
      <point x="445" y="220"/>
      <point x="506" y="269"/>
      <point x="506" y="361" type="curve"/>
      <point x="505" y="469"/>
      <point x="407" y="491"/>
      <point x="297" y="522" type="curve"/>
      <point x="245" y="538"/>
      <point x="199" y="555"/>
      <point x="199" y="604" type="curve"/>
      <point x="199" y="647"/>
      <point x="231" y="669"/>
      <point x="280" y="669" type="curve"/>
      <point x="330" y="669"/>
      <point x="361" y="658"/>
      <point x="408" y="636" type="curve"/>
      <point x="454" y="704"/>
      <point x="408" y="636"/>
    </contour>
    <contour>
      <point x="211" y="523" type="curve"/>
      <point x="122" y="498"/>
      <point x="59" y="455"/>
      <point x="59" y="366" type="curve"/>
      <point x="59" y="265"/>
      <point x="144" y="232"/>
      <point x="248" y="203" type="curve"/>
      <point x="308" y="183"/>
      <point x="371" y="172"/>
      <point x="371" y="120" type="curve"/>
      <point x="371" y="75"/>
      <point x="334" y="54"/>
      <point x="284" y="54" type="curve"/>
      <point x="229" y="54"/>
      <point x="193" y="68"/>
      <point x="140" y="96" type="curve"/>
      <point x="87" y="34"/>
      <point x="140" y="96"/>
      <point x="87" y="34" type="curve"/>
      <point x="151" y="-10"/>
      <point x="204" y="-27"/>
      <point x="280" y="-27" type="curve"/>
      <point x="392" y="-27"/>
      <point x="476" y="18"/>
      <point x="476" y="122" type="curve"/>
      <point x="475" y="213"/>
      <point x="407" y="253"/>
      <point x="315" y="279" type="curve"/>
      <point x="243" y="301"/>
      <point x="165" y="309"/>
      <point x="165" y="371" type="curve"/>
      <point x="165" y="424"/>
      <point x="207" y="446"/>
      <point x="264" y="463" type="curve"/>
      <point x="211" y="523"/>
      <point x="264" y="463"/>
    </contour>
    <contour>
      <point x="171" y="34" type="curve"/>
      <point x="171" y="154"/>
      <point x="171" y="36"/>
      <point x="171" y="156" type="curve"/>
      <point x="87" y="156"/>
      <point x="171" y="156"/>
      <point x="87" y="156" type="curve"/>
      <point x="87" y="36"/>
      <point x="87" y="154"/>
      <point x="87" y="34" type="curve"/>
      <point x="171" y="34"/>
      <point x="87" y="34"/>
    </contour>
    <contour>
      <point x="454" y="582" type="curve"/>
      <point x="454" y="702"/>
      <point x="454" y="584"/>
      <point x="454" y="704" type="curve"/>
      <point x="370" y="704"/>
      <point x="454" y="704"/>
      <point x="370" y="704" type="curve"/>
      <point x="370" y="584"/>
      <point x="370" y="702"/>
      <point x="370" y="582" type="curve"/>
      <point x="454" y="582"/>
      <point x="370" y="582"/>
    </contour>
  </outline>
</glyph>
<glyph name="dieresis" format="1">
  <advance width="408"/>
  <unicode hex="00A8"/>
  <outline>
    <contour>
      <point x="190" y="585" type="move" name="_top"/>
    </contour>
    <contour>
      <point x="158" y="635" type="curve"/>
      <point x="158" y="671"/>
      <point x="132" y="689"/>
      <point x="96" y="689" type="curve"/>
      <point x="60" y="689"/>
      <point x="36" y="670"/>
      <point x="36" y="635" type="curve"/>
      <point x="153" y="635"/>
      <point x="40" y="635"/>
      <point x="158" y="635" type="curve"/>
      <point x="158" y="598"/>
      <point x="132" y="581"/>
      <point x="95" y="581" type="curve"/>
      <point x="59" y="581"/>
      <point x="36" y="599"/>
      <point x="36" y="635" type="curve"/>
      <point x="153" y="635"/>
      <point x="40" y="635"/>
    </contour>
    <contour>
      <point x="346" y="635" type="curve"/>
      <point x="346" y="671"/>
      <point x="319" y="689"/>
      <point x="283" y="689" type="curve"/>
      <point x="247" y="689"/>
      <point x="223" y="670"/>
      <point x="223" y="635" type="curve"/>
      <point x="341" y="635"/>
      <point x="228" y="635"/>
      <point x="346" y="635" type="curve"/>
      <point x="346" y="598"/>
      <point x="320" y="581"/>
      <point x="283" y="581" type="curve"/>
      <point x="247" y="581"/>
      <point x="223" y="599"/>
      <point x="223" y="635" type="curve"/>
      <point x="341" y="635"/>
      <point x="228" y="635"/>
    </contour>
  </outline>
</glyph>
<glyph name="copyright" format="1">
  <advance width="837"/>
  <unicode hex="00A9"/>
  <outline>
    <contour>
      <point x="146" y="323" type="curve"/>
      <point x="146" y="481"/>
      <point x="260" y="579"/>
      <point x="422" y="579" type="curve"/>
      <point x="581" y="579"/>
      <point x="692" y="479"/>
      <point x="692" y="321" type="curve"/>
      <point x="692" y="167"/>
      <point x="585" y="69"/>
      <point x="430" y="69" type="curve"/>
      <point x="267" y="69"/>
      <point x="146" y="162"/>
      <point x="146" y="323" type="curve"/>
      <point x="59" y="323"/>
      <point x="148" y="323"/>
      <point x="60" y="323" type="curve"/>
      <point x="60" y="121"/>
      <point x="216" y="3"/>
      <point x="427" y="3" type="curve"/>
      <point x="631" y="3"/>
      <point x="777" y="125"/>
      <point x="777" y="324" type="curve"/>
      <point x="777" y="524"/>
      <point x="628" y="645"/>
      <point x="422" y="645" type="curve"/>
      <point x="214" y="645"/>
      <point x="60" y="525"/>
      <point x="60" y="323" type="curve"/>
      <point x="148" y="323"/>
      <point x="59" y="323"/>
    </contour>
    <contour>
      <point x="493" y="428" type="curve"/>
      <point x="493" y="412"/>
      <point x="493" y="394"/>
      <point x="493" y="376" type="curve"/>
      <point x="572" y="376"/>
      <point x="494" y="376"/>
      <point x="573" y="376" type="curve"/>
      <point x="573" y="406"/>
      <point x="573" y="439"/>
      <point x="573" y="466" type="curve"/>
      <point x="494" y="430"/>
      <point x="572" y="463"/>
    </contour>
    <contour>
      <point x="573" y="466" type="curve"/>
      <point x="530" y="495"/>
      <point x="485" y="508"/>
      <point x="428" y="508" type="curve"/>
      <point x="307" y="508"/>
      <point x="228" y="440"/>
      <point x="228" y="322" type="curve"/>
      <point x="228" y="208"/>
      <point x="298" y="141"/>
      <point x="413" y="141" type="curve"/>
      <point x="479" y="141"/>
      <point x="524" y="151"/>
      <point x="578" y="194" type="curve"/>
      <point x="530" y="241"/>
      <point x="578" y="194"/>
      <point x="530" y="241" type="curve"/>
      <point x="488" y="217"/>
      <point x="459" y="207"/>
      <point x="416" y="207" type="curve"/>
      <point x="347" y="207"/>
      <point x="312" y="254"/>
      <point x="312" y="325" type="curve"/>
      <point x="312" y="397"/>
      <point x="352" y="442"/>
      <point x="425" y="442" type="curve"/>
      <point x="454" y="442"/>
      <point x="474" y="436"/>
      <point x="493" y="428" type="curve"/>
      <point x="572" y="463"/>
      <point x="494" y="430"/>
    </contour>
  </outline>
</glyph>
<glyph name="ordfeminine" format="1">
  <advance width="481"/>
  <unicode hex="00AA"/>
  <outline>
    <contour>
      <point x="79" y="724" type="curve"/>
      <point x="79" y="667"/>
      <point x="79" y="708"/>
      <point x="79" y="651" type="curve"/>
      <point x="132" y="651"/>
      <point x="84" y="651"/>
      <point x="137" y="651" type="curve"/>
      <point x="137" y="708"/>
      <point x="137" y="667"/>
      <point x="137" y="724" type="curve"/>
      <point x="84" y="724"/>
      <point x="132" y="724"/>
    </contour>
    <contour>
      <point x="372" y="426" type="curve"/>
      <point x="372" y="511"/>
      <point x="372" y="586"/>
      <point x="372" y="671" type="curve"/>
      <point x="372" y="750"/>
      <point x="308" y="775"/>
      <point x="224" y="775" type="curve"/>
      <point x="162" y="775"/>
      <point x="115" y="754"/>
      <point x="79" y="724" type="curve"/>
      <point x="104" y="681"/>
      <point x="84" y="719"/>
      <point x="110" y="676" type="curve"/>
      <point x="133" y="696"/>
      <point x="168" y="717"/>
      <point x="214" y="717" type="curve"/>
      <point x="262" y="717"/>
      <point x="299" y="703"/>
      <point x="299" y="659" type="curve"/>
      <point x="299" y="578"/>
      <point x="299" y="507"/>
      <point x="299" y="426" type="curve"/>
      <point x="366" y="426"/>
      <point x="304" y="426"/>
    </contour>
    <contour>
      <point x="337" y="426" type="curve"/>
      <point x="365" y="426"/>
      <point x="391" y="426"/>
      <point x="419" y="426" type="curve"/>
      <point x="419" y="477"/>
      <point x="419" y="431"/>
      <point x="419" y="482" type="curve"/>
      <point x="352" y="482"/>
      <point x="404" y="482"/>
      <point x="337" y="482" type="curve"/>
      <point x="337" y="431"/>
      <point x="337" y="477"/>
    </contour>
    <contour>
      <point x="334" y="646" type="curve"/>
      <point x="281" y="641"/>
      <point x="248" y="639"/>
      <point x="195" y="633" type="curve"/>
      <point x="117" y="623"/>
      <point x="60" y="600"/>
      <point x="60" y="528" type="curve"/>
      <point x="60" y="456"/>
      <point x="111" y="422"/>
      <point x="188" y="422" type="curve"/>
      <point x="265" y="422"/>
      <point x="303" y="466"/>
      <point x="352" y="522" type="curve"/>
      <point x="320" y="549"/>
      <point x="349" y="525"/>
      <point x="316" y="551" type="curve"/>
      <point x="285" y="510"/>
      <point x="254" y="478"/>
      <point x="202" y="478" type="curve"/>
      <point x="160" y="478"/>
      <point x="131" y="493"/>
      <point x="131" y="530" type="curve"/>
      <point x="131" y="563"/>
      <point x="160" y="578"/>
      <point x="194" y="582" type="curve"/>
      <point x="249" y="589"/>
      <point x="281" y="592"/>
      <point x="337" y="599" type="curve"/>
      <point x="334" y="642"/>
      <point x="336" y="603"/>
    </contour>
  </outline>
</glyph>
<glyph name="guillemotleft" format="1">
  <advance width="612"/>
  <unicode hex="00AB"/>
  <outline>
    <contour>
      <point x="286" y="454" type="curve"/>
      <point x="248" y="432"/>
      <point x="96" y="353"/>
      <point x="58" y="331" type="curve"/>
      <point x="58" y="242"/>
      <point x="58" y="325"/>
      <point x="58" y="236" type="curve"/>
      <point x="96" y="259"/>
      <point x="248" y="340"/>
      <point x="286" y="363" type="curve"/>
      <point x="286" y="451"/>
      <point x="286" y="366"/>
    </contour>
    <contour>
      <point x="286" y="206" type="curve"/>
      <point x="248" y="228"/>
      <point x="96" y="309"/>
      <point x="58" y="331" type="curve"/>
      <point x="58" y="242"/>
      <point x="58" y="325"/>
      <point x="58" y="236" type="curve"/>
      <point x="96" y="213"/>
      <point x="248" y="136"/>
      <point x="286" y="114" type="curve"/>
      <point x="286" y="203"/>
      <point x="286" y="117"/>
    </contour>
    <contour>
      <point x="530" y="454" type="curve"/>
      <point x="492" y="432"/>
      <point x="341" y="353"/>
      <point x="302" y="331" type="curve"/>
      <point x="302" y="242"/>
      <point x="302" y="325"/>
      <point x="302" y="236" type="curve"/>
      <point x="341" y="259"/>
      <point x="492" y="340"/>
      <point x="530" y="363" type="curve"/>
      <point x="530" y="451"/>
      <point x="530" y="366"/>
    </contour>
    <contour>
      <point x="530" y="206" type="curve"/>
      <point x="492" y="228"/>
      <point x="341" y="309"/>
      <point x="302" y="331" type="curve"/>
      <point x="302" y="242"/>
      <point x="302" y="325"/>
      <point x="302" y="236" type="curve"/>
      <point x="341" y="213"/>
      <point x="492" y="136"/>
      <point x="530" y="114" type="curve"/>
      <point x="530" y="203"/>
      <point x="530" y="117"/>
    </contour>
  </outline>
</glyph>
<glyph name="logicalnot" format="1">
  <advance width="694"/>
  <unicode hex="00AC"/>
  <outline>
    <contour>
      <point x="89" y="268" type="curve"/>
      <point x="615" y="268" type="line"/>
      <point x="615" y="357"/>
      <point x="615" y="268"/>
      <point x="615" y="357" type="curve"/>
      <point x="89" y="357" type="line"/>
      <point x="89" y="268"/>
      <point x="89" y="357"/>
    </contour>
    <contour>
      <point x="615" y="144" type="curve"/>
      <point x="615" y="357" type="line"/>
      <point x="508" y="357"/>
      <point x="619" y="357"/>
      <point x="512" y="357" type="curve"/>
      <point x="512" y="144" type="line"/>
      <point x="619" y="144"/>
      <point x="508" y="144"/>
    </contour>
  </outline>
</glyph>
<glyph name="registered" format="1">
  <advance width="845"/>
  <unicode hex="00AE"/>
  <outline>
    <contour>
      <point x="139" y="322" type="curve"/>
      <point x="139" y="490"/>
      <point x="254" y="584"/>
      <point x="426" y="584" type="curve"/>
      <point x="595" y="584"/>
      <point x="706" y="487"/>
      <point x="706" y="320" type="curve"/>
      <point x="706" y="158"/>
      <point x="599" y="61"/>
      <point x="434" y="61" type="curve"/>
      <point x="260" y="61"/>
      <point x="139" y="153"/>
      <point x="139" y="322" type="curve"/>
      <point x="104" y="322"/>
      <point x="95" y="322"/>
      <point x="61" y="322" type="curve"/>
      <point x="61" y="114"/>
      <point x="213" y="2"/>
      <point x="430" y="2" type="curve"/>
      <point x="642" y="2"/>
      <point x="783" y="118"/>
      <point x="783" y="324" type="curve"/>
      <point x="783" y="529"/>
      <point x="639" y="644"/>
      <point x="426" y="644" type="curve"/>
      <point x="210" y="644"/>
      <point x="61" y="531"/>
      <point x="61" y="322" type="curve"/>
      <point x="95" y="322"/>
      <point x="104" y="322"/>
    </contour>
    <contour>
      <point x="512" y="143" type="curve"/>
      <point x="547" y="143"/>
      <point x="567" y="143"/>
      <point x="602" y="143" type="curve"/>
      <point x="602" y="210"/>
      <point x="602" y="143"/>
      <point x="602" y="210" type="curve"/>
      <point x="588" y="210"/>
      <point x="582" y="210"/>
      <point x="568" y="210" type="curve"/>
      <point x="516" y="178"/>
      <point x="550" y="217"/>
    </contour>
    <contour>
      <point x="390" y="503" type="curve"/>
      <point x="345" y="503"/>
      <point x="306" y="503"/>
      <point x="261" y="503" type="curve"/>
      <point x="261" y="437"/>
      <point x="261" y="503"/>
      <point x="261" y="437" type="curve"/>
      <point x="277" y="437"/>
      <point x="288" y="437"/>
      <point x="303" y="437" type="curve"/>
      <point x="390" y="503"/>
      <point x="303" y="437"/>
    </contour>
    <contour>
      <point x="390" y="210" type="curve"/>
      <point x="345" y="210"/>
      <point x="306" y="210"/>
      <point x="261" y="210" type="curve"/>
      <point x="261" y="143"/>
      <point x="261" y="210"/>
      <point x="261" y="143" type="curve"/>
      <point x="277" y="143"/>
      <point x="288" y="143"/>
      <point x="303" y="143" type="curve"/>
      <point x="390" y="210"/>
      <point x="303" y="143"/>
    </contour>
    <contour>
      <point x="303" y="143" type="curve"/>
      <point x="344" y="143"/>
      <point x="379" y="143"/>
      <point x="421" y="143" type="curve"/>
      <point x="421" y="210"/>
      <point x="421" y="143"/>
      <point x="421" y="210" type="curve"/>
      <point x="409" y="210"/>
      <point x="401" y="210"/>
      <point x="390" y="210" type="curve"/>
      <point x="303" y="143"/>
      <point x="390" y="210"/>
    </contour>
    <contour>
      <point x="403" y="315" type="curve"/>
      <point x="431" y="277"/>
      <point x="484" y="182"/>
      <point x="512" y="143" type="curve"/>
      <point x="570" y="192"/>
      <point x="528" y="153"/>
      <point x="568" y="210" type="curve"/>
      <point x="499" y="313" type="line"/>
      <point x="392" y="313"/>
      <point x="510" y="315"/>
    </contour>
    <contour>
      <point x="386" y="210" type="curve"/>
      <point x="386" y="307"/>
      <point x="386" y="405"/>
      <point x="386" y="503" type="curve"/>
      <point x="299" y="437"/>
      <point x="390" y="503"/>
      <point x="303" y="437" type="curve"/>
      <point x="303" y="339"/>
      <point x="303" y="241"/>
      <point x="303" y="143" type="curve"/>
      <point x="390" y="210"/>
      <point x="299" y="143"/>
    </contour>
    <contour>
      <point x="349" y="278" type="curve"/>
      <point x="369" y="278"/>
      <point x="389" y="278"/>
      <point x="410" y="278" type="curve"/>
      <point x="500" y="278"/>
      <point x="565" y="305"/>
      <point x="565" y="392" type="curve"/>
      <point x="565" y="466"/>
      <point x="507" y="503"/>
      <point x="428" y="503" type="curve"/>
      <point x="416" y="503"/>
      <point x="403" y="503"/>
      <point x="390" y="503" type="curve"/>
      <point x="303" y="437"/>
      <point x="390" y="503"/>
      <point x="303" y="437" type="curve"/>
      <point x="340" y="437"/>
      <point x="376" y="437"/>
      <point x="413" y="437" type="curve"/>
      <point x="452" y="437"/>
      <point x="483" y="425"/>
      <point x="483" y="388" type="curve"/>
      <point x="483" y="354"/>
      <point x="457" y="344"/>
      <point x="422" y="344" type="curve"/>
      <point x="397" y="344"/>
      <point x="373" y="344"/>
      <point x="349" y="344" type="curve"/>
      <point x="349" y="278"/>
      <point x="349" y="344"/>
    </contour>
  </outline>
</glyph>
<glyph name="macron" format="1">
  <advance width="333"/>
  <unicode hex="00AF"/>
  <outline>
    <contour>
      <point x="151" y="593" type="move" name="_top"/>
    </contour>
    <contour>
      <point x="266" y="674" type="curve"/>
      <point x="188" y="674"/>
      <point x="110" y="674"/>
      <point x="31" y="674" type="curve"/>
      <point x="31" y="593"/>
      <point x="31" y="674"/>
      <point x="31" y="593" type="curve"/>
      <point x="110" y="593"/>
      <point x="188" y="593"/>
      <point x="266" y="593" type="curve"/>
      <point x="266" y="674"/>
      <point x="266" y="593"/>
    </contour>
  </outline>
</glyph>
<glyph name="degree" format="1">
  <advance width="523"/>
  <unicode hex="00B0"/>
  <outline>
    <contour>
      <point x="461" y="508" type="curve"/>
      <point x="461" y="631"/>
      <point x="385" y="706"/>
      <point x="262" y="706" type="curve"/>
      <point x="139" y="706"/>
      <point x="62" y="631"/>
      <point x="62" y="509" type="curve"/>
      <point x="132" y="509"/>
      <point x="84" y="509"/>
      <point x="154" y="509" type="curve"/>
      <point x="154" y="580"/>
      <point x="190" y="629"/>
      <point x="260" y="629" type="curve"/>
      <point x="329" y="629"/>
      <point x="368" y="581"/>
      <point x="368" y="508" type="curve"/>
      <point x="368" y="433"/>
      <point x="333" y="382"/>
      <point x="262" y="382" type="curve"/>
      <point x="190" y="382"/>
      <point x="154" y="435"/>
      <point x="154" y="509" type="curve"/>
      <point x="84" y="509"/>
      <point x="132" y="509"/>
      <point x="62" y="509" type="curve"/>
      <point x="62" y="384"/>
      <point x="136" y="305"/>
      <point x="260" y="305" type="curve"/>
      <point x="385" y="305"/>
      <point x="461" y="383"/>
    </contour>
  </outline>
</glyph>
<glyph name="twosuperior" format="1">
  <advance width="514"/>
  <unicode hex="00B2"/>
  <outline>
    <contour>
      <point x="261" y="742" type="move" name="_top"/>
    </contour>
    <contour>
      <point x="258" y="309" type="move" name="_bottom"/>
    </contour>
    <contour>
      <point x="450" y="308" type="curve"/>
      <point x="450" y="352"/>
      <point x="450" y="391"/>
      <point x="450" y="435" type="curve"/>
      <point x="371" y="435"/>
      <point x="456" y="435"/>
      <point x="378" y="435" type="curve"/>
      <point x="378" y="416"/>
      <point x="378" y="402"/>
      <point x="378" y="383" type="curve"/>
      <point x="460" y="313"/>
      <point x="367" y="378"/>
    </contour>
    <contour>
      <point x="70" y="308" type="curve"/>
      <point x="214" y="308"/>
      <point x="337" y="308"/>
      <point x="450" y="308" type="curve"/>
      <point x="367" y="378"/>
      <point x="460" y="313"/>
      <point x="378" y="383" type="curve"/>
      <point x="278" y="383"/>
      <point x="171" y="383"/>
      <point x="70" y="383" type="curve"/>
      <point x="70" y="308"/>
      <point x="70" y="383"/>
    </contour>
    <contour>
      <point x="156" y="610" type="curve"/>
      <point x="182" y="646"/>
      <point x="209" y="668"/>
      <point x="252" y="668" type="curve"/>
      <point x="299" y="668"/>
      <point x="331" y="646"/>
      <point x="331" y="605" type="curve"/>
      <point x="331" y="563"/>
      <point x="300" y="544"/>
      <point x="268" y="517" type="curve"/>
      <point x="203" y="472"/>
      <point x="136" y="427"/>
      <point x="70" y="383" type="curve"/>
      <point x="74" y="310"/>
      <point x="72" y="383"/>
      <point x="76" y="310" type="curve"/>
      <point x="167" y="366"/>
      <point x="253" y="411"/>
      <point x="323" y="460" type="curve"/>
      <point x="380" y="505"/>
      <point x="427" y="537"/>
      <point x="427" y="608" type="curve"/>
      <point x="427" y="698"/>
      <point x="357" y="742"/>
      <point x="261" y="742" type="curve"/>
      <point x="182" y="742"/>
      <point x="124" y="716"/>
      <point x="88" y="647" type="curve"/>
      <point x="156" y="610"/>
      <point x="88" y="647"/>
    </contour>
  </outline>
</glyph>
<glyph name="threesuperior" format="1">
  <advance width="461"/>
  <unicode hex="00B3"/>
  <outline>
    <contour>
      <point x="227" y="741" type="move" name="_top"/>
    </contour>
    <contour>
      <point x="218" y="301" type="move" name="_bottom"/>
    </contour>
    <contour>
      <point x="115" y="631" type="curve"/>
      <point x="143" y="655"/>
      <point x="174" y="668"/>
      <point x="204" y="668" type="curve"/>
      <point x="250" y="668"/>
      <point x="283" y="653"/>
      <point x="283" y="613" type="curve"/>
      <point x="283" y="567"/>
      <point x="221" y="559"/>
      <point x="161" y="556" type="curve"/>
      <point x="161" y="494"/>
      <point x="161" y="556"/>
      <point x="161" y="494" type="curve"/>
      <point x="278" y="496"/>
      <point x="382" y="517"/>
      <point x="382" y="619" type="curve"/>
      <point x="382" y="707"/>
      <point x="310" y="740"/>
      <point x="214" y="740" type="curve"/>
      <point x="157" y="740"/>
      <point x="105" y="718"/>
      <point x="67" y="682" type="curve"/>
      <point x="115" y="631"/>
      <point x="67" y="682"/>
    </contour>
    <contour>
      <point x="64" y="339" type="curve"/>
      <point x="106" y="316"/>
      <point x="148" y="302"/>
      <point x="196" y="302" type="curve"/>
      <point x="311" y="299"/>
      <point x="400" y="331"/>
      <point x="398" y="433" type="curve"/>
      <point x="398" y="542"/>
      <point x="284" y="545"/>
      <point x="161" y="548" type="curve"/>
      <point x="161" y="493"/>
      <point x="161" y="548"/>
      <point x="161" y="493" type="curve"/>
      <point x="233" y="490"/>
      <point x="300" y="483"/>
      <point x="300" y="432" type="curve"/>
      <point x="299" y="387"/>
      <point x="258" y="371"/>
      <point x="205" y="372" type="curve"/>
      <point x="173" y="372"/>
      <point x="142" y="380"/>
      <point x="105" y="395" type="curve"/>
      <point x="64" y="339"/>
      <point x="105" y="395"/>
    </contour>
  </outline>
</glyph>
<glyph name="acute" format="1">
  <advance width="435"/>
  <unicode hex="00B4"/>
  <outline>
    <contour>
      <point x="99" y="590" type="move" name="_top"/>
    </contour>
    <contour>
      <point x="145" y="589" type="line"/>
      <point x="298" y="755" type="line"/>
      <point x="161" y="755" type="line"/>
      <point x="40" y="589" type="line"/>
    </contour>
  </outline>
</glyph>
<glyph name="paragraph" format="1">
  <advance width="822"/>
  <unicode hex="00B6"/>
  <outline>
    <contour>
      <point x="472" y="641" type="curve"/>
      <point x="640" y="641"/>
      <point x="472" y="641"/>
      <point x="640" y="641" type="curve"/>
      <point x="640" y="722"/>
      <point x="640" y="641"/>
      <point x="640" y="722" type="curve"/>
      <point x="584" y="722"/>
      <point x="528" y="722"/>
      <point x="472" y="722" type="curve"/>
      <point x="472" y="641"/>
      <point x="472" y="722"/>
    </contour>
    <contour>
      <point x="472" y="0" type="curve"/>
      <point x="528" y="0"/>
      <point x="584" y="0"/>
      <point x="640" y="0" type="curve"/>
      <point x="640" y="81"/>
      <point x="640" y="0"/>
      <point x="640" y="81" type="curve"/>
      <point x="472" y="81"/>
      <point x="640" y="81"/>
      <point x="472" y="81" type="curve"/>
      <point x="472" y="0"/>
      <point x="472" y="81"/>
    </contour>
    <contour>
      <point x="472" y="81" type="curve"/>
      <point x="310" y="81"/>
      <point x="472" y="81"/>
      <point x="310" y="81" type="curve"/>
      <point x="310" y="0"/>
      <point x="310" y="81"/>
      <point x="310" y="0" type="curve"/>
      <point x="472" y="0"/>
      <point x="418" y="0"/>
      <point x="472" y="0" type="curve"/>
      <point x="472" y="81"/>
      <point x="472" y="0"/>
    </contour>
    <contour>
      <point x="453" y="375" type="curve"/>
      <point x="401" y="352"/>
      <point x="362" y="338"/>
      <point x="305" y="338" type="curve"/>
      <point x="211" y="338"/>
      <point x="148" y="388"/>
      <point x="148" y="480" type="curve"/>
      <point x="148" y="588"/>
      <point x="230" y="641"/>
      <point x="344" y="641" type="curve"/>
      <point x="386" y="641"/>
      <point x="428" y="641"/>
      <point x="469" y="641" type="curve"/>
      <point x="469" y="722"/>
      <point x="469" y="641"/>
      <point x="469" y="722" type="curve"/>
      <point x="423" y="722"/>
      <point x="377" y="722"/>
      <point x="330" y="722" type="curve"/>
      <point x="164" y="722"/>
      <point x="41" y="640"/>
      <point x="41" y="484" type="curve"/>
      <point x="41" y="334"/>
      <point x="156" y="261"/>
      <point x="314" y="259" type="curve"/>
      <point x="378" y="259"/>
      <point x="431" y="278"/>
      <point x="488" y="304" type="curve"/>
      <point x="453" y="375"/>
      <point x="487" y="305"/>
    </contour>
    <contour>
      <point x="526" y="0" type="curve"/>
      <point x="526" y="241"/>
      <point x="526" y="481"/>
      <point x="526" y="722" type="curve"/>
      <point x="420" y="722"/>
      <point x="526" y="722"/>
      <point x="420" y="722" type="curve"/>
      <point x="420" y="481"/>
      <point x="420" y="241"/>
      <point x="420" y="0" type="curve"/>
      <point x="526" y="0"/>
      <point x="420" y="0"/>
    </contour>
    <contour>
      <point x="737" y="0" type="curve"/>
      <point x="737" y="241"/>
      <point x="737" y="481"/>
      <point x="737" y="722" type="curve"/>
      <point x="631" y="722"/>
      <point x="737" y="722"/>
      <point x="631" y="722" type="curve"/>
      <point x="631" y="481"/>
      <point x="631" y="241"/>
      <point x="631" y="0" type="curve"/>
      <point x="737" y="0"/>
      <point x="631" y="0"/>
    </contour>
  </outline>
</glyph>
<glyph name="periodcentered" format="1">
  <advance width="259"/>
  <unicode hex="00B7"/>
  <outline>
    <contour>
      <point x="191" y="440" type="curve"/>
      <point x="191" y="476"/>
      <point x="164" y="494"/>
      <point x="128" y="494" type="curve"/>
      <point x="92" y="494"/>
      <point x="68" y="475"/>
      <point x="68" y="440" type="curve"/>
      <point x="186" y="440"/>
      <point x="73" y="440"/>
      <point x="191" y="440" type="curve"/>
      <point x="191" y="403"/>
      <point x="165" y="387"/>
      <point x="128" y="387" type="curve"/>
      <point x="92" y="387"/>
      <point x="68" y="405"/>
      <point x="68" y="440" type="curve"/>
      <point x="186" y="440"/>
      <point x="73" y="440"/>
    </contour>
  </outline>
</glyph>
<glyph name="onesuperior" format="1">
  <advance width="399"/>
  <unicode hex="00B9"/>
  <outline>
    <contour>
      <point x="221" y="732" type="move" name="_top"/>
    </contour>
    <contour>
      <point x="229" y="310" type="move" name="_bottom"/>
    </contour>
    <contour>
      <point x="179" y="309" type="curve"/>
      <point x="231" y="309"/>
      <point x="285" y="309"/>
      <point x="337" y="309" type="curve"/>
      <point x="337" y="383"/>
      <point x="337" y="306"/>
      <point x="337" y="380" type="curve"/>
      <point x="318" y="380"/>
      <point x="296" y="380"/>
      <point x="277" y="380" type="curve"/>
      <point x="179" y="306"/>
      <point x="277" y="383"/>
    </contour>
    <contour>
      <point x="277" y="380" type="curve"/>
      <point x="223" y="380"/>
      <point x="168" y="380"/>
      <point x="114" y="380" type="curve"/>
      <point x="114" y="306"/>
      <point x="114" y="383"/>
      <point x="114" y="309" type="curve"/>
      <point x="136" y="309"/>
      <point x="158" y="309"/>
      <point x="179" y="309" type="curve"/>
      <point x="277" y="383"/>
      <point x="179" y="306"/>
    </contour>
    <contour>
      <point x="102" y="575" type="line"/>
      <point x="276" y="730" type="line"/>
      <point x="179" y="733" type="line"/>
      <point x="54" y="630" type="line"/>
    </contour>
    <contour>
      <point x="277" y="380" type="curve"/>
      <point x="277" y="733" type="line"/>
      <point x="179" y="733" type="line"/>
      <point x="179" y="309" type="line"/>
      <point x="277" y="383"/>
      <point x="179" y="306"/>
    </contour>
  </outline>
</glyph>
<glyph name="ordmasculine" format="1">
  <advance width="475"/>
  <unicode hex="00BA"/>
  <outline>
    <contour>
      <point x="128" y="601" type="curve"/>
      <point x="128" y="671"/>
      <point x="164" y="719"/>
      <point x="234" y="719" type="curve"/>
      <point x="306" y="719"/>
      <point x="345" y="671"/>
      <point x="345" y="600" type="curve"/>
      <point x="345" y="526"/>
      <point x="308" y="478"/>
      <point x="241" y="478" type="curve"/>
      <point x="166" y="478"/>
      <point x="128" y="525"/>
      <point x="128" y="601" type="curve"/>
      <point x="85" y="601"/>
      <point x="99" y="601"/>
      <point x="56" y="601" type="curve"/>
      <point x="56" y="487"/>
      <point x="125" y="421"/>
      <point x="238" y="421" type="curve"/>
      <point x="349" y="421"/>
      <point x="418" y="486"/>
      <point x="418" y="600" type="curve"/>
      <point x="418" y="709"/>
      <point x="351" y="776"/>
      <point x="238" y="776" type="curve"/>
      <point x="124" y="776"/>
      <point x="56" y="710"/>
      <point x="56" y="601" type="curve"/>
      <point x="99" y="601"/>
      <point x="85" y="601"/>
    </contour>
  </outline>
</glyph>
<glyph name="guillemotright" format="1">
  <advance width="612"/>
  <unicode hex="00BB"/>
  <outline>
    <contour>
      <point x="327" y="454" type="curve"/>
      <point x="365" y="432"/>
      <point x="516" y="353"/>
      <point x="554" y="331" type="curve"/>
      <point x="554" y="242"/>
      <point x="554" y="325"/>
      <point x="554" y="236" type="curve"/>
      <point x="516" y="259"/>
      <point x="365" y="340"/>
      <point x="327" y="363" type="curve"/>
      <point x="327" y="451"/>
      <point x="327" y="366"/>
    </contour>
    <contour>
      <point x="327" y="206" type="curve"/>
      <point x="365" y="228"/>
      <point x="516" y="309"/>
      <point x="554" y="331" type="curve"/>
      <point x="554" y="242"/>
      <point x="554" y="325"/>
      <point x="554" y="236" type="curve"/>
      <point x="516" y="213"/>
      <point x="365" y="136"/>
      <point x="327" y="114" type="curve"/>
      <point x="327" y="203"/>
      <point x="327" y="117"/>
    </contour>
    <contour>
      <point x="82" y="454" type="curve"/>
      <point x="120" y="432"/>
      <point x="271" y="353"/>
      <point x="310" y="331" type="curve"/>
      <point x="310" y="242"/>
      <point x="310" y="325"/>
      <point x="310" y="236" type="curve"/>
      <point x="271" y="259"/>
      <point x="120" y="340"/>
      <point x="82" y="363" type="curve"/>
      <point x="82" y="451"/>
      <point x="82" y="366"/>
    </contour>
    <contour>
      <point x="82" y="206" type="curve"/>
      <point x="120" y="228"/>
      <point x="271" y="309"/>
      <point x="310" y="331" type="curve"/>
      <point x="310" y="242"/>
      <point x="310" y="325"/>
      <point x="310" y="236" type="curve"/>
      <point x="271" y="213"/>
      <point x="120" y="136"/>
      <point x="82" y="114" type="curve"/>
      <point x="82" y="203"/>
      <point x="82" y="117"/>
    </contour>
  </outline>
</glyph>
<glyph name="onequarter" format="1">
  <advance width="1027"/>
  <unicode hex="00BC"/>
  <outline>
    <contour>
      <point x="349" y="-54" type="line"/>
      <point x="793" y="724" type="line"/>
      <point x="694" y="724" type="line"/>
      <point x="250" y="-54" type="line"/>
    </contour>
    <contour>
      <point x="163" y="301" type="curve"/>
      <point x="215" y="301"/>
      <point x="269" y="301"/>
      <point x="321" y="301" type="curve"/>
      <point x="321" y="375"/>
      <point x="321" y="297"/>
      <point x="321" y="372" type="curve"/>
      <point x="301" y="372"/>
      <point x="280" y="372"/>
      <point x="260" y="372" type="curve"/>
      <point x="163" y="297"/>
      <point x="260" y="375"/>
    </contour>
    <contour>
      <point x="261" y="372" type="curve"/>
      <point x="207" y="372"/>
      <point x="152" y="372"/>
      <point x="98" y="372" type="curve"/>
      <point x="98" y="297"/>
      <point x="98" y="375"/>
      <point x="98" y="301" type="curve"/>
      <point x="119" y="301"/>
      <point x="141" y="301"/>
      <point x="163" y="301" type="curve"/>
      <point x="261" y="375"/>
      <point x="163" y="297"/>
    </contour>
    <contour>
      <point x="86" y="568" type="line"/>
      <point x="260" y="722" type="line"/>
      <point x="163" y="725" type="line"/>
      <point x="38" y="622" type="line"/>
    </contour>
    <contour>
      <point x="261" y="372" type="curve"/>
      <point x="261" y="725" type="line"/>
      <point x="163" y="725" type="line"/>
      <point x="163" y="301" type="line"/>
      <point x="261" y="375"/>
      <point x="163" y="297"/>
    </contour>
    <contour>
      <point x="990" y="138" type="line"/>
      <point x="595" y="138" type="line"/>
      <point x="595" y="66" type="line"/>
      <point x="990" y="66" type="line"/>
    </contour>
    <contour>
      <point x="623" y="74" type="line"/>
      <point x="882" y="373" type="line"/>
      <point x="806" y="386" type="line"/>
      <point x="595" y="138" type="line"/>
    </contour>
    <contour>
      <point x="904" y="-56" type="line"/>
      <point x="904" y="386" type="line"/>
      <point x="806" y="386" type="line"/>
      <point x="806" y="-56" type="line"/>
    </contour>
    <contour>
      <point x="855" y="11" type="line"/>
      <point x="741" y="11" type="line"/>
      <point x="741" y="-57" type="line"/>
      <point x="855" y="-57" type="line"/>
    </contour>
    <contour>
      <point x="855" y="-57" type="line"/>
      <point x="967" y="-57" type="line"/>
      <point x="967" y="11" type="line"/>
      <point x="855" y="11" type="line"/>
    </contour>
  </outline>
</glyph>
<glyph name="threequarters" format="1">
  <advance width="1035"/>
  <unicode hex="00BE"/>
  <outline>
    <contour>
      <point x="367" y="-54" type="line"/>
      <point x="811" y="724" type="line"/>
      <point x="712" y="724" type="line"/>
      <point x="268" y="-54" type="line"/>
    </contour>
    <contour>
      <point x="95" y="614" type="curve"/>
      <point x="124" y="637"/>
      <point x="155" y="650"/>
      <point x="185" y="650" type="curve"/>
      <point x="231" y="650"/>
      <point x="264" y="636"/>
      <point x="264" y="597" type="curve"/>
      <point x="264" y="550"/>
      <point x="202" y="542"/>
      <point x="141" y="539" type="curve"/>
      <point x="141" y="477"/>
      <point x="141" y="539"/>
      <point x="141" y="477" type="curve"/>
      <point x="259" y="479"/>
      <point x="362" y="500"/>
      <point x="362" y="602" type="curve"/>
      <point x="362" y="690"/>
      <point x="290" y="723"/>
      <point x="195" y="723" type="curve"/>
      <point x="138" y="723"/>
      <point x="85" y="701"/>
      <point x="47" y="665" type="curve"/>
      <point x="95" y="614"/>
      <point x="47" y="665"/>
    </contour>
    <contour>
      <point x="44" y="321" type="curve"/>
      <point x="86" y="299"/>
      <point x="128" y="285"/>
      <point x="176" y="285" type="curve"/>
      <point x="291" y="282"/>
      <point x="380" y="315"/>
      <point x="378" y="417" type="curve"/>
      <point x="378" y="525"/>
      <point x="264" y="528"/>
      <point x="141" y="530" type="curve"/>
      <point x="141" y="475"/>
      <point x="141" y="530"/>
      <point x="141" y="475" type="curve"/>
      <point x="214" y="473"/>
      <point x="280" y="465"/>
      <point x="280" y="415" type="curve"/>
      <point x="280" y="370"/>
      <point x="238" y="354"/>
      <point x="185" y="356" type="curve"/>
      <point x="153" y="356"/>
      <point x="122" y="362"/>
      <point x="86" y="379" type="curve"/>
      <point x="44" y="321"/>
      <point x="86" y="379"/>
    </contour>
    <contour>
      <point x="1002" y="138" type="line"/>
      <point x="607" y="138" type="line"/>
      <point x="607" y="66" type="line"/>
      <point x="1002" y="66" type="line"/>
    </contour>
    <contour>
      <point x="635" y="74" type="line"/>
      <point x="893" y="373" type="line"/>
      <point x="818" y="386" type="line"/>
      <point x="607" y="138" type="line"/>
    </contour>
    <contour>
      <point x="916" y="-56" type="line"/>
      <point x="916" y="386" type="line"/>
      <point x="818" y="386" type="line"/>
      <point x="818" y="-56" type="line"/>
    </contour>
    <contour>
      <point x="867" y="11" type="line"/>
      <point x="753" y="11" type="line"/>
      <point x="753" y="-57" type="line"/>
      <point x="867" y="-57" type="line"/>
    </contour>
    <contour>
      <point x="867" y="-57" type="line"/>
      <point x="978" y="-57" type="line"/>
      <point x="978" y="11" type="line"/>
      <point x="867" y="11" type="line"/>
    </contour>
  </outline>
</glyph>
<glyph name="questiondown" format="1">
  <advance width="553"/>
  <unicode hex="00BF"/>
  <outline>
    <contour>
      <point x="357" y="351" type="curve"/>
      <point x="357" y="388"/>
      <point x="357" y="458"/>
      <point x="357" y="495" type="curve"/>
      <point x="254" y="495"/>
      <point x="357" y="495"/>
      <point x="254" y="495" type="curve"/>
      <point x="254" y="458"/>
      <point x="254" y="388"/>
      <point x="254" y="351" type="curve"/>
      <point x="357" y="351"/>
      <point x="254" y="351"/>
    </contour>
    <contour>
      <point x="451" y="126" type="line"/>
      <point x="417" y="91"/>
      <point x="366" y="63"/>
      <point x="305" y="63" type="curve"/>
      <point x="216" y="63"/>
      <point x="155" y="110"/>
      <point x="155" y="197" type="curve"/>
      <point x="155" y="296"/>
      <point x="234" y="351"/>
      <point x="346" y="351" type="curve"/>
      <point x="346" y="383"/>
      <point x="346" y="399"/>
      <point x="346" y="431" type="curve"/>
      <point x="175" y="431"/>
      <point x="53" y="348"/>
      <point x="53" y="197" type="curve"/>
      <point x="53" y="56"/>
      <point x="157" y="-23"/>
      <point x="300" y="-23" type="curve"/>
      <point x="387" y="-23"/>
      <point x="454" y="7"/>
      <point x="508" y="63" type="curve"/>
    </contour>
    <contour>
      <point x="244" y="687" type="curve"/>
      <point x="244" y="652"/>
      <point x="270" y="634"/>
      <point x="305" y="634" type="curve"/>
      <point x="341" y="634"/>
      <point x="365" y="653"/>
      <point x="365" y="687" type="curve"/>
      <point x="244" y="687"/>
      <point x="365" y="687"/>
      <point x="244" y="687" type="curve"/>
      <point x="244" y="723"/>
      <point x="269" y="739"/>
      <point x="306" y="739" type="curve"/>
      <point x="342" y="739"/>
      <point x="365" y="722"/>
      <point x="365" y="687" type="curve"/>
      <point x="244" y="687"/>
      <point x="365" y="687"/>
    </contour>
  </outline>
</glyph>
<glyph name="Atilde" format="1">
  <advance width="839"/>
  <unicode hex="00C3"/>
  <outline>
    <contour>
      <point x="123" y="81" type="curve"/>
      <point x="-17" y="81"/>
      <point x="129" y="81"/>
      <point x="-11" y="81" type="curve"/>
      <point x="-11" y="0"/>
      <point x="-11" y="81"/>
      <point x="-11" y="0" type="curve"/>
      <point x="36" y="0"/>
      <point x="77" y="0"/>
      <point x="122" y="0" type="curve"/>
      <point x="123" y="81"/>
      <point x="122" y="0"/>
    </contour>
    <contour>
      <point x="123" y="0" type="curve"/>
      <point x="180" y="0"/>
      <point x="119" y="0"/>
      <point x="293" y="0" type="curve"/>
      <point x="293" y="81"/>
      <point x="293" y="0"/>
      <point x="293" y="81" type="curve"/>
      <point x="119" y="81"/>
      <point x="297" y="81"/>
      <point x="123" y="81" type="curve"/>
      <point x="123" y="0"/>
      <point x="123" y="81"/>
    </contour>
    <contour>
      <point x="693" y="0" type="curve"/>
      <point x="739" y="0"/>
      <point x="779" y="0"/>
      <point x="826" y="0" type="curve"/>
      <point x="826" y="81"/>
      <point x="826" y="0"/>
      <point x="826" y="81" type="curve"/>
      <point x="686" y="81"/>
      <point x="832" y="81"/>
      <point x="693" y="81" type="curve"/>
      <point x="693" y="0"/>
      <point x="693" y="81"/>
    </contour>
    <contour>
      <point x="693" y="81" type="curve"/>
      <point x="519" y="81"/>
      <point x="696" y="81"/>
      <point x="522" y="81" type="curve"/>
      <point x="522" y="0"/>
      <point x="522" y="81"/>
      <point x="522" y="0" type="curve"/>
      <point x="581" y="0"/>
      <point x="635" y="0"/>
      <point x="693" y="0" type="curve"/>
      <point x="693" y="81"/>
      <point x="693" y="0"/>
    </contour>
    <contour>
      <point x="585" y="296" type="curve"/>
      <point x="474" y="296"/>
      <point x="361" y="296"/>
      <point x="250" y="296" type="curve"/>
      <point x="206" y="210"/>
      <point x="250" y="296"/>
      <point x="206" y="210" type="curve"/>
      <point x="344" y="210"/>
      <point x="482" y="210"/>
      <point x="619" y="210" type="curve"/>
      <point x="585" y="296"/>
      <point x="619" y="210"/>
    </contour>
    <contour>
      <point x="761" y="0" type="curve"/>
      <point x="667" y="242"/>
      <point x="567" y="480"/>
      <point x="473" y="722" type="curve"/>
      <point x="376" y="722"/>
      <point x="473" y="722"/>
      <point x="376" y="722" type="curve"/>
      <point x="468" y="482"/>
      <point x="556" y="240"/>
      <point x="649" y="0" type="curve"/>
      <point x="761" y="0"/>
      <point x="649" y="0"/>
    </contour>
    <contour>
      <point x="168" y="0" type="curve"/>
      <point x="271" y="240"/>
      <point x="368" y="482"/>
      <point x="471" y="722" type="curve"/>
      <point x="375" y="722"/>
      <point x="471" y="722"/>
      <point x="375" y="722" type="curve"/>
      <point x="269" y="480"/>
      <point x="157" y="242"/>
      <point x="52" y="0" type="curve"/>
      <point x="168" y="0"/>
      <point x="52" y="0"/>
    </contour>
    <contour>
      <point x="573" y="959" type="curve"/>
      <point x="559" y="918"/>
      <point x="543" y="886"/>
      <point x="511" y="886" type="curve"/>
      <point x="477" y="886"/>
      <point x="458" y="897"/>
      <point x="433" y="920" type="curve"/>
      <point x="398" y="950"/>
      <point x="373" y="964"/>
      <point x="329" y="964" type="curve"/>
      <point x="254" y="964"/>
      <point x="214" y="910"/>
      <point x="190" y="834" type="curve"/>
      <point x="269" y="794"/>
      <point x="191" y="834"/>
      <point x="269" y="794" type="curve"/>
      <point x="287" y="843"/>
      <point x="305" y="870"/>
      <point x="340" y="870" type="curve"/>
      <point x="372" y="870"/>
      <point x="388" y="856"/>
      <point x="409" y="836" type="curve"/>
      <point x="448" y="805"/>
      <point x="474" y="790"/>
      <point x="522" y="790" type="curve"/>
      <point x="598" y="790"/>
      <point x="632" y="847"/>
      <point x="658" y="921" type="curve"/>
      <point x="574" y="959"/>
      <point x="657" y="921"/>
    </contour>
  </outline>
</glyph>
<glyph name="Adieresis" format="1">
  <advance width="839"/>
  <unicode hex="00C4"/>
  <outline>
    <contour>
      <point x="123" y="81" type="curve"/>
      <point x="-17" y="81"/>
      <point x="129" y="81"/>
      <point x="-11" y="81" type="curve"/>
      <point x="-11" y="0"/>
      <point x="-11" y="81"/>
      <point x="-11" y="0" type="curve"/>
      <point x="36" y="0"/>
      <point x="77" y="0"/>
      <point x="122" y="0" type="curve"/>
      <point x="123" y="81"/>
      <point x="122" y="0"/>
    </contour>
    <contour>
      <point x="123" y="0" type="curve"/>
      <point x="180" y="0"/>
      <point x="119" y="0"/>
      <point x="293" y="0" type="curve"/>
      <point x="293" y="81"/>
      <point x="293" y="0"/>
      <point x="293" y="81" type="curve"/>
      <point x="119" y="81"/>
      <point x="297" y="81"/>
      <point x="123" y="81" type="curve"/>
      <point x="123" y="0"/>
      <point x="123" y="81"/>
    </contour>
    <contour>
      <point x="693" y="0" type="curve"/>
      <point x="739" y="0"/>
      <point x="779" y="0"/>
      <point x="826" y="0" type="curve"/>
      <point x="826" y="81"/>
      <point x="826" y="0"/>
      <point x="826" y="81" type="curve"/>
      <point x="686" y="81"/>
      <point x="832" y="81"/>
      <point x="693" y="81" type="curve"/>
      <point x="693" y="0"/>
      <point x="693" y="81"/>
    </contour>
    <contour>
      <point x="693" y="81" type="curve"/>
      <point x="519" y="81"/>
      <point x="696" y="81"/>
      <point x="522" y="81" type="curve"/>
      <point x="522" y="0"/>
      <point x="522" y="81"/>
      <point x="522" y="0" type="curve"/>
      <point x="581" y="0"/>
      <point x="635" y="0"/>
      <point x="693" y="0" type="curve"/>
      <point x="693" y="81"/>
      <point x="693" y="0"/>
    </contour>
    <contour>
      <point x="585" y="296" type="curve"/>
      <point x="474" y="296"/>
      <point x="361" y="296"/>
      <point x="250" y="296" type="curve"/>
      <point x="206" y="210"/>
      <point x="250" y="296"/>
      <point x="206" y="210" type="curve"/>
      <point x="344" y="210"/>
      <point x="482" y="210"/>
      <point x="619" y="210" type="curve"/>
      <point x="585" y="296"/>
      <point x="619" y="210"/>
    </contour>
    <contour>
      <point x="761" y="0" type="curve"/>
      <point x="667" y="242"/>
      <point x="567" y="480"/>
      <point x="473" y="722" type="curve"/>
      <point x="376" y="722"/>
      <point x="473" y="722"/>
      <point x="376" y="722" type="curve"/>
      <point x="468" y="482"/>
      <point x="556" y="240"/>
      <point x="649" y="0" type="curve"/>
      <point x="761" y="0"/>
      <point x="649" y="0"/>
    </contour>
    <contour>
      <point x="168" y="0" type="curve"/>
      <point x="271" y="240"/>
      <point x="368" y="482"/>
      <point x="471" y="722" type="curve"/>
      <point x="375" y="722"/>
      <point x="471" y="722"/>
      <point x="375" y="722" type="curve"/>
      <point x="269" y="480"/>
      <point x="157" y="242"/>
      <point x="52" y="0" type="curve"/>
      <point x="168" y="0"/>
      <point x="52" y="0"/>
    </contour>
    <contour>
      <point x="390" y="846" type="curve"/>
      <point x="390" y="882"/>
      <point x="363" y="900"/>
      <point x="327" y="900" type="curve"/>
      <point x="291" y="900"/>
      <point x="267" y="880"/>
      <point x="267" y="846" type="curve"/>
      <point x="385" y="846"/>
      <point x="272" y="846"/>
      <point x="390" y="846" type="curve"/>
      <point x="390" y="809"/>
      <point x="364" y="793"/>
      <point x="327" y="793" type="curve"/>
      <point x="291" y="793"/>
      <point x="267" y="811"/>
      <point x="267" y="846" type="curve"/>
      <point x="385" y="846"/>
      <point x="272" y="846"/>
    </contour>
    <contour>
      <point x="577" y="846" type="curve"/>
      <point x="577" y="882"/>
      <point x="551" y="900"/>
      <point x="515" y="900" type="curve"/>
      <point x="479" y="900"/>
      <point x="455" y="880"/>
      <point x="455" y="846" type="curve"/>
      <point x="573" y="846"/>
      <point x="459" y="846"/>
      <point x="577" y="846" type="curve"/>
      <point x="577" y="809"/>
      <point x="551" y="793"/>
      <point x="515" y="793" type="curve"/>
      <point x="479" y="793"/>
      <point x="455" y="811"/>
      <point x="455" y="846" type="curve"/>
      <point x="573" y="846"/>
      <point x="459" y="846"/>
    </contour>
  </outline>
</glyph>
<glyph name="Aring" format="1">
  <advance width="839"/>
  <unicode hex="00C5"/>
  <outline>
    <contour>
      <point x="123" y="81" type="curve"/>
      <point x="-17" y="81"/>
      <point x="129" y="81"/>
      <point x="-11" y="81" type="curve"/>
      <point x="-11" y="0"/>
      <point x="-11" y="81"/>
      <point x="-11" y="0" type="curve"/>
      <point x="36" y="0"/>
      <point x="77" y="0"/>
      <point x="122" y="0" type="curve"/>
      <point x="123" y="81"/>
      <point x="122" y="0"/>
    </contour>
    <contour>
      <point x="123" y="0" type="curve"/>
      <point x="180" y="0"/>
      <point x="119" y="0"/>
      <point x="293" y="0" type="curve"/>
      <point x="293" y="81"/>
      <point x="293" y="0"/>
      <point x="293" y="81" type="curve"/>
      <point x="119" y="81"/>
      <point x="297" y="81"/>
      <point x="123" y="81" type="curve"/>
      <point x="123" y="0"/>
      <point x="123" y="81"/>
    </contour>
    <contour>
      <point x="693" y="0" type="curve"/>
      <point x="739" y="0"/>
      <point x="779" y="0"/>
      <point x="826" y="0" type="curve"/>
      <point x="826" y="81"/>
      <point x="826" y="0"/>
      <point x="826" y="81" type="curve"/>
      <point x="686" y="81"/>
      <point x="832" y="81"/>
      <point x="693" y="81" type="curve"/>
      <point x="693" y="0"/>
      <point x="693" y="81"/>
    </contour>
    <contour>
      <point x="693" y="81" type="curve"/>
      <point x="519" y="81"/>
      <point x="696" y="81"/>
      <point x="522" y="81" type="curve"/>
      <point x="522" y="0"/>
      <point x="522" y="81"/>
      <point x="522" y="0" type="curve"/>
      <point x="581" y="0"/>
      <point x="635" y="0"/>
      <point x="693" y="0" type="curve"/>
      <point x="693" y="81"/>
      <point x="693" y="0"/>
    </contour>
    <contour>
      <point x="585" y="296" type="curve"/>
      <point x="474" y="296"/>
      <point x="361" y="296"/>
      <point x="250" y="296" type="curve"/>
      <point x="206" y="210"/>
      <point x="250" y="296"/>
      <point x="206" y="210" type="curve"/>
      <point x="344" y="210"/>
      <point x="482" y="210"/>
      <point x="619" y="210" type="curve"/>
      <point x="585" y="296"/>
      <point x="619" y="210"/>
    </contour>
    <contour>
      <point x="761" y="0" type="curve"/>
      <point x="667" y="242"/>
      <point x="567" y="480"/>
      <point x="473" y="722" type="curve"/>
      <point x="376" y="722"/>
      <point x="473" y="722"/>
      <point x="376" y="722" type="curve"/>
      <point x="468" y="482"/>
      <point x="556" y="240"/>
      <point x="649" y="0" type="curve"/>
      <point x="761" y="0"/>
      <point x="649" y="0"/>
    </contour>
    <contour>
      <point x="168" y="0" type="curve"/>
      <point x="271" y="240"/>
      <point x="368" y="482"/>
      <point x="471" y="722" type="curve"/>
      <point x="375" y="722"/>
      <point x="471" y="722"/>
      <point x="375" y="722" type="curve"/>
      <point x="269" y="480"/>
      <point x="157" y="242"/>
      <point x="52" y="0" type="curve"/>
      <point x="168" y="0"/>
      <point x="52" y="0"/>
    </contour>
    <contour>
      <point x="266" y="931" type="curve"/>
      <point x="266" y="842"/>
      <point x="330" y="794"/>
      <point x="422" y="794" type="curve"/>
      <point x="517" y="794"/>
      <point x="583" y="841"/>
      <point x="583" y="931" type="curve"/>
      <point x="583" y="1022"/>
      <point x="516" y="1069"/>
      <point x="420" y="1069" type="curve"/>
      <point x="328" y="1069"/>
      <point x="266" y="1020"/>
      <point x="266" y="931" type="curve"/>
      <point x="357" y="931"/>
      <point x="263" y="931"/>
      <point x="354" y="931" type="curve"/>
      <point x="354" y="973"/>
      <point x="377" y="997"/>
      <point x="420" y="997" type="curve"/>
      <point x="465" y="997"/>
      <point x="492" y="976"/>
      <point x="492" y="931" type="curve"/>
      <point x="492" y="888"/>
      <point x="467" y="865"/>
      <point x="422" y="865" type="curve"/>
      <point x="379" y="865"/>
      <point x="354" y="889"/>
      <point x="354" y="931" type="curve"/>
      <point x="263" y="931"/>
      <point x="357" y="931"/>
    </contour>
  </outline>
</glyph>
<glyph name="AE" format="1">
  <advance width="1026"/>
  <unicode hex="00C6"/>
  <outline>
    <contour>
      <point x="115" y="81" type="curve"/>
      <point x="-7" y="81"/>
      <point x="116" y="81"/>
      <point x="-6" y="81" type="curve"/>
      <point x="-6" y="0"/>
      <point x="-6" y="81"/>
      <point x="-6" y="0" type="curve"/>
      <point x="35" y="0"/>
      <point x="74" y="0"/>
      <point x="115" y="0" type="curve"/>
      <point x="115" y="81"/>
      <point x="115" y="0"/>
    </contour>
    <contour>
      <point x="115" y="0" type="curve"/>
      <point x="176" y="0"/>
      <point x="112" y="0"/>
      <point x="296" y="0" type="curve"/>
      <point x="296" y="81"/>
      <point x="296" y="0"/>
      <point x="296" y="81" type="curve"/>
      <point x="112" y="81"/>
      <point x="299" y="81"/>
      <point x="115" y="81" type="curve"/>
      <point x="115" y="0"/>
      <point x="115" y="81"/>
    </contour>
    <contour>
      <point x="521" y="277" type="curve"/>
      <point x="409" y="277"/>
      <point x="360" y="277"/>
      <point x="248" y="277" type="curve"/>
      <point x="204" y="190"/>
      <point x="248" y="277"/>
      <point x="204" y="190" type="curve"/>
      <point x="342" y="190"/>
      <point x="418" y="190"/>
      <point x="555" y="190" type="curve"/>
      <point x="521" y="277"/>
      <point x="555" y="190"/>
    </contour>
    <contour>
      <point x="161" y="0" type="curve"/>
      <point x="603" y="722" type="line"/>
      <point x="506" y="722"/>
      <point x="601" y="722"/>
      <point x="505" y="722" type="curve"/>
      <point x="44" y="0" type="line"/>
      <point x="160" y="0"/>
      <point x="44" y="0"/>
    </contour>
    <contour>
      <point x="981" y="41" type="curve"/>
      <point x="981" y="161"/>
      <point x="981" y="39"/>
      <point x="981" y="159" type="curve"/>
      <point x="898" y="159"/>
      <point x="981" y="159"/>
      <point x="898" y="159" type="curve"/>
      <point x="898" y="39"/>
      <point x="898" y="161"/>
      <point x="898" y="41" type="curve"/>
      <point x="981" y="41"/>
      <point x="898" y="41"/>
    </contour>
    <contour>
      <point x="862" y="681" type="curve"/>
      <point x="862" y="561"/>
      <point x="862" y="683"/>
      <point x="862" y="563" type="curve"/>
      <point x="946" y="563"/>
      <point x="862" y="563"/>
      <point x="946" y="563" type="curve"/>
      <point x="946" y="683"/>
      <point x="946" y="561"/>
      <point x="946" y="681" type="curve"/>
      <point x="862" y="681"/>
      <point x="946" y="681"/>
    </contour>
    <contour>
      <point x="535" y="81" type="curve"/>
      <point x="384" y="81"/>
      <point x="539" y="81"/>
      <point x="387" y="81" type="curve"/>
      <point x="387" y="0"/>
      <point x="387" y="81"/>
      <point x="387" y="0" type="curve"/>
      <point x="437" y="0"/>
      <point x="485" y="0"/>
      <point x="535" y="0" type="curve"/>
      <point x="535" y="81"/>
      <point x="535" y="0"/>
    </contour>
    <contour>
      <point x="535" y="722" type="curve"/>
      <point x="485" y="722"/>
      <point x="437" y="722"/>
      <point x="387" y="722" type="curve"/>
      <point x="387" y="641"/>
      <point x="387" y="722"/>
      <point x="387" y="641" type="curve"/>
      <point x="539" y="641"/>
      <point x="384" y="641"/>
      <point x="535" y="641" type="curve"/>
      <point x="535" y="722"/>
      <point x="535" y="641"/>
    </contour>
    <contour>
      <point x="539" y="332" type="curve"/>
      <point x="652" y="332"/>
      <point x="767" y="332"/>
      <point x="880" y="332" type="curve"/>
      <point x="880" y="414"/>
      <point x="880" y="332"/>
      <point x="880" y="414" type="curve"/>
      <point x="767" y="414"/>
      <point x="652" y="414"/>
      <point x="539" y="414" type="curve"/>
      <point x="539" y="332"/>
      <point x="539" y="414"/>
    </contour>
    <contour>
      <point x="523" y="641" type="curve"/>
      <point x="664" y="641"/>
      <point x="805" y="641"/>
      <point x="946" y="641" type="curve"/>
      <point x="946" y="722"/>
      <point x="946" y="641"/>
      <point x="946" y="722" type="curve"/>
      <point x="805" y="722"/>
      <point x="664" y="722"/>
      <point x="523" y="722" type="curve"/>
      <point x="523" y="641"/>
      <point x="523" y="722"/>
    </contour>
    <contour>
      <point x="588" y="0" type="curve"/>
      <point x="588" y="722" type="line"/>
      <point x="481" y="722"/>
      <point x="588" y="722"/>
      <point x="481" y="722" type="curve"/>
      <point x="481" y="481"/>
      <point x="481" y="241"/>
      <point x="481" y="0" type="curve"/>
      <point x="588" y="0"/>
      <point x="481" y="0"/>
    </contour>
    <contour>
      <point x="523" y="0" type="curve"/>
      <point x="676" y="0"/>
      <point x="828" y="0"/>
      <point x="981" y="0" type="curve"/>
      <point x="981" y="81"/>
      <point x="981" y="0"/>
      <point x="981" y="81" type="curve"/>
      <point x="828" y="81"/>
      <point x="676" y="81"/>
      <point x="523" y="81" type="curve"/>
      <point x="523" y="0"/>
      <point x="523" y="81"/>
    </contour>
  </outline>
</glyph>
<glyph name="Ccedilla" format="1">
  <advance width="752"/>
  <unicode hex="00C7"/>
  <outline>
    <contour>
      <point x="609" y="654" type="curve"/>
      <point x="609" y="534"/>
      <point x="609" y="638"/>
      <point x="609" y="518" type="curve"/>
      <point x="693" y="518"/>
      <point x="609" y="518"/>
      <point x="693" y="518" type="curve"/>
      <point x="693" y="638"/>
      <point x="693" y="534"/>
      <point x="693" y="654" type="curve"/>
      <point x="609" y="654"/>
      <point x="693" y="654"/>
    </contour>
    <contour>
      <point x="693" y="654" type="curve"/>
      <point x="616" y="696"/>
      <point x="531" y="727"/>
      <point x="435" y="727" type="curve"/>
      <point x="198" y="727"/>
      <point x="59" y="586"/>
      <point x="59" y="344" type="curve"/>
      <point x="59" y="122"/>
      <point x="189" y="-5"/>
      <point x="411" y="-5" type="curve"/>
      <point x="537" y="-5"/>
      <point x="616" y="26"/>
      <point x="704" y="94" type="curve"/>
      <point x="652" y="160"/>
      <point x="703" y="94"/>
      <point x="652" y="160" type="curve"/>
      <point x="573" y="105"/>
      <point x="510" y="81"/>
      <point x="416" y="81" type="curve"/>
      <point x="253" y="81"/>
      <point x="166" y="182"/>
      <point x="166" y="348" type="curve"/>
      <point x="166" y="529"/>
      <point x="257" y="642"/>
      <point x="430" y="642" type="curve"/>
      <point x="506" y="642"/>
      <point x="575" y="623"/>
      <point x="635" y="590" type="curve"/>
      <point x="693" y="654"/>
      <point x="635" y="590"/>
    </contour>
    <contour>
      <point x="368" y="61" type="curve"/>
      <point x="353" y="38"/>
      <point x="307" y="-37"/>
      <point x="292" y="-61" type="curve"/>
      <point x="365" y="-126"/>
      <point x="292" y="-61"/>
      <point x="365" y="-126" type="curve"/>
      <point x="381" y="-99"/>
      <point x="433" y="-22"/>
      <point x="449" y="5" type="curve"/>
      <point x="368" y="61"/>
      <point x="449" y="5"/>
    </contour>
    <contour>
      <point x="365" y="-126" type="curve"/>
      <point x="374" y="-120"/>
      <point x="381" y="-117"/>
      <point x="391" y="-117" type="curve"/>
      <point x="409" y="-117"/>
      <point x="420" y="-126"/>
      <point x="420" y="-144" type="curve"/>
      <point x="420" y="-166"/>
      <point x="402" y="-174"/>
      <point x="377" y="-174" type="curve"/>
      <point x="353" y="-174"/>
      <point x="333" y="-169"/>
      <point x="306" y="-156" type="curve"/>
      <point x="272" y="-217"/>
      <point x="306" y="-156"/>
      <point x="272" y="-217" type="curve"/>
      <point x="306" y="-234"/>
      <point x="334" y="-242"/>
      <point x="372" y="-242" type="curve"/>
      <point x="449" y="-242"/>
      <point x="506" y="-213"/>
      <point x="506" y="-142" type="curve"/>
      <point x="506" y="-75"/>
      <point x="458" y="-40"/>
      <point x="391" y="-40" type="curve"/>
      <point x="353" y="-40"/>
      <point x="327" y="-46"/>
      <point x="293" y="-61" type="curve"/>
      <point x="365" y="-126"/>
      <point x="293" y="-61"/>
    </contour>
  </outline>
</glyph>
